<svg xmlns="http://www.w3.org/2000/svg" xmlns:xlink="http://www.w3.org/1999/xlink" width="102.3" height="30" viewBox="0 0 707.79 207.28"><defs><style>.cls-1{isolation:isolate;}.cls-2{fill:#7a67f8;}.cls-3{fill:#f85977;}.cls-4{fill:#159bff;}.cls-5{fill:#67e5ad;}.cls-6,.cls-7,.cls-8,.cls-9{fill-opacity:0.4;mix-blend-mode:multiply;}.cls-6{fill:url(#linear-gradient);}.cls-7{fill:url(#linear-gradient-2);}.cls-8{fill:url(#linear-gradient-3);}.cls-9{fill:url(#linear-gradient-4);}.cls-10{fill:#fff;}</style><linearGradient id="linear-gradient" x1="7403.74" y1="-173.76" x2="7412.29" y2="-182.77" gradientTransform="translate(7503.6 -91.54) rotate(180)" gradientUnits="userSpaceOnUse"><stop offset="0" stop-opacity="0.9"/><stop offset="0.79" stop-opacity="0"/></linearGradient><linearGradient id="linear-gradient-2" x1="5120.23" y1="-8606.21" x2="5128.78" y2="-8615.22" gradientTransform="translate(8731.96 5219.22) rotate(-90)" xlink:href="#linear-gradient"/><linearGradient id="linear-gradient-3" x1="-1016.81" y1="2063.51" x2="-1008.26" y2="2054.5" gradientTransform="translate(2147.76 1123.75) rotate(90)" xlink:href="#linear-gradient"/><linearGradient id="linear-gradient-4" x1="-3271.72" y1="-6381.46" x2="-3263.17" y2="-6390.47" gradientTransform="translate(3381.84 6505.21)" xlink:href="#linear-gradient"/></defs><g class="cls-1"><g id="Layer_2" data-name="Layer 2"><g id="Layer_1-2" data-name="Layer 1"><path class="cls-2" d="M144.59,161.68h-.05c-11.87,0-22.48-8.25-35.75-21.52L80,111.57l9-9.11,28.86,28.62c12.8,12.8,20.29,17.78,26.74,17.79h0c6.52,0,14.42-5.25,27.28-18.11l14.73-14.92c7.42-7.42,10.69-13.89,10-19.81-.54-4.81-3.72-10-10-16.24l-.14-.14c-6.77-7.21-15.05-15.24-23.7-19.69-1.61-8.22-6.87-14.7-7.62-15.88C171,46.4,185.11,59.48,195.76,70.8c11.6,11.62,24.14,29.85-.07,54.07L181,139.79C167.44,153.31,156.65,161.68,144.59,161.68Z"/><path class="cls-3" d="M105.66,119l27-27.3c12.79-12.8,17.77-20.29,17.79-26.74s-5.24-14.43-18.11-27.3L117.43,22.94c-15.18-15.17-24.37-11.71-36.05,0l-.15.14c-6.4,6-13.46,13.23-18.07,20.84-4.29.3-9.83,1.76-16.63,6.31C50.3,36.07,62.07,23.49,72.39,13.78c11.62-11.6,29.85-24.14,54.07.07l14.92,14.73C154.92,42.12,163.29,52.92,163.27,65c0,11.88-8.25,22.49-21.52,35.75l-27,27.29Z"/><path class="cls-4" d="M52.09,161c-14.9-3.17-28.19-15.54-38.33-26.31C8.47,129.4,1.33,121.18.17,110.92-1,100.87,3.5,91,13.83,80.64L28.56,65.71C42.09,52.19,52.88,43.83,64.93,43.83h0c11.87,0,22.48,8.25,35.75,21.52l29.31,29-9,9.1-29.34-29C78.9,61.63,71.41,56.65,65,56.64h0c-6.51,0-14.42,5.25-27.28,18.1L22.92,89.67c-7.42,7.42-10.69,13.89-10,19.81.55,4.81,3.72,10,10,16.24l.14.14c6.45,6.86,14.27,14.47,22.47,19C46.2,152.12,50.49,158.6,52.09,161Z"/><path class="cls-5" d="M109.49,207.28c-8,0-17.11-3.69-27.28-13.85L67.29,178.7c-29.16-29.15-29.22-43.31-.37-72.16L95.22,78l9.11,9L76,115.57c-12.8,12.8-17.78,20.29-17.79,26.74s5.23,14.43,18.11,27.3l14.92,14.73c15.17,15.17,24.37,11.72,36.05,0l.14-.13c6.88-6.47,14.56-14.39,19.11-22.62,6.91-.59,12.07-3.5,16-6-3.32,14.71-15.55,27.83-26.21,37.86C129.53,200.23,120.56,207.28,109.49,207.28Z"/><polygon class="cls-6" points="88.42 84.81 95.23 77.93 104.33 86.94 97.76 93.59 88.42 84.81"/><polygon class="cls-7" points="123.16 87.56 130.04 94.37 121.03 103.48 114.38 96.9 123.16 87.56"/><polygon class="cls-8" points="86.84 118.38 79.96 111.56 88.98 102.46 95.62 109.04 86.84 118.38"/><polygon class="cls-9" points="121.56 121.15 114.75 128.03 105.65 119.02 112.22 112.38 121.56 121.15"/><path class="cls-10" d="M603.75,13a59,59,0,1,0,59,59A59.1,59.1,0,0,0,603.75,13Zm0,93.69A34.66,34.66,0,1,1,638.41,72,34.7,34.7,0,0,1,603.75,106.69ZM352.08,17h24.38V72a59,59,0,0,1-118.07,0v-.73c-.31-13.83-.16-33.81,0-48.13l.08-6.18h24.88V72c0,19.1,15.29,34.65,34.07,34.65A34.7,34.7,0,0,0,352.08,72ZM519.63,86.12c.1,6.3.18,11.73-.11,34.77l-.07,6.18H494.57V72c0-19.11-15.29-34.66-34.08-34.66A34.69,34.69,0,0,0,425.84,72v55H401.46V72a59,59,0,1,1,118.06,0C519.52,79.06,519.58,82.65,519.63,86.12Z"/><path class="cls-10" d="M281.9,171.2q0,5.31-3.32,8.12t-9.44,2.81h-3v11.7h-7V161h10.5c4,0,7,.85,9.1,2.57S281.9,167.8,281.9,171.2Zm-15.75,5.22h2.3a7.63,7.63,0,0,0,4.81-1.27,4.47,4.47,0,0,0,1.6-3.7,4.56,4.56,0,0,0-1.34-3.62,6.29,6.29,0,0,0-4.2-1.17h-3.17Z"/><path class="cls-10" d="M311.13,193.83V161h7v27.12h13.33v5.76Z"/><path class="cls-10" d="M380.32,193.83,377.93,186H366l-2.39,7.83h-7.51l11.61-33h8.52l11.65,33Zm-4.05-13.68c-2.2-7.09-3.45-11.1-3.72-12s-.48-1.66-.6-2.2q-.74,2.88-4.25,14.23Z"/><path class="cls-10" d="M427.69,193.83h-7V166.75h-8.93V161h24.84v5.8h-8.93Z"/><path class="cls-10" d="M471.57,193.83h-6.86V161h18.85v5.71h-12v8.48h11.15v5.69H471.57Z"/><path class="cls-10" d="M542.87,177.34q0,8.16-4,12.55t-11.61,4.39q-7.56,0-11.6-4.39t-4.05-12.59q0-8.22,4.06-12.54t11.64-4.33q7.57,0,11.59,4.36T542.87,177.34Zm-24,0c0,3.68.69,6.44,2.09,8.3a7.31,7.31,0,0,0,6.25,2.79q8.34,0,8.35-11.09t-8.3-11.11A7.36,7.36,0,0,0,521,169Q518.87,171.84,518.87,177.34Z"/><path class="cls-10" d="M579.68,181.21v12.62h-7V161h9.58q6.71,0,9.92,2.44t3.22,7.41a8.7,8.7,0,0,1-1.6,5.16,10.47,10.47,0,0,1-4.52,3.54q7.43,11.08,9.67,14.33h-7.73l-7.85-12.62Zm0-5.67h2.25a8.53,8.53,0,0,0,4.88-1.1,3.93,3.93,0,0,0,1.58-3.46,3.61,3.61,0,0,0-1.61-3.33,9.74,9.74,0,0,0-5-1h-2.12Z"/><path class="cls-10" d="M640.08,193.83,632.16,168H632q.42,7.88.42,10.5v15.3h-6.23V161h9.49l7.79,25.14h.13L651.82,161h9.49v32.88h-6.5V178.26c0-.73,0-1.58,0-2.54s.12-3.51.3-7.64h-.2l-8.48,25.75Z"/><path class="cls-10" d="M689.36,12.55a9.23,9.23,0,0,1,4.6-8,9.24,9.24,0,0,1,12.6,3.36,9.13,9.13,0,0,1,1.23,4.62,9.18,9.18,0,0,1-9.21,9.2,9.21,9.21,0,0,1-8-4.66A9.07,9.07,0,0,1,689.36,12.55Zm1.29,0a7.94,7.94,0,0,0,7.93,7.93,7.74,7.74,0,0,0,4-1.07,7.93,7.93,0,0,0,2.89-2.89,7.61,7.61,0,0,0,1.08-4,7.74,7.74,0,0,0-1.07-4,8,8,0,0,0-2.88-2.9,7.76,7.76,0,0,0-4-1.07,7.65,7.65,0,0,0-4,1.07,8,8,0,0,0-2.9,2.88A7.74,7.74,0,0,0,690.65,12.55Zm11.67-2.23a3,3,0,0,1-.52,1.73,3.09,3.09,0,0,1-1.47,1.12L703.25,18h-2.06l-2.54-4.34H697V18h-1.82V7.09h3.2a4.63,4.63,0,0,1,3,.8A3,3,0,0,1,702.32,10.32ZM697,12.17h1.32a2.36,2.36,0,0,0,1.58-.51,1.64,1.64,0,0,0,.59-1.29A1.54,1.54,0,0,0,700,9.05a2.72,2.72,0,0,0-1.66-.4H697Z"/></g></g></g></svg>