<?xml version="1.0" encoding="utf-8"?>
<!-- Generator: Adobe Illustrator 28.0.0, SVG Export Plug-In . SVG Version: 6.00 Build 0)  -->
<svg version="1.1" id="Layer_1" xmlns="http://www.w3.org/2000/svg" xmlns:xlink="http://www.w3.org/1999/xlink" x="0px" y="0px"
	 viewBox="0 0 571 96" style="enable-background:new 0 0 571 96;" xml:space="preserve">
<style type="text/css">
	.st0{enable-background:new    ;}
	.st1{fill:none;}
	.st2{fill:#7B66F4;}
	.st3{fill:#6AE4AC;}
	.st4{fill:#EA5777;}
	.st5{fill:#4398F6;}
</style>
<g class="st0">
</g>
<g>
	<path d="M192.7,52.1c0,3.3-1.6,4.9-4.8,4.9c-1.5,0-2.7-0.4-3.5-1.2c-0.8-0.8-1.3-2.1-1.3-3.9V34.1h-5.6v18c0,2.9,1,5.2,2.8,6.9
		s4.4,2.5,7.5,2.5c3.2,0,5.7-0.9,7.6-2.6c1.8-1.7,2.8-4.1,2.8-7V34.1h-5.6V52.1z"/>
	<path d="M213.3,40.7c-2.4,0-4.3,0.9-5.8,2.7l-0.2-2.3h-5v20.1h5.4V46.9c0.8-1.3,1.9-1.9,3.4-1.9c1.2,0,2,0.3,2.5,0.8
		c0.5,0.5,0.7,1.3,0.7,2.5v12.8h5.4v-13c0-2.5-0.6-4.4-1.6-5.6C217,41.3,215.5,40.7,213.3,40.7z"/>
	<path d="M239,43.1c-1.7-1.7-3.9-2.5-6.6-2.5c-1.9,0-3.6,0.4-5,1.3c-1.4,0.9-2.5,2.1-3.3,3.6c-0.8,1.6-1.2,3.3-1.2,5.3v0.2
		c0,3.2,0.9,5.7,2.6,7.6c1.7,1.9,4,2.8,6.9,2.8s5.2-0.9,6.9-2.8c1.7-1.9,2.6-4.3,2.6-7.4l0-1.4C241.7,47,240.7,44.8,239,43.1z
		 M235.5,55.7c-0.7,1-1.7,1.5-3,1.5c-1.3,0-2.4-0.5-3.1-1.5c-0.7-1-1.1-2.5-1.1-4.4c0-2.1,0.4-3.7,1.1-4.7c0.7-1,1.7-1.5,3-1.5
		c1.3,0,2.3,0.5,3.1,1.5c0.7,1,1.1,2.5,1.1,4.3C236.6,53.1,236.2,54.7,235.5,55.7z"/>
	<polygon points="265.1,34.1 243.1,34.1 243.1,38.6 251.2,38.6 251.2,61.1 256.8,61.1 256.8,38.6 265.1,38.6 	"/>
	<path d="M275.7,55.3c-0.7,1.3-1.9,1.9-3.7,1.9c-1.9,0-2.9-1-2.9-3.1V41h-5.4v13.2c0,2.4,0.6,4.2,1.7,5.4c1.1,1.2,2.8,1.9,4.9,1.9
		c2.3,0,4.2-0.8,5.5-2.4l0.1,2h5V41h-5.4V55.3z"/>
	<path d="M295.3,40.7c-2,0-3.6,0.7-4.9,2.2V32.6h-5.4v28.5h4.8l0.2-2.1c1.3,1.7,3,2.5,5.2,2.5c2.5,0,4.4-0.9,5.8-2.7
		c1.4-1.8,2.1-4.3,2.1-7.5V51c0-3.3-0.7-5.8-2.1-7.6C299.7,41.6,297.8,40.7,295.3,40.7z M297.4,54.6c-0.5,1.7-1.7,2.6-3.4,2.6
		c-1.7,0-2.9-0.7-3.6-2.1v-7.9c0.6-1.4,1.8-2.1,3.5-2.1c1.3,0,2.2,0.5,2.9,1.4c0.6,0.9,1,2.4,1,4.4
		C297.8,52.5,297.7,53.8,297.4,54.6z"/>
	<path d="M315.1,40.7c-1.8,0-3.5,0.4-4.9,1.3c-1.4,0.9-2.5,2.1-3.3,3.7c-0.8,1.6-1.2,3.4-1.2,5.4v0.5c0,3,0.9,5.4,2.8,7.2
		c1.8,1.8,4.2,2.7,7.2,2.7c1.7,0,3.2-0.3,4.6-1c1.4-0.6,2.5-1.5,3.3-2.7l-2.6-3c-1.2,1.5-2.8,2.2-4.8,2.2c-1.3,0-2.4-0.4-3.3-1.2
		c-0.9-0.8-1.4-1.8-1.6-3.2H324v-2.2c0-3.2-0.8-5.6-2.4-7.4C320,41.5,317.9,40.7,315.1,40.7z M318.7,49.2h-7.5
		c0.2-1.3,0.6-2.4,1.3-3.1c0.7-0.7,1.5-1.1,2.6-1.1c1.1,0,2,0.3,2.6,1c0.6,0.7,0.9,1.6,1,2.8V49.2z"/>
	<path d="M352.7,35.2c-1.5-0.7-3.3-1.1-5.4-1.1h-10.5v27h5.6v-9.5h4.9c3.2,0,5.7-0.8,7.5-2.3c1.8-1.5,2.7-3.6,2.7-6.3
		c0-1.7-0.4-3.3-1.2-4.7C355.5,37,354.3,35.9,352.7,35.2z M350.7,46c-0.8,0.7-1.9,1-3.4,1h-5v-8.5h5.1c1.4,0,2.4,0.4,3.2,1.3
		s1.2,1.9,1.2,3.2C351.9,44.4,351.5,45.3,350.7,46z"/>
	<rect x="361.3" y="32.6" width="5.4" height="28.5"/>
	<path d="M388.1,47.8c0-2.3-0.7-4-2.2-5.2c-1.5-1.2-3.4-1.9-5.9-1.9c-1.6,0-3.1,0.3-4.4,0.8c-1.3,0.6-2.3,1.3-3,2.3
		c-0.7,1-1.1,2.1-1.1,3.2h5.4c0-0.8,0.3-1.3,0.8-1.8c0.5-0.4,1.2-0.6,2.1-0.6c1,0,1.8,0.3,2.3,0.8c0.5,0.6,0.7,1.3,0.7,2.2v1.1h-2.5
		c-3,0-5.3,0.6-6.8,1.7c-1.6,1.1-2.4,2.8-2.4,4.9c0,1.7,0.6,3.2,1.9,4.3c1.3,1.1,2.9,1.7,4.9,1.7c2.1,0,3.8-0.7,5.1-2.2
		c0.1,0.7,0.3,1.3,0.5,1.8h5.4v-0.3c-0.5-1-0.8-2.4-0.8-4.3V47.8z M382.8,55.4c-0.3,0.6-0.8,1.1-1.5,1.4c-0.7,0.4-1.4,0.5-2.2,0.5
		c-0.8,0-1.5-0.2-1.9-0.6c-0.5-0.4-0.7-1-0.7-1.7l0-0.3c0.2-1.9,1.6-2.8,4.3-2.8h2V55.4z"/>
	<path d="M399,53.5L395.3,41h-5.8l7,20.1l-0.6,1.7c-0.3,0.7-0.7,1.2-1.2,1.5c-0.5,0.3-1.3,0.5-2.3,0.5l-0.8,0v4.1
		c0.8,0.2,1.6,0.4,2.4,0.4c2.8,0,4.7-1.3,5.9-3.9l0.4-1.1l8.1-23.2h-5.8L399,53.5z"/>
	<path d="M418.9,40.7c-1.8,0-3.5,0.4-4.9,1.3c-1.4,0.9-2.5,2.1-3.3,3.7c-0.8,1.6-1.2,3.4-1.2,5.4v0.5c0,3,0.9,5.4,2.8,7.2
		c1.8,1.8,4.2,2.7,7.2,2.7c1.7,0,3.2-0.3,4.6-1c1.4-0.6,2.5-1.5,3.3-2.7l-2.6-3c-1.2,1.5-2.8,2.2-4.8,2.2c-1.3,0-2.4-0.4-3.3-1.2
		c-0.9-0.8-1.4-1.8-1.6-3.2h12.8v-2.2c0-3.2-0.8-5.6-2.4-7.4C423.8,41.5,421.6,40.7,418.9,40.7z M422.4,49.2H415
		c0.2-1.3,0.6-2.4,1.3-3.1c0.7-0.7,1.5-1.1,2.6-1.1c1.1,0,2,0.3,2.6,1c0.6,0.7,0.9,1.6,1,2.8V49.2z"/>
	<path d="M440.4,40.7c-1.9,0-3.4,0.9-4.5,2.8l-0.1-2.4h-5.1v20.1h5.4V48c0.6-1.4,2-2.1,4-2.1c0.6,0,1.2,0,1.9,0.1l0.1-5.2
		C441.6,40.7,441,40.7,440.4,40.7z"/>
</g>
<path class="st1" d="M113.7,27.3c-0.6-0.4-1.2-0.4-1.7-0.1c-0.6,0.3-1,0.9-1,1.5v36.7c0,1,0.8,1.7,1.7,1.7c0.3,0,0.7-0.1,1-0.3
	l8.5-5.4l13.9-8.8l6.5-4.1c0.9-0.5,1.1-1.6,0.6-2.4c-0.1-0.2-0.3-0.4-0.6-0.6l-6.4-4.1l-13.9-8.8C122.2,32.7,113.7,27.3,113.7,27.3z
	"/>
<path class="st2" d="M113.7,66.9c-0.3,0.2-0.6,0.3-1,0.3c-1,0-1.7-0.8-1.7-1.7V28.7c0-0.7,0.4-1.2,1-1.5c0.5-0.3,1.2-0.3,1.7,0.1
	l8.5,5.4l3.2-4.9l-8.5-5.4c-1.2-0.9-2.7-1.2-4.1-1.2c-4.2,0-7.6,3.4-7.6,7.6v36.7l0,0c0,4.2,3.4,7.6,7.6,7.6c1.4,0,2.9-0.4,4-1.2
	l8.6-5.4l-3.2-5L113.7,66.9L113.7,66.9z"/>
<polygon class="st3" points="122.2,61.5 136.1,52.7 139.2,57.6 125.4,66.5 "/>
<path class="st4" d="M145.7,40.7l-6.4-4.1l-3.2,4.9l6.4,4.1c0.2,0.1,0.4,0.3,0.6,0.6c0.5,0.9,0.3,1.9-0.6,2.4l-6.4,4.1l3.1,4.9
	l6.4-4.2c1-0.6,1.7-1.3,2.3-2.3C150.3,47.7,149.2,43,145.7,40.7L145.7,40.7z"/>
<polygon class="st5" points="122.2,32.7 125.4,27.8 139.3,36.6 136.1,41.5 "/>
</svg>
