<svg width="240" height="240" viewBox="0 0 240 240" fill="none" xmlns="http://www.w3.org/2000/svg">
  <!-- Voyago suitcase mark, transparent bg, centred on (120,120) and scaled to the adaptive safe zone (~0.82). -->
  <g transform="translate(120 120) scale(0.82) translate(-120 -120)">
    <path fill-rule="evenodd" clip-rule="evenodd" d="M130 30C146.569 30 160 43.4315 160 60V66.7695C174.306 69.9621 185 82.7315 185 98V164C185 178.911 174.802 191.437 161 194.989V201C161 205.971 156.971 210 152 210C147.029 210 143 205.971 143 201V196H97V201C97 205.971 92.9706 210 88 210C83.0294 210 79 205.971 79 201V194.989C65.4542 191.503 55.3794 179.372 55.0107 164.826L55 164V98C55 82.7315 65.6938 69.9621 80 66.7695V60C80 43.4315 93.4315 30 110 30H130ZM87 82C78.1634 82 71 89.1634 71 98V164C71 172.837 78.1634 180 87 180H153C161.837 180 169 172.837 169 164V98C169 89.1634 161.837 82 153 82H87ZM110 46C102.268 46 96 52.268 96 60V66H144V60C144 52.268 137.732 46 130 46H110Z" fill="url(#paint0_linear_voyago)"/>
    <path fill-rule="evenodd" clip-rule="evenodd" d="M149.079 95.9776C152.096 95.1157 154.886 97.9056 154.024 100.923L141.611 144.367C140.472 148.354 137.355 151.47 133.369 152.609L89.9243 165.022C86.9071 165.884 84.1171 163.094 84.979 160.077L97.3921 116.633C98.5311 112.646 101.648 109.53 105.634 108.391L149.079 95.9776ZM119.501 118.333C116.122 118.333 113.249 119.516 110.883 121.882C108.518 124.248 107.334 127.12 107.334 130.5C107.334 133.88 108.518 136.752 110.883 139.118C113.249 141.484 116.122 142.667 119.501 142.667C122.881 142.667 125.754 141.484 128.12 139.118C130.485 136.752 131.668 133.88 131.668 130.5C131.668 127.12 130.485 124.248 128.12 121.882C125.754 119.516 122.881 118.333 119.501 118.333Z" fill="white"/>
  </g>
  <defs>
    <linearGradient id="paint0_linear_voyago" x1="185" y1="210" x2="17.9105" y2="76.3796" gradientUnits="userSpaceOnUse">
      <stop stop-color="#B685FF"/>
      <stop offset="1" stop-color="#E7A3FF"/>
    </linearGradient>
  </defs>
</svg>
