<svg width="240" height="240" viewBox="0 0 240 240" fill="none" xmlns="http://www.w3.org/2000/svg">
<!-- The FitStart mark (white activity dot + green motion path), re-centred on the tile and scaled
     to ~0.80 so it sits inside the adaptive-icon safe zone (a centred circle of ~146px in this
     240 viewBox). The userSpaceOnUse gradient is wrapped in the same group, so it transforms with
     the mark and stays aligned. -->
<g transform="translate(120 120) scale(0.8) translate(-120.37 -120)">
<circle cx="155.75" cy="57" r="23" fill="white"/>
<path d="M188.393 70.5956C193.149 65.9803 200.746 66.0937 205.361 70.8495C209.977 75.6056 209.863 83.2028 205.106 87.8183L181.64 110.592C169.947 121.939 152.455 123.797 138.861 116.108L131.054 123.916C133.719 125.389 136.225 127.254 138.485 129.515C151.456 142.485 151.456 163.515 138.485 176.485L116.485 198.485C111.799 203.172 104.201 203.172 99.5147 198.485C94.8286 193.799 94.8284 186.201 99.5147 181.515L121.515 159.515C125.113 155.917 125.113 150.083 121.515 146.485C117.917 142.888 112.083 142.887 108.485 146.485L52.4854 202.485C47.7991 207.172 40.2009 207.172 35.5147 202.485C30.8284 197.799 30.8284 190.201 35.5147 185.515L115.523 105.505C118.347 102.661 118.256 98.0416 115.316 95.3124C112.521 92.7169 108.173 92.7968 105.476 95.4941L85.4854 115.485C80.7991 120.172 73.201 120.172 68.5147 115.485C63.8285 110.799 63.8284 103.201 68.5147 98.5146L88.5059 78.5243C100.083 66.9475 118.593 66.3677 130.864 77.0253C131.168 77.2623 131.464 77.5156 131.75 77.7861L148.318 93.4716C152.988 97.8918 160.312 97.8466 164.926 93.3691L188.393 70.5956Z" fill="url(#fit_icon_grad)"/>
</g>
<defs>
<linearGradient id="fit_icon_grad" x1="148" y1="172.5" x2="98.8775" y2="78.6675" gradientUnits="userSpaceOnUse">
<stop stop-color="#99FF85"/>
<stop offset="1" stop-color="#A3FFB6"/>
</linearGradient>
</defs>
</svg>
