<svg id="All" xmlns="http://www.w3.org/2000/svg" viewBox="0 0 24 24"><path fill="#7C59B6" d="M13,13H11V5h2Zm2-8H14v8h1Zm5,0H19V16h1ZM17.667,15H14.59961v.65918H16.624l-2.02734,3.15918v.44726H17.7168v-.65917H15.63086L17.667,15.42773ZM17,5H16v8h1ZM6.53223,15l1.26562,2.11523L6.5,19.26562h.999l.82325-1.53808.82324,1.53808h1.03418L8.84082,17.11523,10.10645,15h-.9961l-.7998,1.51172L7.52246,15Zm5.32715,4.26562h.85253v-1.5L14.17676,15h-.9375l-.93164,1.96582H12.29L11.3584,15h-.9375l1.43848,2.72168ZM5,5H4V16H5ZM22,2V22H2V2ZM21,3H3V21H21ZM8,5H6v8H8Zm2,0H9v8h1Z"/></svg>