<?xml version="1.0" encoding="UTF-8"?><svg id="Layer_1" xmlns="http://www.w3.org/2000/svg" viewBox="0 0 20 12"><path d="M19.9994,2.8558c-.0005-.9474-.7841-1.9175-1.7419-2.1209-.0805-.0189-2.1268-.4931-4.85-.6697C10.8511-.1004,7.155-.0307,4.0643,1.2431,2.5205,1.8793,1.3969,2.6881,.7244,3.647,.2239,4.3607-.0179,5.1405,.001,5.9739v1.5042l.0106,.3109,.0004,.0064c.0158,.215,.0489,.435,.0984,.654,.2326,1.0291,1.1644,2.064,2.4925,2.7682,.9569,.5077,2.0077,.7823,2.9818,.7823,.0668,0,.1333-.0013,.1994-.0039,.1882-.0072,.3744-.0253,.5531-.0537,.0549-.0086,.1114-.0187,.1727-.0308,.239-.0476,.4733-.103,.6963-.1647,2.0567-.5676,3.0818-1.6181,4.0732-2.6339,.5354-.5486,1.0412-1.0668,1.6951-1.4973,.4332-.2851,.807-.5171,1.3419-.6929,.5721-.188,1.2893-.2948,2.257-.3362,.348-.0149,.6754-.0469,.9731-.0952,.8186-.1325,1.4468-.3896,1.8672-.7642,.3771-.3361,.5798-.7644,.5862-1.2412l.0002-1.6302h-.0006ZM4.1924,1.5791C6.5035,.6267,9.169,.3613,11.4219,.3613c.7,0,1.3606,.0256,1.9578,.0642,2.7378,.177,4.7823,.6574,4.8026,.6622l.0041,.0009c.8269,.1747,1.5238,1.0651,1.4621,1.8681-.0748,.9737-1.2008,1.5785-3.0894,1.6592-2.1171,.0905-2.8368,.4702-3.7705,1.0848-.6855,.4512-1.2283,1.0074-1.7532,1.5452-1.0636,1.0898-2.1634,2.2167-4.5909,2.7011-1.1576,.2309-2.5316-.0269-3.7698-.7074-1.1901-.6541-2.0221-1.5821-2.2257-2.4824-.0597-.2639-.0928-.522-.1001-.7742v-.0636h-.0012c-.0213-1.7987,1.2907-3.2878,3.8449-4.3405Zm13.3004,4.5551c-.2847,.0462-.5989,.0769-.9338,.0912-.9994,.0427-1.7453,.1548-2.3475,.3527-.5737,.1886-.9839,.4432-1.423,.7322-.6855,.4512-1.2283,1.0074-1.7532,1.5452-.9591,.9827-1.9508,1.9989-3.9185,2.542-.2153,.0595-.4415,.113-.6724,.159-.0566,.0112-.1087,.0205-.1596,.0285-.166,.0264-.3388,.0432-.5138,.0498-.9707,.0384-2.0397-.2243-3.0103-.7392-1.2382-.6565-2.1025-1.6019-2.312-2.5289-.0452-.1998-.0754-.4002-.0899-.5956l-.0102-.2596v-.0232c.3943,.7774,1.1621,1.5207,2.1634,2.071,.9906,.5444,2.0674,.8317,3.0679,.8317,.3195,0,.6313-.0293,.9299-.0889,2.531-.505,3.669-1.671,4.7695-2.7986,.5354-.5486,1.0412-1.0668,1.6951-1.4973,.8848-.5824,1.5685-.9423,3.5989-1.0291,1.1107-.0475,1.9723-.2653,2.5607-.6472,.2247-.1459,.3929-.3048,.5181-.4657v.6193c-.0113,.841-.7781,1.4272-2.1593,1.6507Z" style="fill:#fff;"/><path d="M2.4845,8.5401c.9486,.61,2.0786,.9599,3.1003,.96h.0004c.2741,0,.5401-.0253,.7906-.0753,2.3192-.4628,3.3319-1.5004,4.4042-2.5992,.5386-.5518,1.0955-1.1224,1.8138-1.5952,.9563-.6294,1.7478-1.049,3.9503-1.1432,1.659-.0709,2.6839-.5611,2.7415-1.3112,.0465-.6056-.5339-1.3323-1.1716-1.4671l-.0129-.0029c-.0302-.0072-3.0639-.7183-6.7083-.7183-2.7687,0-5.1461,.4012-7.0662,1.1926-1.4167,.5839-2.4352,1.3079-3.0271,2.1519-.5503,.7846-.7126,1.6311-.4963,2.5878,.1555,.6879,.7841,1.4431,1.6813,2.02Zm-.9041-4.3949c.5526-.788,1.5196-1.4706,2.8743-2.0288,1.8791-.7744,4.2134-1.1671,6.9381-1.1671,3.6041,0,6.601,.7021,6.6309,.7092l.0211,.0047c.4675,.0988,.9273,.656,.8944,1.0841-.0404,.5256-1.0086,.9189-2.4093,.9788-2.289,.0978-3.1182,.5382-4.122,1.1989-.7499,.4936-1.3203,1.078-1.8721,1.6434-1.0335,1.059-2.0098,2.0593-4.2255,2.5014-.2289,.0457-.4729,.0688-.7251,.0688h-.0003c-.9589,0-2.0222-.3303-2.9174-.906-.8205-.5276-1.3909-1.1988-1.5258-1.7953-.1917-.848-.0482-1.5978,.4388-2.2922Z" style="fill:#fff;"/><path d="M4.3353,7.2524c.1299,.028,.2663,.0418,.4065,.0418,.3091,0,.6366-.0673,.9536-.1986,.4606-.1908,.8481-.4958,1.0911-.8587,.2582-.3856,.3259-.7924,.1906-1.1454-.1353-.353-.4535-.5999-.896-.6953-.4165-.0898-.8995-.0341-1.3601,.1568-.4606,.1908-.8481,.4958-1.0911,.8587-.2582,.3856-.3259,.7924-.1906,1.1454,.1353,.353,.4535,.5999,.896,.6952Zm-.4201-1.6341c.2045-.3054,.5364-.5645,.9344-.7294,.2762-.1144,.5593-.1732,.8238-.1732,.1167,0,.2298,.0114,.3371,.0345,.3244,.0699,.553,.2386,.6436,.4751,.1943,.5071-.3036,1.2098-1.0874,1.5345-.7838,.3247-1.6101,.1706-1.8045-.3365-.0906-.2365-.0363-.5224,.153-.8051Z" style="fill:#fff;"/></svg>