<svg id="All" xmlns="http://www.w3.org/2000/svg" viewBox="0 0 24 24"><path fill="#7C59B6" d="M7.69183,17.302a1.75,1.75,0,0,1-1.23352,2.98969A1.75,1.75,0,1,1,7.69183,17.302ZM6,12.75012a1.92671,1.92671,0,0,0-.58746-1.41272A1.926,1.926,0,0,0,4,10.74994a1.92633,1.92633,0,0,0-1.4126.58746,1.992,1.992,0,0,0,0,2.825A1.92578,1.92578,0,0,0,4,14.75006a1.92564,1.92564,0,0,0,1.41254-.58765A1.92516,1.92516,0,0,0,6,12.75012ZM17.95837,7.45837a.75208.75208,0,1,0-.52978-.22033A.72235.72235,0,0,0,17.95837,7.45837ZM6.54187,4.7085A2.24775,2.24775,0,0,0,4.29175,6.95837,2.248,2.248,0,0,0,6.54187,9.20856,2.24789,2.24789,0,0,0,8.79175,6.95837,2.24767,2.24767,0,0,0,6.54187,4.7085Zm14.66705,7.16656a1.00614,1.00614,0,1,0,.29163.70856A.96433.96433,0,0,0,21.20892,11.87506Zm-3.16717,5.3335a1.25748,1.25748,0,1,0,.88165.36828A1.203,1.203,0,0,0,18.04175,17.20856ZM12.24994,19.5a1.50092,1.50092,0,1,0,1.06048.43976A1.446,1.446,0,0,0,12.24994,19.5ZM12.41675,2a2.41144,2.41144,0,0,0-1.77106.72906,2.41167,2.41167,0,0,0-.72906,1.771A2.48936,2.48936,0,0,0,12.41675,7a2.41,2.41,0,0,0,1.77081-.72913,2.41086,2.41086,0,0,0,.72907-1.77081,2.41208,2.41208,0,0,0-.72907-1.771A2.4107,2.4107,0,0,0,12.41675,2Z"/></svg>