<svg xmlns="http://www.w3.org/2000/svg" width="67.5" height="82.209" viewBox="0 0 67.5 82.209">
  <g id="Card" transform="translate(-173 -464.791)">
    <text id="Car" transform="translate(173 510)" fill="#f85446" font-size="12" font-family="SFProText-Bold, SF Pro Text" font-weight="700"><tspan x="21.403" y="11">Car</tspan></text>
    <g id="Group_4408" data-name="Group 4408" transform="translate(-19 148.934)">
      <path id="Path_2629" data-name="Path 2629" d="M3.017,22.289a3.152,3.152,0,0,1-.371-.022,2.96,2.96,0,0,1-1.719-.778A3.062,3.062,0,0,1,.05,19.836a5.724,5.724,0,0,1-.038-.579C0,18.9,0,18.657.01,17.777L.021,16.76C.061,13.9.088,12,1.112,10.251l.055-.1a3.222,3.222,0,0,1,.656-.864,6.96,6.96,0,0,1,2.83-1.384c.869-.245,1.325-.356,1.741-.458.329-.08.631-.154,1.1-.285A15.087,15.087,0,0,0,10.66,6.057,15.366,15.366,0,0,0,12.251,5l.76-.526c1.7-1.176,2.4-1.66,2.665-1.814a17.471,17.471,0,0,1,3.749-1.593A23.366,23.366,0,0,1,23.417.225a31.4,31.4,0,0,1,7.015-.05,39.431,39.431,0,0,1,6.883,1.194,29.819,29.819,0,0,1,5.132,1.788l.146.067a19.769,19.769,0,0,1,4.014,2.248c.347.262.712.5,1.077.744a12.736,12.736,0,0,1,1.891,1.426,2.451,2.451,0,0,0,.886.567,2.019,2.019,0,0,0,.5.116,67.911,67.911,0,0,1,7.065,1.24,20.083,20.083,0,0,1,2.835.911,8.919,8.919,0,0,1,1.554.8,5.1,5.1,0,0,1,1.043.819,4.7,4.7,0,0,1,1.031,1.88A12.276,12.276,0,0,1,65,17.565a19.064,19.064,0,0,1-.115,2.453,5.88,5.88,0,0,1-.388,1.31,1.353,1.353,0,0,1-.659.8,1.169,1.169,0,0,1-.713.078L58.7,22.2l.122-.6A6.425,6.425,0,1,0,46.1,20.316a6.363,6.363,0,0,0,.125,1.268l.12.6h-.611q-7.413,0-14.825.007-6.115.007-12.23.025h-.615l.123-.6a6.489,6.489,0,0,0,.132-1.3A6.433,6.433,0,0,0,14.393,14.4a6.48,6.48,0,0,0-5,0,6.436,6.436,0,0,0-3.783,7.26l.129.6-2.4.01a2.4,2.4,0,0,1-.321.02M26.977,1a26.664,26.664,0,0,0-3.433.22,22.33,22.33,0,0,0-3.82.8,16.327,16.327,0,0,0-3.546,1.5c-.241.14-1.128.754-2.6,1.771l-.759.526a15.253,15.253,0,0,1-1.7,1.121A15.973,15.973,0,0,1,7.764,8.128c-.483.135-.8.211-1.133.294-.408.1-.855.208-1.707.448a6.086,6.086,0,0,0-2.432,1.166,2.27,2.27,0,0,0-.458.618l-.059.1c-.891,1.526-.916,3.313-.954,6.018L1.01,17.791c-.013.847-.014,1.084,0,1.424.01.253.012.379.025.453a2.092,2.092,0,0,0,.577,1.094,1.98,1.98,0,0,0,1.152.512,2.073,2.073,0,0,0,.51,0l1.253-.008a7.5,7.5,0,0,1-.06-.949A7.431,7.431,0,0,1,9,13.476a7.417,7.417,0,0,1,8.14,1.591,7.428,7.428,0,0,1,2.121,6.146q5.821-.015,11.643-.023,7.12-.01,14.241-.007a7.583,7.583,0,0,1-.049-.867,7.433,7.433,0,0,1,4.533-6.84,7.478,7.478,0,0,1,5.781,0,7.419,7.419,0,0,1,4.534,6.84,7.624,7.624,0,0,1-.052.883l3.4.02a.208.208,0,0,0,.127,0c.052-.024.119-.188.15-.266a5.293,5.293,0,0,0,.324-1.06A18.207,18.207,0,0,0,64,17.582a11.285,11.285,0,0,0-.458-3.289,3.781,3.781,0,0,0-.81-1.51,4.148,4.148,0,0,0-.859-.664,7.928,7.928,0,0,0-1.387-.717,19.069,19.069,0,0,0-2.684-.863,67.776,67.776,0,0,0-6.884-1.215,2.964,2.964,0,0,1-.79-.173,3.453,3.453,0,0,1-1.238-.783A11.853,11.853,0,0,0,47.133,7.05C46.75,6.8,46.369,6.545,46,6.27a18.971,18.971,0,0,0-3.83-2.138l-.146-.067a29,29,0,0,0-4.972-1.731,38.586,38.586,0,0,0-6.708-1.163C29.422,1.093,28.3,1,26.977,1M45.411,9.549h-.033l-13.559-.5A.859.859,0,0,1,31,8.3l-.674-4.933a.857.857,0,0,1,.222-.7.9.9,0,0,1,.684-.273,27.765,27.765,0,0,1,7.8,1.62,22.086,22.086,0,0,1,5.552,2.878c.484.363.955.754,1.4,1.163a.86.86,0,0,1-.58,1.495M31.974,8.05l13.053.484c-.336-.294-.684-.576-1.039-.843a21.093,21.093,0,0,0-5.3-2.739A26.688,26.688,0,0,0,31.339,3.4Zm-3.341.866h-.008L14.636,8.781a.77.77,0,0,1-.542-1.31,16.123,16.123,0,0,1,3.573-2.732,17.551,17.551,0,0,1,5.042-1.827,22.265,22.265,0,0,1,5.34-.55.771.771,0,0,1,.75.68l.6,5.013a.769.769,0,0,1-.764.861m0-1h0ZM15.2,7.786l13.171.127L27.83,3.36a20.316,20.316,0,0,0-4.9.528,16.44,16.44,0,0,0-4.773,1.723A15.121,15.121,0,0,0,15.2,7.786" transform="translate(194.5 315.857)" fill="#f85446"/>
      <path id="Path_2630" data-name="Path 2630" d="M52.521,26.143a5.866,5.866,0,0,1-.742-.047,5.69,5.69,0,0,1-.574-.1c-.141-.032-.28-.07-.417-.112-.091-.029-.181-.059-.27-.092-.135-.049-.266-.1-.4-.161-.087-.04-.172-.08-.256-.124a5.769,5.769,0,0,1-.833-.519c-.074-.055-.147-.113-.219-.172-.109-.091-.214-.183-.315-.28s-.2-.2-.292-.3-.185-.211-.271-.321l-.083-.109q-.171-.228-.316-.468a5.621,5.621,0,0,1-.269-.5A5.85,5.85,0,0,1,47,22.184c-.041-.122-.079-.247-.112-.372a5.854,5.854,0,0,1,.091-3.3l.046-.136a5.414,5.414,0,0,1,.206-.506l.078-.163c.06-.119.121-.232.186-.342l.088-.145c.068-.107.137-.211.21-.311s.14-.188.215-.28l.117-.14a6.012,6.012,0,0,1,.582-.58l.1-.088c.11-.091.221-.176.335-.258.076-.054.154-.106.233-.157s.158-.1.239-.145.165-.092.248-.135.171-.085.258-.124c.126-.057.258-.111.393-.16.088-.033.177-.063.267-.091.141-.044.28-.081.42-.114a5.485,5.485,0,0,1,.575-.1,5.91,5.91,0,0,1,2.517.229l.182.062c.168.06.336.129.5.2l.136.066c.127.063.255.133.38.207l.1.06c.128.08.258.167.384.26.085.063.169.128.25.2l.107.09A5.824,5.824,0,0,1,57.19,23.8l-.085.111a5.724,5.724,0,0,1-.564.62c-.1.1-.205.189-.313.279l-.173.136a5.767,5.767,0,0,1-.944.588l-.131.063q-.248.115-.5.207l-.18.06a5.8,5.8,0,0,1-1.776.277m0-10.654a4.828,4.828,0,0,0-.616.039c-.161.021-.32.049-.475.085-.117.026-.232.058-.346.093-.072.023-.148.049-.223.076-.11.04-.219.084-.325.133-.074.033-.144.067-.213.1l-.207.112c-.064.037-.131.078-.2.12s-.128.085-.191.13c-.1.068-.188.138-.277.212l-.09.075a4.963,4.963,0,0,0-.481.481l-.1.117q-.091.113-.177.231c-.062.086-.119.171-.174.258l-.073.119c-.054.093-.1.187-.153.283l-.065.135c-.064.137-.12.276-.17.418l-.039.115a4.8,4.8,0,0,0-.236,1.493,4.874,4.874,0,0,0,.16,1.239c.028.1.059.208.094.31a4.491,4.491,0,0,0,.221.542c.068.142.143.278.223.411s.168.262.261.386l.071.093c.071.09.146.179.224.265s.157.167.241.247.173.159.262.232c.058.048.119.1.181.142a4.759,4.759,0,0,0,.692.431c.07.037.14.071.211.1.106.047.215.092.326.133.074.027.149.052.224.076.114.035.228.066.346.093a4.651,4.651,0,0,0,.474.085,4.888,4.888,0,0,0,2.088-.19l.147-.05c.143-.051.281-.108.417-.171l.11-.053a4.734,4.734,0,0,0,.781-.487l.144-.113c.088-.072.175-.15.258-.23a4.739,4.739,0,0,0,.468-.514l.073-.095a4.8,4.8,0,0,0,.793-1.635,4.832,4.832,0,0,0-1.5-4.9l-.092-.077c-.065-.054-.134-.108-.205-.16-.1-.077-.212-.149-.323-.218-.181-.109-.287-.166-.394-.22l-.111-.053c-.134-.062-.272-.119-.414-.17l-.148-.05a4.826,4.826,0,0,0-1.472-.229" transform="translate(194.5 315.857)" fill="#f85446"/>
      <path id="Path_2631" data-name="Path 2631" d="M11.892,26.143a5.866,5.866,0,0,1-.742-.047,5.69,5.69,0,0,1-.574-.1c-.141-.032-.28-.07-.417-.113-.09-.028-.181-.058-.27-.091-.135-.049-.266-.1-.395-.161-.087-.04-.172-.08-.256-.124a5.769,5.769,0,0,1-.833-.519c-.074-.055-.147-.113-.219-.172-.109-.091-.214-.183-.315-.28s-.2-.2-.292-.3-.185-.211-.271-.321L7.222,23.8a5.553,5.553,0,0,1-.313-.465,5.621,5.621,0,0,1-.269-.5,5.757,5.757,0,0,1-.269-.659c-.033-.1-.063-.195-.091-.3a5.843,5.843,0,0,1,.07-3.373l.046-.137c.061-.173.129-.341.206-.506l.078-.163c.06-.119.121-.232.186-.342l.09-.148c.065-.1.135-.207.207-.306s.142-.192.217-.283L7.5,16.49a6.127,6.127,0,0,1,.582-.58l.1-.088c.109-.091.221-.176.334-.257.078-.055.156-.108.236-.159s.155-.1.237-.144.165-.092.248-.135.171-.085.258-.124c.126-.057.258-.111.393-.16.088-.033.178-.063.269-.091.139-.044.277-.081.418-.114a5.485,5.485,0,0,1,.575-.1,5.964,5.964,0,0,1,1.188-.03l.146.013c.1.01.2.023.3.037s.192.032.288.052c.14.028.281.063.419.1l.121.036c.109.034.2.064.287.1.135.049.268.1.4.162.083.037.168.078.253.121s.167.089.248.134.163.1.241.147.156.1.233.158c.1.068.191.141.284.216.07.056.138.114.2.173.087.077.174.158.257.242a5.785,5.785,0,0,1,1.707,4.12,5.818,5.818,0,0,1-1.707,4.12l-.2.191c-.087.079-.174.153-.262.224l-.173.135a5.882,5.882,0,0,1-.832.519c-.083.043-.168.083-.255.123-.128.058-.26.111-.394.161-.09.033-.181.063-.272.092l-.136.04c-.141.04-.281.075-.424.1-.093.019-.188.035-.284.05s-.2.028-.3.038l-.145.013c-.148.011-.3.017-.448.017m0-10.654a4.828,4.828,0,0,0-.616.039c-.161.021-.32.049-.475.085-.117.026-.232.058-.346.093-.073.023-.148.049-.223.076-.11.04-.219.084-.325.133-.074.033-.144.067-.213.1l-.207.112c-.063.037-.13.077-.2.119s-.131.086-.193.131c-.1.067-.187.138-.277.212l-.09.075a4.873,4.873,0,0,0-.482.482l-.1.113c-.065.08-.124.157-.181.236s-.117.168-.172.254l-.076.124c-.052.09-.1.184-.151.28l-.065.135c-.064.137-.12.277-.171.42l-.038.113a4.849,4.849,0,0,0-.058,2.8c.023.083.048.164.075.244a4.677,4.677,0,0,0,.223.545c.067.141.142.277.222.41s.168.261.26.385L8.1,23.3c.071.09.146.179.224.265s.157.167.241.247.173.159.262.232c.058.048.119.1.181.142a4.759,4.759,0,0,0,.692.431c.07.037.14.071.211.1.106.047.215.092.326.133.074.027.148.052.224.076.114.035.229.066.346.093a4.651,4.651,0,0,0,.474.085,4.94,4.94,0,0,0,.988.025l.118-.011c.086-.008.165-.019.244-.031s.161-.027.24-.042c.118-.025.234-.054.348-.086l.112-.033c.078-.024.152-.049.226-.076.11-.04.219-.085.326-.133.07-.032.14-.066.209-.1a4.77,4.77,0,0,0,.692-.431l.144-.112c.073-.059.145-.12.215-.184l.167-.159a4.826,4.826,0,0,0,0-6.826c-.069-.069-.141-.136-.214-.2-.055-.049-.112-.1-.169-.143-.077-.062-.155-.122-.236-.179-.064-.046-.127-.089-.192-.13s-.134-.084-.2-.123-.135-.075-.206-.111-.136-.068-.207-.1c-.11-.05-.219-.094-.329-.135-.074-.026-.149-.052-.225-.076l-.109-.032c-.118-.034-.234-.062-.351-.085-.08-.017-.158-.031-.237-.043s-.163-.023-.244-.031l-.121-.011c-.123-.009-.247-.014-.372-.014" transform="translate(194.5 315.857)" fill="#f85446"/>
    </g>
  </g>
</svg>
