<svg xmlns="http://www.w3.org/2000/svg" width="64" height="109" viewBox="0 0 64 109">
  <g id="CarpetCleaning" transform="translate(-173 -440)">
    <text id="Carpet_Cleaning" data-name="Carpet Cleaning" transform="translate(173 512)" fill="#f85446" font-size="12" font-family="SFProText-Bold, SF Pro Text" font-weight="700"><tspan x="11.413" y="11">Carpet </tspan><tspan x="5.519" y="27">Cleaning</tspan></text>
    <g id="Group_4413" data-name="Group 4413" transform="translate(168.453 180.858)">
      <path id="Path_1127" data-name="Path 1127" d="M50.049,457.194h8.982a.842.842,0,1,0,0-1.684H50.049a.842.842,0,1,0,0,1.684Z" transform="translate(-29.757 -155.203)" fill="#f85446"/>
      <path id="Path_1128" data-name="Path 1128" d="M50.049,441.054h8.982a.842.842,0,0,0,0-1.684H50.049a.842.842,0,0,0,0,1.684Z" transform="translate(-29.757 -142.446)" fill="#f85446"/>
      <path id="Path_1129" data-name="Path 1129" d="M50.049,424.914h8.982a.842.842,0,0,0,0-1.684H50.049a.842.842,0,0,0,0,1.684Z" transform="translate(-29.757 -129.69)" fill="#f85446"/>
      <path id="Path_1130" data-name="Path 1130" d="M29.591,275.745a.83.83,0,0,0-.123-.048q-.529-.2-1.08-.365v-3.053a.844.844,0,0,0-.842-.846h-.281v-9.754a2.526,2.526,0,1,0-5.053,0v9.754h-.28a.844.844,0,0,0-.842.846v3.053q-.55.159-1.08.365a.83.83,0,0,0-.123.048,13.271,13.271,0,0,0-8.341,12.322v20.974a3.088,3.088,0,1,0,6.175,0V303.4a3.1,3.1,0,0,0-3.087-3.1,3.058,3.058,0,0,0-1.4.34V288.066a11.575,11.575,0,0,1,6.175-10.24v2.346a3.1,3.1,0,0,0,3.087,3.1h4.491a3.1,3.1,0,0,0,3.088-3.1v-2.346a11.576,11.576,0,0,1,6.175,10.24v12.575a3.058,3.058,0,0,0-1.4-.34,3.1,3.1,0,0,0-3.087,3.1v3.665H20.248a.846.846,0,0,0,0,1.692H31.757v.282a3.088,3.088,0,1,0,6.175,0V288.066A13.271,13.271,0,0,0,29.591,275.745ZM13.231,303.4a1.4,1.4,0,1,1,2.807,0v5.638a1.4,1.4,0,1,1-2.807,0ZM23.9,261.679a.842.842,0,1,1,1.684,0v9.754H23.9Zm-1.123,11.446H26.7v1.839a13.191,13.191,0,0,0-3.93,0Zm5.614,7.048a1.408,1.408,0,0,1-1.4,1.41H22.494a1.408,1.408,0,0,1-1.4-1.41V277.1a11.469,11.469,0,0,1,7.3,0Zm7.859,28.868a1.4,1.4,0,1,1-2.807,0V303.4a1.4,1.4,0,1,1,2.807,0Z" transform="translate(0 0)" fill="#f85446"/>
      <path id="Path_1131" data-name="Path 1131" d="M141.939,307.067h-3.386a4.225,4.225,0,0,0-3.845-3.373V275.662a.845.845,0,0,0-.561-.8V269.4a10.217,10.217,0,1,0-20.434,0v5.707a.842.842,0,1,0,1.684,0V269.4a8.533,8.533,0,1,1,17.066,0v5.413h-1.684V269.4a6.849,6.849,0,1,0-13.7,0V278.3a.842.842,0,1,0,1.684,0V269.4a5.165,5.165,0,1,1,10.329,0v5.462a.845.845,0,0,0-.561.8v28.033a4.224,4.224,0,0,0-3.845,3.373H121.3a.844.844,0,0,0-.842.846V311.3a.844.844,0,0,0,.842.846h20.636a.844.844,0,0,0,.842-.846v-3.383A.844.844,0,0,0,141.939,307.067Zm-11.722-30.56h2.807v27.177h-2.807Zm-1.4,28.868h5.614a2.531,2.531,0,0,1,2.381,1.691H126.433A2.531,2.531,0,0,1,128.814,305.376ZM141.1,310.45H122.145v-1.691H141.1Z" transform="translate(-80.625 0)" fill="#f85446"/>
    </g>
  </g>
</svg>
