<svg id="All" xmlns="http://www.w3.org/2000/svg" viewBox="0 0 24 24"><path fill="#7C59B6" d="M20.97467,11.47467H12.5V2c-.16675-.0083-.33124-.02533-.5-.02533s-.33325.017-.5.02533a9.99719,9.99719,0,0,0-9.47467,9.47467c-.0083.16675-.02533.33124-.02533.5s.017.33325.02533.5a9.94516,9.94516,0,0,0,2.57031,6.19721q.33609.37123.70716.70709A9.94517,9.94517,0,0,0,11.5,21.94934c.16675.0083.33124.02533.5.02533s.33325-.017.5-.02533a9.99718,9.99718,0,0,0,9.47467-9.47467c.0083-.16675.02533-.33124.02533-.5s-.017-.33325-.02533-.5ZM12.5,20.94934c-.1665.00922-.33124.02533-.5.02533s-.3335-.01611-.5-.02533a8.95031,8.95031,0,0,1-5.49072-2.27685,9.07032,9.07032,0,0,1-.70709-.7071,8.95026,8.95026,0,0,1-2.27686-5.49072c-.00922-.1665-.02533-.33124-.02533-.5s.01611-.3335.02533-.5A8.997,8.997,0,0,1,11.5,3v9.47467h9.47467A8.997,8.997,0,0,1,12.5,20.94934ZM20.4043,4.27747q-.33609-.37125-.7071-.70716A10.09693,10.09693,0,0,0,13.5,1v9.47467h9.47467A9.94517,9.94517,0,0,0,20.4043,4.27747ZM14.5,2.11829a8.95311,8.95311,0,0,1,4.49066,2.15857L14.5,8.76752Zm.70709,7.35638L19.69781,4.984a8.95331,8.95331,0,0,1,2.15857,4.49072Z"/></svg>