<svg id="All" xmlns="http://www.w3.org/2000/svg" viewBox="0 0 24 24"><path fill="#7C59B6" d="M15.5,15A1.5,1.5,0,1,0,17,16.5,1.50164,1.50164,0,0,0,15.5,15Zm0,2a.5.5,0,1,1,.5-.5A.50065.50065,0,0,1,15.5,17Zm1-14A1.5,1.5,0,1,0,18,4.5,1.50164,1.50164,0,0,0,16.5,3Zm0,2a.5.5,0,1,1,.5-.5A.50065.50065,0,0,1,16.5,5Zm4,0A1.5,1.5,0,1,0,22,6.5,1.50164,1.50164,0,0,0,20.5,5Zm0,2a.5.5,0,1,1,.5-.5A.50065.50065,0,0,1,20.5,7ZM15,11.5A1.5,1.5,0,1,0,13.5,13,1.50164,1.50164,0,0,0,15,11.5Zm-1.5.5a.5.5,0,1,1,.5-.5A.50065.50065,0,0,1,13.5,12ZM10,6.5A1.5,1.5,0,1,0,8.5,8,1.50164,1.50164,0,0,0,10,6.5Zm-2,0a.5.5,0,1,1,.5.5A.50065.50065,0,0,1,8,6.5ZM9.5,15A1.5,1.5,0,1,0,11,16.5,1.50164,1.50164,0,0,0,9.5,15Zm0,2a.5.5,0,1,1,.5-.5A.50065.50065,0,0,1,9.5,17Zm-4,1A1.5,1.5,0,1,0,7,19.5,1.50164,1.50164,0,0,0,5.5,18Zm0,2a.5.5,0,1,1,.5-.5A.50065.50065,0,0,1,5.5,20ZM5,11.5A1.5,1.5,0,1,0,3.5,13,1.50164,1.50164,0,0,0,5,11.5ZM3.5,12a.5.5,0,1,1,.5-.5A.50065.50065,0,0,1,3.5,12Z"/></svg>