<?xml version="1.0" encoding="UTF-8"?><svg id="Layer_2" xmlns="http://www.w3.org/2000/svg" viewBox="0 0 16.1 14.87"><defs><style>.cls-1{fill:#fff;}</style></defs><g id="First_Look"><path class="cls-1" d="M15.91,7.2c-.15-.1-.35-.1-.5,.01,0,0-.5,.37-1.19,.49,.03-.04,.06-.08,.09-.12,.09-.12,.1-.28,.05-.41-.06-.14-.18-.24-.33-.27-.01,0-1.38-.25-2.74-.78-2.1-.83-2.54-1.67-2.54-2.24,0-2.14-1.74-3.87-3.87-3.87-.99,0-1.93,.37-2.65,1.05-.67,.63-1.1,1.47-1.2,2.38l-.88,.88c-.1,.11-.15,.26-.12,.4,.03,.15,.14,.27,.28,.31l.98,.33c.13,.32,.31,.62,.52,.89,.05,.06,.05,.15,.05,.18-.03,1.81,.66,3.56,1.88,4.8,.38,.38,.81,.72,1.27,.99l-.61,.41-1.05-.59c-.21-.12-.48-.04-.59,.17-.06,.1-.07,.22-.04,.33,.03,.11,.1,.21,.21,.26l1.93,1.08c.2,.11,.48,.03,.59-.17,.06-.1,.07-.22,.04-.33s-.1-.2-.21-.26l-.03-.02,.66-.45c.77,.3,1.61,.47,2.5,.49l.12,.85h-.97c-.24,0-.43,.2-.43,.44s.19,.44,.43,.44h1.96c.24,0,.44-.2,.44-.44s-.19-.44-.44-.44h-.11l-.12-.87c1.5-.12,2.96-.67,4.12-1.53,1.34-1,2.29-2.39,2.68-3.93,.04-.18-.03-.37-.18-.47Zm-5.05,2.36c-.6,.29-1.22,.43-1.82,.43-.03,0-.07,0-.1,0,.72-.12,1.43-.39,2.07-.78,.2-.13,.27-.39,.14-.6-.12-.2-.39-.26-.6-.14-1.11,.69-2.52,.92-3.5,.57-.51-.18-.88-.51-1.08-.95-.03-.08-.05-.15-.07-.22-.19-.72,.07-1.41,.71-1.94,.19-.15,.21-.42,.06-.61s-.42-.21-.61-.06c-.91,.74-1.27,1.77-1,2.83,.34,1.33,1.61,2.42,3.16,2.7,.99,.18,2.03,.03,3.02-.44,.8-.38,1.56-.97,2.26-1.74,.47,.04,.95-.02,1.42-.18-.43,.96-1.13,1.82-2.02,2.48-1.21,.89-2.73,1.39-4.28,1.39-1.71,0-3.18-.58-4.25-1.66-1.06-1.08-1.66-2.6-1.64-4.17,0-.28-.08-.53-.23-.73-.12-.16-.23-.33-.31-.5,.18-.4,.31-1.19-.29-1.77,.1-.67,.42-1.3,.92-1.77,.56-.52,1.29-.81,2.05-.81,1.66,0,3,1.35,3,3,0,.7,.35,1.34,1.04,1.91,.51,.42,1.2,.8,2.06,1.14,.83,.33,1.66,.55,2.23,.68-.72,.89-1.5,1.55-2.33,1.95ZM1.45,4.5l-.22-.07,.17-.17c.03,.07,.05,.15,.05,.25Z"/></g></svg>