<svg xmlns="http://www.w3.org/2000/svg" width="82" height="108.966" viewBox="0 0 82 108.966">
  <g id="Cleaning" transform="translate(-30 -440)">
    <text id="Cleaning-2" data-name="Cleaning" transform="translate(30 510.966)" fill="#0e88f2" font-size="12" font-family="SFProText-Bold, SF Pro Text" font-weight="700"><tspan x="14.519" y="11">Cleaning</tspan></text>
    <g id="Group_915" data-name="Group 915" transform="translate(36 432)">
      <path id="Path_1111" data-name="Path 1111" d="M8.871,23.679h6.968a.87.87,0,0,0,.871-.871V20.195H31.518a.871.871,0,0,1,.871.871v5.226a.87.87,0,0,0,.871.871h6.968a.87.87,0,0,0,.871-.871V21.066a9.593,9.593,0,0,0-9.581-9.581H16.71V8.871A.87.87,0,0,0,15.839,8H8.871A.87.87,0,0,0,8,8.871V22.808A.87.87,0,0,0,8.871,23.679Zm25.26,1.742V23.679h5.226v1.742Zm5.226-4.355v.871H34.131v-.871a2.616,2.616,0,0,0-2.613-2.613H20.195V13.226H31.518A7.848,7.848,0,0,1,39.358,21.066ZM18.453,13.226v5.226H16.71V13.226ZM9.742,9.742h5.226V21.937H9.742Z" fill="#0e88f2"/>
      <path id="Path_1112" data-name="Path 1112" d="M44.584,318.808h-10.6a2.9,2.9,0,0,0-.727-2.974L23.424,306a.867.867,0,0,0-.616-.255h-6.1v-.871a.87.87,0,0,0-.871-.871H8.871a.87.87,0,0,0-.871.871v13.937a.87.87,0,0,0,.871.871h6.968a.87.87,0,0,0,.871-.871v-.871h.56l9.342,7.643a.869.869,0,0,0,.551.2H44.584a3.484,3.484,0,1,0,0-6.968Zm-29.615-.871H9.742V305.742h5.226Zm29.615,6.1H27.474l-9.342-7.643a.869.869,0,0,0-.55-.2H16.71v-8.71h5.737l9.581,9.581a1.232,1.232,0,0,1,0,1.742l-.51.51a1.264,1.264,0,0,1-1.742,0l-4.61-4.61-1.232,1.232,4.61,4.61a2.974,2.974,0,0,0,4.205,0H44.584a1.742,1.742,0,0,1,0,3.484Z" transform="translate(0 -264.573)" fill="#0e88f2"/>
      <path id="Path_1113" data-name="Path 1113" d="M232,200h1.742v16.55H232Z" transform="translate(-199.985 -171.542)" fill="#0e88f2"/>
      <path id="Path_1114" data-name="Path 1114" d="M264,216h1.742v20.034H264Z" transform="translate(-228.554 -185.887)" fill="#0e88f2"/>
      <path id="Path_1115" data-name="Path 1115" d="M296,200h1.742v16.55H296Z" transform="translate(-257.123 -171.542)" fill="#0e88f2"/>
      <path id="Path_1116" data-name="Path 1116" d="M411.484,240a3.484,3.484,0,1,0,3.484,3.484A3.488,3.488,0,0,0,411.484,240Zm0,5.226a1.742,1.742,0,1,1,1.742-1.742A1.744,1.744,0,0,1,411.484,245.226Z" transform="translate(-357.249 -207.17)" fill="#0e88f2"/>
      <path id="Path_1117" data-name="Path 1117" d="M348.355,128.71A4.355,4.355,0,1,0,344,124.355,4.36,4.36,0,0,0,348.355,128.71Zm0-6.968a2.613,2.613,0,1,1-2.613,2.613A2.616,2.616,0,0,1,348.355,121.742Z" transform="translate(-300.064 -100.021)" fill="#0e88f2"/>
      <path id="Path_1118" data-name="Path 1118" d="M428.355,8a4.355,4.355,0,1,0,4.355,4.355A4.36,4.36,0,0,0,428.355,8Zm0,6.968a2.613,2.613,0,1,1,2.613-2.613A2.616,2.616,0,0,1,428.355,14.968Z" transform="translate(-371.507)" fill="#0e88f2"/>
      <path id="Path_1119" data-name="Path 1119" d="M337.581,314.613a5.128,5.128,0,0,0-1.192.141,4.346,4.346,0,0,0-8.39,1.6h1.742a2.6,2.6,0,0,1,5.186-.358.869.869,0,0,0,.442.644.879.879,0,0,0,.78.03,3.449,3.449,0,0,1,1.431-.316,3.481,3.481,0,0,1,2.483,5.923.87.87,0,0,0,0,1.219,3.481,3.481,0,0,1-2.483,5.923v1.742a5.223,5.223,0,0,0,4.242-8.275,5.223,5.223,0,0,0-4.242-8.275Z" transform="translate(-285.96 -271.702)" fill="#0e88f2"/>
      <path id="Path_1120" data-name="Path 1120" d="M360.733,370.71l1.746-5.228,1.652.552-1.746,5.228Z" transform="translate(-314.936 -319.206)" fill="#0e88f2"/>
      <path id="Path_1121" data-name="Path 1121" d="M376,424h5.226v1.742H376Z" transform="translate(-328.59 -371.507)" fill="#0e88f2"/>
    </g>
  </g>
</svg>
