<?xml version="1.0" encoding="utf-8"?>
<!-- Generator: Adobe Illustrator 26.1.0, SVG Export Plug-In . SVG Version: 6.00 Build 0)  -->
<svg version="1.1" id="Layer_1" xmlns="http://www.w3.org/2000/svg" xmlns:xlink="http://www.w3.org/1999/xlink" x="0px" y="0px" viewBox="0 0 24 24" style="enable-background:new 0 0 24 24;" xml:space="preserve">
<defs><style>.st0{fill:#DFDFDF;}</style></defs>
<path id="Path_809" class="st0" d="M12,2C6.48,2,2,6.48,2,12s4.48,10,10,10l0,0c5.52,0,10-4.48,10-10S17.52,2,12,2z M12,3.63
	c4.62,0,8.37,3.75,8.37,8.37s-3.75,8.37-8.37,8.37S3.63,16.62,3.63,12c0,0,0,0,0,0C3.64,7.38,7.38,3.64,12,3.63z M11.54,13.02
	c-0.15-0.16-0.23-0.37-0.23-0.58V6.57c-0.01-0.21,0.06-0.41,0.19-0.56c0.14-0.16,0.33-0.26,0.54-0.27c0.21-0.01,0.42,0.05,0.58,0.19
	c0.16,0.14,0.26,0.33,0.27,0.54c0,0.04,0,0.08,0,0.12l0,5.51l3.9,4.16c0.3,0.33,0.31,0.84,0,1.17c-0.15,0.16-0.35,0.25-0.57,0.25h0
	c-0.22,0-0.42-0.09-0.57-0.25L11.54,13.02z"/>
</svg>
