<svg id="All" xmlns="http://www.w3.org/2000/svg" viewBox="0 0 24 24"><path fill="#7C59B6" d="M21.67267,12a9.4747,9.4747,0,0,0-.24091-2.09656l1.91358-1.55182L20.91858,4.14838,18.60913,5.033a9.49172,9.49172,0,0,0-3.62384-2.1076L14.59943.5H9.74591L9.36005,2.92542A9.49164,9.49164,0,0,0,5.73621,5.033L3.42676,4.14838,1,8.35162,2.91357,9.90338a9.24418,9.24418,0,0,0,0,4.19324L1,15.64838l2.42676,4.20324,2.30939-.8847a9.49278,9.49278,0,0,0,3.6239,2.10766L9.74591,23.5h4.85352l.38586-2.42542a9.49278,9.49278,0,0,0,3.6239-2.10766l2.30939.8847,2.42676-4.20324-1.91358-1.55182A9.4747,9.4747,0,0,0,21.67267,12Zm.37988,3.88751-1.57324,2.72492L19.367,18.18634l-.99523-.38129-.00544-.00207-.00085-.00031-.0108.01142a8.89617,8.89617,0,0,1-.68946.65551c-.047.03974-.09448.079-.1416.1186.01148-.008.02344-.01508.0343-.024l.0055.00214a8.49314,8.49314,0,0,1-2.36176,1.36218l-.10284.03753c-.21912.08094-.44666.1427-.67353.20582-.038.01013-.0755.0238-.11358.03369-.01831.00482-.03608.01129-.0539.01745l-.03082.00946-.02.00421c-.01453.00354-.02869.00934-.04321.01282l-.06226.01489-.001.00672L13.932,21.33l-.1861,1.17H10.59943l-.1861-1.17-.16846-1.0589-.001-.00672-.0622-.01489c-.01453-.00348-.02869-.00928-.04321-.01282l-.0202-.00427-.03-.00915c-.01807-.00617-.036-.01282-.05445-.01764-.0379-.00983-.07525-.02344-.11316-.03357-.22717-.06317-.455-.12506-.67443-.20612L9.144,19.92871a8.49329,8.49329,0,0,1-2.36212-1.36236l.00556-.00214c.01074.00879.02258.01581.03393.02374-.047-.03955-.09436-.07867-.14123-.11835a8.87043,8.87043,0,0,1-.68848-.65454l-.01178-.01245L5.979,17.803l-.00543.00207-.99524.38129-1.1123.42609L2.29279,15.88751l.92376-.74908.82465-.66864.00458-.00373.00525-.00427-.01819-.06134c-.00428-.01434-.00635-.02954-.0105-.04394l-.00794-.02423c-.00756-.02668-.01007-.05457-.01739-.08136-.03571-.12934-.06274-.262-.09412-.393-.02887-.13476-.0675-.26568-.09094-.4024l-.02026-.11536c.00116.01379.00134.02759.0036.04138l-.00006.00006a7.84913,7.84913,0,0,1,0-2.7633l.00006.00006c-.00226.01373-.00244.02746-.0036.0412l.0202-.11487c.02344-.137.06219-.26825.09113-.40326.03131-.13074.05828-.26318.09393-.39221.00738-.02686.00982-.05481.01745-.08155l.00794-.02423c.00415-.0144.00622-.0296.0105-.04394L4.051,9.53821l-.00525-.00427L4.0412,9.53021l-.82465-.66864-.92376-.74908L3.866,5.38751l1.1123.42615.99524.38129L5.979,6.197l.00092.00037L5.99164,6.185A8.882,8.882,0,0,1,6.681,5.52972c.04669-.03949.09381-.07849.14056-.11779-.01135.00793-.02325.01495-.034.0238L6.782,5.43365A8.49459,8.49459,0,0,1,9.14429,4.07123l.10125-.037c.22352-.08252.45545-.14587.687-.2099.034-.009.06744-.0213.1015-.03015.0169-.0044.03338-.01038.05-.01617.01184-.00306.02294-.00763.03479-.01062l.01934-.00409c.01429-.00354.02832-.00922.04261-.01264l.06305-.01507.001-.00672L10.41333,2.67l.1861-1.17h3.14648l.1861,1.17.16845,1.0589.001.00665.06311.01514c.01435.00342.02832.0091.0426.01264l.01911.004c.01227.00306.02386.00788.03613.01105.01624.00568.03235.01148.04889.01581.03333.00867.0661.02063.09937.02948.23236.06421.465.12781.68927.21063l.10107.03693a8.49368,8.49368,0,0,1,2.3623,1.36242l-.00543.00208c-.01086-.00885-.02276-.016-.03418-.02393.04663.03919.09363.07807.1402.11744a8.91019,8.91019,0,0,1,.6908.65673l.01074.01136.00085-.00031.00544-.00207.99523-.38129,1.11231-.42615,1.57324,2.725-.92377.74908-.82464.66864-.00458.00373-.00525.00427.01843.06219c.00415.014.00617.02887.01026.04291l.008.02441c.00769.027.01014.05524.01758.08234.03528.12756.06183.25842.09284.38757.02942.13685.0686.26984.09234.4087l.02.11383c-.00116-.01386-.0014-.02771-.00366-.04157a7.84642,7.84642,0,0,1,0,2.76282c.00226-.01386.0025-.02777.00366-.04163l-.02.114c-.0238.13928-.06311.27282-.09265.41009-.03094.12872-.05743.25916-.09253.38629-.00738.027-.00995.05518-.01758.08216l-.008.02441c-.00409.014-.00611.02887-.01026.04291l-.01843.06219.00525.00427.00458.00373.82464.66864ZM12.17267,7a5,5,0,1,0,5,5A5.00588,5.00588,0,0,0,12.17267,7Zm0,9a4,4,0,1,1,4-4A4.00458,4.00458,0,0,1,12.17267,16Z"/></svg>