<svg id="Gender" xmlns="http://www.w3.org/2000/svg" xmlns:xlink="http://www.w3.org/1999/xlink" width="20" height="15.535" viewBox="0 0 20 15.535">
  <defs>
    <clipPath id="clip-path">
      <rect id="Rectangle_21354" data-name="Rectangle 21354" width="20" height="15.535"/>
    </clipPath>
  </defs>
  <g id="Group_21012" data-name="Group 21012" clip-path="url(#clip-path)">
    <path id="Path_17854" data-name="Path 17854" fill="#7C59B6" d="M126.271,17.059V15.718h.808v-1.7h-.808V12.81h-2.02v1.212h-.889v1.7h.889v1.327a5.159,5.159,0,1,0,2.02.014m-1.021,8.176a3.132,3.132,0,1,1,3.132-3.132,3.135,3.135,0,0,1-3.132,3.132" transform="translate(-110.384 -11.775)"/>
    <path id="Path_17855" data-name="Path 17855" fill="#7C59B6" d="M10.306,5.151A5.153,5.153,0,1,0,4.174,10.21v2.261l-.661-.57L2.424,13.2l2.77,2.338,2.854-2.329L6.964,11.892l-.77.619V10.194a5.167,5.167,0,0,0,4.113-5.043m-8.27,0A3.132,3.132,0,1,1,5.168,8.283,3.135,3.135,0,0,1,2.036,5.151"/>
  </g>
</svg>
