<svg xmlns="http://www.w3.org/2000/svg" xmlns:xlink="http://www.w3.org/1999/xlink" width="18" height="15.238" viewBox="0 0 18 15.238">
  <defs>
    <clipPath id="clip-path">
      <rect id="Rectangle_21350" data-name="Rectangle 21350" width="18" height="15.238"/>
    </clipPath>
  </defs>
  <g id="Date" transform="translate(-7505 -2420)">
    <g id="Group_21009" data-name="Group 21009" transform="translate(7505 2420)">
      <g id="Group_21008" data-name="Group 21008" clip-path="url(#clip-path)">
        <path id="Path_17850" data-name="Path 17850" fill="#7C59B6" d="M17.978.692a.688.688,0,0,0-.2-.489.7.7,0,0,0-.49-.2L.691.026A.692.692,0,0,0,0,.719L.02,13.843H.01v.692h.01v.014a.693.693,0,0,0,.693.69l16.595-.026A.693.693,0,0,0,18,14.521ZM.711,13.843.692.718l16.6-.025.02,13.151Z" transform="translate(0 -0.001)"/>
        <path id="Path_17851" data-name="Path 17851" fill="#7C59B6" d="M42.79,39.516H30.344a.692.692,0,0,0-.692.691v7.606a.692.692,0,0,0,.692.692H42.79a.692.692,0,0,0,.692-.692V40.207a.692.692,0,0,0-.692-.691m-8.989,8.3H30.343V45.739H33.8Zm0-2.766H30.343V42.973H33.8Zm4.84,2.766H34.492V45.739h4.149Zm0-2.766H34.492V42.973h4.149Zm4.149,2.766H39.333V45.739H42.79Zm0-2.766H39.333V42.973H42.79Zm0-2.766H30.344V40.207H42.79Z" transform="translate(-27.567 -36.738)"/>
      </g>
    </g>
  </g>
</svg>
