<svg id="Username" xmlns="http://www.w3.org/2000/svg" xmlns:xlink="http://www.w3.org/1999/xlink" width="20" height="20" viewBox="0 0 20 20">
  <defs>
    <clipPath id="clip-path">
      <rect id="Rectangle_21363" data-name="Rectangle 21363" width="20" height="20"/>
    </clipPath>
  </defs>
  <g id="Group_21022" data-name="Group 21022" clip-path="url(#clip-path)">
    <path id="Path_17868" data-name="Path 17868" fill="#7C59B6" d="M10,4.5a5.743,5.743,0,1,0,5.8,5.758v-.015A5.771,5.771,0,0,0,10,4.5"/>
    <path id="Path_17869" data-name="Path 17869" fill="#7C59B6" d="M16,0H4A4,4,0,0,0,0,4V16a3.972,3.972,0,0,0,1.44,3.049A3.961,3.961,0,0,0,4,20H16a4.047,4.047,0,0,0,4-4V4a4,4,0,0,0-4-4M14.948,15.264l-.182-.1-.152.165c-.07.073-.142.144-.215.214a6.419,6.419,0,0,1-9.013-.214l-.151-.165-.183.1a9.461,9.461,0,0,0-2.5,2.112A1.99,1.99,0,0,1,2,16V4A2,2,0,0,1,4,2H16a2,2,0,0,1,2,2V16a1.989,1.989,0,0,1-.555,1.376,9.481,9.481,0,0,0-2.5-2.112"/>
  </g>
</svg>
