<svg xmlns="http://www.w3.org/2000/svg" xmlns:xlink="http://www.w3.org/1999/xlink" width="18" height="17.99" viewBox="0 0 18 17.99">
  <defs>
    <clipPath id="clip-path">
      <rect id="Rectangle_21360" data-name="Rectangle 21360" width="18" height="17.99"/>
    </clipPath>
  </defs>
  <g id="Phone" transform="translate(0 0)">
    <g id="Group_21018" data-name="Group 21018" transform="translate(0 0)" clip-path="url(#clip-path)">
      <path id="Path_17865" data-name="Path 17865" fill="#7C59B6" d="M17.375,12.915,15.153,10.7a1.859,1.859,0,0,0-.133-.133,1.88,1.88,0,0,0-2.655.133l-1.25,1.25-.207-.1a5.25,5.25,0,0,1-.486-.261A13.49,13.49,0,0,1,7.111,8.58,7.326,7.326,0,0,1,6.023,6.888L7.075,5.845l.189-.2a1.836,1.836,0,0,0,.167-.167,1.889,1.889,0,0,0-.167-2.666L5.816,1.356,5.061.61C5.026.571,4.989.535,4.95.5A1.889,1.889,0,0,0,2.281.61l-.567.567c-.261.27-.531.54-.81.8a2.817,2.817,0,0,0-.9,1.9,6.966,6.966,0,0,0,.549,3A17.2,17.2,0,0,0,3.6,12.025a19.084,19.084,0,0,0,6.3,4.92,9.261,9.261,0,0,0,3.6,1.043h.288a2.969,2.969,0,0,0,2.348-1.007c.252-.279.639-.666.792-.81s.306-.288.45-.441q.07-.063.135-.135a1.9,1.9,0,0,0-.135-2.681" transform="translate(0 0)"/>
    </g>
  </g>
</svg>
