<svg xmlns="http://www.w3.org/2000/svg" xmlns:xlink="http://www.w3.org/1999/xlink" width="12.545" height="18" viewBox="0 0 12.545 18">
  <defs>
    <clipPath id="clip-path">
      <rect id="Rectangle_21357" data-name="Rectangle 21357" width="12.545" height="18"/>
    </clipPath>
  </defs>
  <g id="Password_" data-name="Password\" clip-path="url(#clip-path)">
    <path id="Path_17864" data-name="Path 17864" fill="#7C59B6" d="M6.273,18A6.269,6.269,0,0,0,10.909,7.506V4.636a4.636,4.636,0,0,0-9.272,0v2.87A6.269,6.269,0,0,0,6.273,18m.818-6v1.092a.818.818,0,1,1-1.636,0V12a1.364,1.364,0,1,1,1.636,0M3.273,4.636a3,3,0,1,1,6,0V6.219a6.265,6.265,0,0,0-6,0Z"/>
  </g>
</svg>
