<svg id="All" xmlns="http://www.w3.org/2000/svg" viewBox="0 0 24 24"><path fill="#7C59B6" d="M2,2v8H14V21H2v1H21V2ZM8,9H3V4H8Zm6,0H9V4h5Zm6,12H15V16h5Zm0-6H15V10h5Zm0-6H15V4h5ZM9.48944,15.70959a.75738.75738,0,0,1,.00293.94025.55436.55436,0,0,1-.42566.17426.56355.56355,0,0,1-.43146-.17224.66247.66247,0,0,1-.16211-.47266.67.67,0,0,1,.16022-.46961.54959.54959,0,0,1,.42755-.17724A.55866.55866,0,0,1,9.48944,15.70959ZM8.7,14.69525a.66085.66085,0,0,1-.13129-.43359.64856.64856,0,0,1,.13031-.42755.44118.44118,0,0,1,.36194-.15821.45112.45112,0,0,1,.36292.16022.64332.64332,0,0,1,.13513.42554.66079.66079,0,0,1-.13226.43359.43753.43753,0,0,1-.36.1612A.44585.44585,0,0,1,8.7,14.69525ZM13,10.98438H2v9H13ZM6.94525,17.43689H4.06714v-.57373l1.36377-1.517a3.4202,3.4202,0,0,0,.41986-.59283.99125.99125,0,0,0,.12451-.44959.68868.68868,0,0,0-.14288-.4516.49345.49345,0,0,0-.40729-.17621.51759.51759,0,0,0-.444.20624.90015.90015,0,0,0-.15253.54773H4.00629l-.0058-.018A1.35237,1.35237,0,0,1,4.376,13.40955,1.38114,1.38114,0,0,1,5.42511,13a1.43185,1.43185,0,0,1,1.024.35144,1.22825,1.22825,0,0,1,.37158.93726,1.34628,1.34628,0,0,1-.20941.731,7.113,7.113,0,0,1-.694.87921l-.74994.84711.0058.015h1.772Zm3.15808-.26233A1.5802,1.5802,0,0,1,9.06671,17.5a1.59675,1.59675,0,0,1-1.04431-.32544,1.1371,1.1371,0,0,1-.39764-.93323,1.05988,1.05988,0,0,1,.19207-.62689,1.26648,1.26648,0,0,1,.5318-.42151,1.10828,1.10828,0,0,1-.46039-.39154,1.02955,1.02955,0,0,1-.165-.57879,1.13491,1.13491,0,0,1,.36773-.9032,1.42975,1.42975,0,0,1,.97-.3194,1.43687,1.43687,0,0,1,.97.3194,1.13067,1.13067,0,0,1,.37061.9032,1.02868,1.02868,0,0,1-.167.57977,1.11688,1.11688,0,0,1-.45844.39355,1.24608,1.24608,0,0,1,.52991.42054,1.05285,1.05285,0,0,1,.194.62487A1.1393,1.1393,0,0,1,10.10333,17.17456Z"/></svg>