<svg id="Group_21109" data-name="Group 21109" xmlns="http://www.w3.org/2000/svg" xmlns:xlink="http://www.w3.org/1999/xlink" width="14" height="6.786" viewBox="0 0 14 6.786">
  <defs>
    <clipPath id="clip-path">
      <rect id="Rectangle_21344" data-name="Rectangle 21344" width="14" height="6.786" transform="translate(0 0)"/>
    </clipPath>
  </defs>
  <g fill="#04A2AA" id="Group_20992" data-name="Group 20992" clip-path="url(#clip-path)">
    <path id="Path_17845" data-name="Path 17845" d="M1.6,3.393,3.862,1.132A.663.663,0,1,0,2.924.194L.195,2.924a.663.663,0,0,0,0,.938L2.924,6.591a.663.663,0,1,0,.938-.937Z" transform="translate(0 0)"/>
    <path id="Path_17846" data-name="Path 17846" d="M15.16,2.924,12.429.193a.663.663,0,0,0-.936.939l2.261,2.261-2.26,2.26a.663.663,0,1,0,.936.938l2.73-2.729a.663.663,0,0,0,0-.938" transform="translate(-1.354 0)"/>
    <path id="Path_17847" data-name="Path 17847" d="M9,.063a.664.664,0,0,0-.882.315L5.529,5.839a.663.663,0,0,0,.6.947.667.667,0,0,0,.6-.378L9.321.947A.664.664,0,0,0,9,.063" transform="translate(-0.655 0)"/>
  </g>
</svg>
