<svg id="_.NET_MAUI" data-name=".NET MAUI" xmlns="http://www.w3.org/2000/svg" xmlns:xlink="http://www.w3.org/1999/xlink" width="56" height="56.295" viewBox="0 0 56 56.295">
  <defs>
    <radialGradient id="radial-gradient" cx="0.892" cy="0.025" r="1.744" gradientTransform="matrix(0.475, -0.005, 0.002, 1, -2.372, -0.021)" gradientUnits="objectBoundingBox">
      <stop offset="0.034" stop-color="#522cd5"/>
      <stop offset="0.996" stop-color="#8a6fe8"/>
    </radialGradient>
    <radialGradient id="radial-gradient-2" cx="0.172" cy="-1.784" r="1.896" gradientTransform="matrix(-0.363, 0.005, -0.002, -1, -2.09, -37.108)" xlink:href="#radial-gradient"/>
    <radialGradient id="radial-gradient-3" cx="0.365" cy="0.061" r="0.498" gradientTransform="matrix(-1.009, 0.005, -0.005, -1, -0.327, -0.465)" gradientUnits="objectBoundingBox">
      <stop offset="0.474" stop-color="#a08be8"/>
      <stop offset="0.862" stop-color="#8065e0"/>
    </radialGradient>
    <radialGradient id="radial-gradient-4" cx="0.501" cy="-1.278" r="1.949" gradientTransform="matrix(-0.474, 0.005, -0.002, -1, -1.514, -4.833)" gradientUnits="objectBoundingBox">
      <stop offset="0.093" stop-color="#e1dfdd"/>
      <stop offset="0.657" stop-color="#fff"/>
    </radialGradient>
    <linearGradient id="linear-gradient" x1="0.5" x2="0.5" y2="1" gradientUnits="objectBoundingBox">
      <stop offset="0.334" stop-color="#9780e6"/>
      <stop offset="0.849" stop-color="#8a6fe8"/>
    </linearGradient>
  </defs>
  <circle id="Ellipse_119" data-name="Ellipse 119" cx="28" cy="28" r="28" transform="translate(0 0.295)" fill="#abc2ff"/>
  <g id="dotnet_bot" transform="translate(8.697 -3.458)">
    <path id="Path_2631" data-name="Path 2631" d="M284.049,117.894,284,115.221c3.367-.057,5.865-1.056,7.421-2.971,2.82-3.47,1.83-8.862,1.819-8.916l2.625-.5c.051.271,1.226,6.68-2.37,11.1C291.421,116.491,288.241,117.824,284.049,117.894Z" transform="translate(-254.448 -89.032)" fill="#8a6fe8"/>
    <path id="Path_2632" data-name="Path 2632" d="M327.912,89.487l3.109,2.59a1.306,1.306,0,0,0,1.672-2.006l-3.109-2.59a1.306,1.306,0,1,0-1.672,2.006Z" transform="translate(-293.366 -75.008)" fill="#8a6fe8"/>
    <path id="Path_2633" data-name="Path 2633" d="M386.26,80.828l1.118-2.481a1.313,1.313,0,1,0-2.4-1.063l-1.146,2.544Z" transform="translate(-343.886 -65.444)" fill="#8a6fe8"/>
    <path id="Path_2634" data-name="Path 2634" d="M378.645,61.65l-.013-3.753a1.313,1.313,0,0,0-2.625.019v2.79Z" transform="translate(-336.876 -47.607)" fill="#8a6fe8"/>
    <path id="Path_2635" data-name="Path 2635" d="M356.693,68.887l-.865-3.655a1.313,1.313,0,1,0-2.556.6l.881,3.721Z" transform="translate(-316.475 -54.439)" fill="#8a6fe8"/>
    <path id="Path_2636" data-name="Path 2636" d="M358.12,94.948a2.748,2.748,0,1,0-2.748-2.748A2.748,2.748,0,0,0,358.12,94.948Z" transform="translate(-318.388 -77.046)" fill="#fff"/>
    <path id="Path_2637" data-name="Path 2637" d="M204.953,312.689a21.588,21.588,0,0,0-2.694-10.953l-2.337,1.419a18.187,18.187,0,0,1,2.281,9.555A4.969,4.969,0,0,0,204.953,312.689Z" transform="translate(-179.116 -267.237)" fill="#fff"/>
    <path id="Path_2638" data-name="Path 2638" d="M215.645,406.85l2.164-.01,2.021,11.575-4.344.02a.55.55,0,0,1-.559-.6Z" transform="translate(-192.558 -361.402)" fill="#522cd5"/>
    <path id="Path_2639" data-name="Path 2639" d="M235.025,415.361a1.24,1.24,0,0,1,.34,1.177l-.09,1.387a.494.494,0,0,1-.481.453l-4.528.021a.468.468,0,0,1-.476-.507l.03-1.437c.035-.522-.141-.714-.546-1.206-.693-.841-2.741-5.425-2.546-8.411l2.229-.01C229.106,408.6,231.445,412.538,235.025,415.361Z" transform="translate(-203.121 -361.393)" fill="#fff"/>
    <path id="Path_2640" data-name="Path 2640" d="M260.378,492.59a1.744,1.744,0,0,0-.1-.875l-5.646.026a1.087,1.087,0,0,1,.2.765l-.03,1.437a.467.467,0,0,0,.476.507l4.527-.02a.494.494,0,0,0,.481-.453Z" transform="translate(-228.135 -437.444)" fill="url(#radial-gradient)"/>
    <path id="Path_2641" data-name="Path 2641" d="M133.514,312.97a21.587,21.587,0,0,1,2.6-10.977l2.35,1.4a18.183,18.183,0,0,0-2.194,9.575A4.947,4.947,0,0,1,133.514,312.97Z" transform="translate(-119.615 -267.467)" fill="#fff"/>
    <path id="Path_2642" data-name="Path 2642" d="M110.8,416.6a3.347,3.347,0,0,1,.173-1.033,33.523,33.523,0,0,0,2.192-8.312l2.756-.012a33.3,33.3,0,0,0,2.26,8.24,3.151,3.151,0,0,1,.2,1.083l.012,1.768a.486.486,0,0,1-.482.487h-.134l-6.358.029h-.134a.485.485,0,0,1-.487-.482Z" transform="translate(-99.266 -361.766)" fill="#fff"/>
    <path id="Path_2643" data-name="Path 2643" d="M110.8,492.789q0-.075,0-.147c.014-.154.085-.326.421-.329l6.8-.031a.364.364,0,0,1,.352.315c0,.052.008.106.011.157l.012,1.768a.481.481,0,0,1-.213.4.489.489,0,0,1-.27.085h-.134l-6.358.029h-.133a.485.485,0,0,1-.487-.482Z" transform="translate(-99.267 -437.952)" fill="url(#radial-gradient-2)"/>
    <path id="Path_2644" data-name="Path 2644" d="M74.06,85.144a16.126,16.126,0,0,0,.315-6.72l.879,0,.021-.017a14.728,14.728,0,1,0-.557,7.573C74.777,85.732,74.769,85.3,74.06,85.144Z" transform="translate(-41.28 -56.408)" fill="url(#radial-gradient-3)"/>
    <path id="Path_2645" data-name="Path 2645" d="M91.308,279.035l-25.431.116a14.806,14.806,0,0,0,2.028,2.666l21.4-.1A14.743,14.743,0,0,0,91.308,279.035Z" transform="translate(-59.021 -246.898)" fill="#d8cff7"/>
    <path id="Path_2646" data-name="Path 2646" d="M234.9,276.264l4.773-.022-.019-4.222-4.773.022Z" transform="translate(-210.433 -240.614)" fill="#512bd4"/>
    <path id="Path_2647" data-name="Path 2647" d="M242.014,295.746a.113.113,0,0,1-.081-.031.106.106,0,0,1,0-.155.109.109,0,0,1,.081-.032.113.113,0,0,1,.081.032.106.106,0,0,1,.035.078.1.1,0,0,1-.033.077A.122.122,0,0,1,242.014,295.746Z" transform="translate(-216.725 -261.675)" fill="#fff"/>
    <path id="Path_2648" data-name="Path 2648" d="M246.859,287.384h-.206l-.546-.857a.385.385,0,0,1-.034-.068h0a1.161,1.161,0,0,1,.007.16v.765h-.183l0-1.167h.219l.527.836c.022.035.037.059.043.071h0a1.042,1.042,0,0,1-.008-.157v-.752h.182Z" transform="translate(-220.301 -253.333)" fill="#fff"/>
    <path id="Path_2649" data-name="Path 2649" d="M258.21,287.362h-.639l0-1.167h.614v.165h-.424v.331h.391v.164h-.391v.345h.45Z" transform="translate(-230.763 -253.313)" fill="#fff"/>
    <path id="Path_2650" data-name="Path 2650" d="M265.186,286.339h-.328l0,1h-.189l0-1h-.326v-.165l.842,0Z" transform="translate(-236.833 -253.294)" fill="#fff"/>
    <path id="Path_2651" data-name="Path 2651" d="M178.192,188.515a16.114,16.114,0,0,0,.315-6.717l-15.28.069s-.964-.094-.959.786.051,3.364.063,6.112a.822.822,0,0,0,.831.833S177.811,189.126,178.192,188.515Z" transform="translate(-145.381 -159.781)" fill="url(#radial-gradient-4)"/>
    <path id="Path_2652" data-name="Path 2652" d="M227.685,225.407s2.341-1.87,2.8-2.217a.9.9,0,0,1,1.28-.006c.422.361,2.784,2.191,2.784,2.191Z" transform="translate(-203.99 -196.625)" fill="#a08be8"/>
    <path id="Path_2653" data-name="Path 2653" d="M179.279,243.177s.437-.8-.569-1.019c0,0-15.023.057-15.023.057-.35,0-.8-.2-.841-.544,0,.243,0,.489,0,.737a.817.817,0,0,0,.727.827c.035,0,.069.008.1.008l1.027,0Z" transform="translate(-145.899 -213.423)" fill="#512bd4"/>
    <path id="Path_2654" data-name="Path 2654" d="M196.157,199.869c.636-.012,1.135-.889,1.114-1.959s-.553-1.927-1.189-1.914-1.135.889-1.114,1.959S195.521,199.881,196.157,199.869Z" transform="translate(-174.677 -172.501)" fill="#512bd4"/>
    <path id="Path_2655" data-name="Path 2655" d="M286.42,197.49c.011-1.07-.5-1.942-1.131-1.949s-1.161.855-1.172,1.925.5,1.942,1.131,1.949S286.409,198.559,286.42,197.49Z" transform="translate(-254.548 -172.093)" fill="#512bd4"/>
    <path id="Path_2656" data-name="Path 2656" d="M203.219,202.545a1.078,1.078,0,0,1,.859-.315,2.8,2.8,0,0,1,.307,1.262,3.1,3.1,0,0,1-.1.845,1.078,1.078,0,0,1-1.067-1.792Z" transform="translate(-181.791 -178.082)" fill="#8065e0"/>
    <path id="Path_2657" data-name="Path 2657" d="M292.31,201.536a1.078,1.078,0,0,1,.86-.315,2.733,2.733,0,0,1,.312,1.351,3.114,3.114,0,0,1-.1.754,1.077,1.077,0,0,1-1.073-1.79Z" transform="translate(-261.61 -177.179)" fill="#8065e0"/>
    <path id="Path_2658" data-name="Path 2658" d="M6.51,231.706c-.075-.239-1.807-5.919,1.008-10.211,1.626-2.479,4.37-3.941,8.153-4.345l.29,2.719c-2.925.312-4.993,1.36-6.15,3.114-2.109,3.2-.706,7.861-.692,7.907Z" transform="translate(-5.299 -191.453)" fill="url(#linear-gradient)"/>
    <path id="Path_2659" data-name="Path 2659" d="M71.867,206.237a2.7,2.7,0,1,0-2.7-2.7A2.7,2.7,0,0,0,71.867,206.237Z" transform="translate(-61.965 -176.83)" fill="#fff"/>
    <path id="Path_2660" data-name="Path 2660" d="M24.752,329.742l-4.011-.534A1.306,1.306,0,0,0,20.4,331.8l4.011.534a1.306,1.306,0,0,0,.345-2.589Z" transform="translate(-17.258 -291.839)" fill="#8a6fe8"/>
    <path id="Path_2661" data-name="Path 2661" d="M3.735,363.311l.376,2.695a1.313,1.313,0,0,0,2.6-.381l-.387-2.763Z" transform="translate(-3.347 -322)" fill="#8a6fe8"/>
    <path id="Path_2662" data-name="Path 2662" d="M15.519,369.752l2.012,3.168a1.313,1.313,0,1,0,2.211-1.416l-1.488-2.36Z" transform="translate(-13.904 -327.629)" fill="#8a6fe8"/>
    <path id="Path_2663" data-name="Path 2663" d="M26.051,347.216l2.68,2.631a1.313,1.313,0,0,0,1.843-1.871L27.846,345.3Z" transform="translate(-23.34 -306.264)" fill="#8a6fe8"/>
    <path id="Path_2664" data-name="Path 2664" d="M2.748,334.6A2.748,2.748,0,1,0,0,331.852,2.748,2.748,0,0,0,2.748,334.6Z" transform="translate(0 -291.756)" fill="#fff"/>
    <path id="Path_2665" data-name="Path 2665" d="M160.62,39.25l-2.8.308.077-2.919,2.011-.221Z" transform="translate(-141.395 -29.53)" fill="#8a6fe8"/>
    <path id="Path_2666" data-name="Path 2666" d="M149.286,7.432a2.007,2.007,0,1,0-2.367-1.566A2.007,2.007,0,0,0,149.286,7.432Z" transform="translate(-131.593 0)" fill="#d8cff7"/>
    <path id="Path_2667" data-name="Path 2667" d="M152.967,59.181a.215.215,0,0,0,.187-.259,2.677,2.677,0,0,0-5.289.583.215.215,0,0,0,.24.211Z" transform="translate(-132.477 -47.822)" fill="#fff"/>
  </g>
</svg>
