<?xml version="1.0" encoding="utf-8"?>
<!-- Generator: Adobe Illustrator 26.0.3, SVG Export Plug-In . SVG Version: 6.00 Build 0)  -->
<svg version="1.1" id="Layer_1" xmlns="http://www.w3.org/2000/svg" xmlns:xlink="http://www.w3.org/1999/xlink" x="0px" y="0px"
	 viewBox="0 0 24 24" style="enable-background:new 0 0 24 24;" xml:space="preserve">
<path d="M12,4.7c4,0,7.3,3.3,7.3,7.3S16,19.3,12,19.3S4.7,16,4.7,12S8,4.7,12,4.7 M12,4c-4.4,0-8,3.6-8,8s3.6,8,8,8s8-3.6,8-8
	S16.4,4,12,4L12,4z M13.4,15.1h-2.8L10,16.8H9.1l2.6-6.6h0.8l2.5,6.6h-1L13.4,15.1z M10.9,14.3h2.2l-1.1-3l0,0L10.9,14.3z M11.2,8.3
	h-1V7.2h1V8.3z M13.8,8.3h-1V7.2h1V8.3z"/>
</svg>
