<svg id="All" xmlns="http://www.w3.org/2000/svg" viewBox="0 0 24 24"><path fill="#7C59B6" d="M2,6V18H22V6ZM21,17H3V7H21ZM7.14,13.49365H8.61841l.28644.94324h.85351L8.31458,10.06311H7.44952L6,14.43689h.85352Zm.732-2.40619h.01733l.52082,1.71827H7.34827Zm5.21167,3.027a1.15182,1.15182,0,0,0,.39929-.95129,1.10328,1.10328,0,0,0-.189-.63983.89117.89117,0,0,0-.569-.36048.93678.93678,0,0,0,.45038-.35949.97062.97062,0,0,0,.15436-.54175,1.03547,1.03547,0,0,0-.41663-.8982,1.95478,1.95478,0,0,0-1.16021-.30035H10.32928v4.37378h1.62311A1.75659,1.75659,0,0,0,13.08362,14.1145ZM11.17407,10.739h.57868a.87911.87911,0,0,1,.54876.14417.53368.53368,0,0,1,.18323.44757.50437.50437,0,0,1-.18225.42059.8227.8227,0,0,1-.52081.14417h-.60761Zm0,1.76331h.842a.603.603,0,0,1,.47449.16925.71556.71556,0,0,1,.15045.48962.55856.55856,0,0,1-.17651.44861.76448.76448,0,0,1-.51209.15119h-.77832Zm3.48444,1.49a1.83733,1.83733,0,0,1-.47449-1.3067v-.86817a1.871,1.871,0,0,1,.46295-1.30676A1.54883,1.54883,0,0,1,15.85052,10a1.7097,1.7097,0,0,1,1.221.41553,1.45419,1.45419,0,0,1,.42822,1.13452l-.00579.01807h-.82166a.97784.97784,0,0,0-.19964-.66193.77811.77811,0,0,0-.62208-.23029.69667.69667,0,0,0-.60174.3194,1.39356,1.39356,0,0,0-.22278.81512v.87317a1.35375,1.35375,0,0,0,.23431.82111.74451.74451,0,0,0,.63361.3194.73475.73475,0,0,0,.58637-.22028.98782.98782,0,0,0,.189-.65692h.81885l.00574.01807a1.45406,1.45406,0,0,1-.41468,1.12048,1.63,1.63,0,0,1-1.1853.41455A1.61343,1.61343,0,0,1,14.65851,13.99231Z"/></svg>