<svg xmlns="http://www.w3.org/2000/svg" width="110" height="104.844" viewBox="0 0 110 104.844">
  <g id="Group_1299" data-name="Group 1299" transform="translate(-125 -99.807)">
    <g id="Group_1298" data-name="Group 1298">
      <path id="Path_2083" data-name="Path 2083" d="M125,165.057,180,132.4l55,32.656v48.125H125Z" transform="translate(0 -24)" fill="#d07c40"/>
      <path id="Path_2084" data-name="Path 2084" d="M137.031,123.807h85.937a3.448,3.448,0,0,1,3.438,3.438V187.4a3.448,3.448,0,0,1-3.438,3.437H137.031a3.447,3.447,0,0,1-3.437-3.437V127.245A3.448,3.448,0,0,1,137.031,123.807Z" transform="translate(0 -24)" fill="#efefef"/>
      <path id="Path_2086" data-name="Path 2086" d="M235,223.495a5.172,5.172,0,0,1-5.157,5.156H130.156A5.172,5.172,0,0,1,125,223.495V165.057l55,24.063,55-24.063v58.438Z" transform="translate(0 -24)" fill="#ffbe69"/>
      <path id="Path_2087" data-name="Path 2087" d="M235,223.495a5.172,5.172,0,0,1-5.157,5.156H130.156A5.172,5.172,0,0,1,125,223.495V213.182l110-48.125Z" transform="translate(0 -24)" fill="#ffac3e"/>
      <path id="Path_2088" data-name="Path 2088" d="M159.976,154.315l.688,3.609-5.5-8.593-7.734,12.031c-.086,1.117,4.9,1.976,11.086,1.976s11.171-.859,11.171-1.976L162.9,151.307Zm.688-4.727a2.148,2.148,0,1,0-2.148-2.148A2.127,2.127,0,0,0,160.664,149.588Zm17.617-.859h34.375a1.718,1.718,0,1,0,0-3.437H178.281a1.718,1.718,0,1,0,0,3.437Zm34.375,3.438H178.281a1.718,1.718,0,1,0,0,3.437h34.375a1.718,1.718,0,1,0,0-3.437Zm-8.594,6.874H178.281a1.719,1.719,0,1,0,0,3.438h25.781a1.719,1.719,0,1,0,0-3.438Z" transform="translate(0 -24)" fill="#d6d9db"/>
    </g>
    <path id="Path_2089" data-name="Path 2089" d="M193.406,130.682l5.5-6.875h12.031l-5.5,6.875Zm-44.687,0,5.5-6.875H166.25l-5.5,6.875Z" transform="translate(0 -24)" fill="#f85446"/>
    <path id="Path_2085" data-name="Path 2085" d="M215.75,130.682l5.5-6.875h1.719a3.448,3.448,0,0,1,3.437,3.438v3.437Zm-44.687,0,5.5-6.875h12.032l-5.5,6.875Zm-37.469,0v-3.437a3.448,3.448,0,0,1,3.437-3.438h8.594l-5.5,6.875Z" transform="translate(0 -24)" fill="#0e88f2"/>
  </g>
</svg>
