<svg xmlns="http://www.w3.org/2000/svg" width="64" height="103" viewBox="0 0 64 103">
  <g id="Expenses" transform="translate(-251 -477)">
    <text id="Expenses-2" data-name="Expenses" transform="translate(251 543)" fill="#f85446" font-size="12" font-family="SFProText-Bold, SF Pro Text" font-weight="700"><tspan x="3.128" y="11">Expenses</tspan></text>
    <path id="Path_1157" data-name="Path 1157" d="M57.019,50.63h-.873V38.69a5.539,5.539,0,0,0-5.533-5.533H26.619L10.433,28.532l-.014,0-.014,0-.029-.006-.045-.009-.041-.005-.047,0h-.087l-.036,0-.05.005-.033.006-.05.01-.031.008-.051.016-.028.011-.05.021-.026.013-.048.026-.024.015-.046.031-.023.018-.042.034-.022.021-.038.037-.022.025-.032.039-.022.029c-.009.013-.018.026-.027.039l-.021.035c-.007.013-.015.026-.021.039s-.012.026-.018.04-.012.026-.017.04-.01.029-.015.043-.007.018-.01.028,0,.009,0,.014l0,.014-1,4H5.534A5.539,5.539,0,0,0,0,38.672c0,.006,0,.012,0,.018V73.635s0,0,0,.007v2.324c0,.009,0,.018,0,.027A5.539,5.539,0,0,0,5.534,81.5H50.613a5.539,5.539,0,0,0,5.533-5.532h0V69.85h.873a2.623,2.623,0,0,0,2.62-2.62V53.251A2.624,2.624,0,0,0,57.019,50.63Zm-46.2-20.17,15.415,4.4h0L36.57,37.818H8.982ZM5.534,34.9H7.91l-.728,2.913H5.534a.874.874,0,1,0,0,1.747H49.447a.874.874,0,1,0,0-1.747H42.93L32.735,34.9H50.612A3.79,3.79,0,0,1,54.4,38.69v5.289a5.511,5.511,0,0,0-3.786-1.5H5.534a3.786,3.786,0,1,1,0-7.572ZM54.4,75.966a3.79,3.79,0,0,1-3.786,3.786H5.534a3.79,3.79,0,0,1-3.786-3.786s0-.009,0-.014V72.471s0,0,0-.007V42.72a5.512,5.512,0,0,0,3.786,1.5H50.616A3.79,3.79,0,0,1,54.4,48.009v6.116H44.785c-.025,0-.05,0-.075,0s-.055.006-.082.011l-.012,0c-.023,0-.045.011-.067.017l-.015,0-.058.021-.022.008-.047.022-.031.015-.035.021-.039.024-.024.018c-.015.011-.03.021-.044.033l-.018.016c-.015.013-.031.026-.045.041l-.024.027c-.011.012-.023.024-.034.037s-.035.045-.051.068h0L39.4,61.5a.86.86,0,0,0-.082.154c-.008.02-.015.04-.022.061l-.006.018c-.007.022-.012.043-.016.065l0,.017c0,.02-.006.039-.009.059s0,.017,0,.025,0,.032,0,.048,0,.025,0,.037,0,.024,0,.036,0,.033,0,.05,0,.016,0,.024.005.04.009.06,0,.011,0,.016c0,.022.01.044.016.066l.006.018c.007.02.013.041.022.061a.871.871,0,0,0,.082.154l4.659,6.988h0a.9.9,0,0,0,.061.08l.022.024q.022.024.046.047l.028.026c.017.015.035.028.053.041l.024.018a.873.873,0,0,0,.081.049l.022.01c.022.011.045.022.069.031l.027.01q.033.012.068.021l.028.007c.024.005.048.01.072.013l.026,0a.877.877,0,0,0,.092.005H54.4Zm3.493-8.737h0a.874.874,0,0,1-.873.873H45.255l-4.077-6.115,4.077-6.116H57.019l.036,0a2.611,2.611,0,0,0,.837-.149Zm-.873-13.105h-.873V52.378h.873a.873.873,0,0,1,0,1.746Z" transform="translate(253 448.5)" fill="#f85446"/>
  </g>
</svg>
