<?xml version="1.0" encoding="UTF-8"?>
<!DOCTYPE svg PUBLIC "-//W3C//DTD SVG 1.1//EN" "http://www.w3.org/Graphics/SVG/1.1/DTD/svg11.dtd">
<svg version="1.1" id="Layer_1" xmlns="http://www.w3.org/2000/svg" xmlns:xlink="http://www.w3.org/1999/xlink" x="0px" y="0px" width="16px" height="16px" viewBox="0 0 16 16" enable-background="new 0 0 16 16" xml:space="preserve">
  <g id="icon">
    <path d="M4.8,12.5H1.95C1.149,12.5,0.5,11.851,0.5,11.05V9M2.736,10.423M4.8,12.474M2.636,14.625M4.8,12.474M2.636,14.625L4.8,12.474l-2.064,-2.051" fill="none" stroke="#EE3D3B" stroke-width="1" stroke-miterlimit="1"/>
    <polygon points="6.533,0.5 0.5,0.5 0.5,8 2,8 2,9 5,9 5,5 9.5,5 9.5,3.557" fill="#FFFFFF" stroke-linejoin="miter"/>
    <path d="M10,3.353V5H9V4H6V1H1v7H0V0h6.744L10,3.353zM8.256,3L7,1.693V3H8.256z" fill="#383838"/>
    <path d="M5,3H2v1h3V3zM5,7H2v1h3V7zM5,5H2v1h3V5z" fill="#78797A" opacity="0.5"/>
    <rect x="6.5" y="6.5" width="9" height="9" fill="#FFFFFF" stroke="#228BCB" stroke-width="1" stroke-miterlimit="1"/>
    <path d="M11,8.009c-0.557,0.419,-1.054,1.881,-1.054,3.005c0,1.11,0.454,2.558,1.02,2.977M11.024,13.991c0.533,-0.419,1.04,-1.867,1.04,-2.977c0,-1.123,-0.55,-2.585,-1.054,-3.005M8.171,10.005h5.657M8.214,11.995h5.614" fill="none" stroke="#228BCB" stroke-width="0.8" stroke-miterlimit="1"/>
    <circle cx="11" cy="11" r="3" fill="none" stroke="#228BCB" stroke-width="0.8" stroke-miterlimit="1"/>
  </g>
</svg>
