<?xml version="1.0" encoding="UTF-8"?>
<!DOCTYPE svg PUBLIC "-//W3C//DTD SVG 1.1//EN" "http://www.w3.org/Graphics/SVG/1.1/DTD/svg11.dtd">
<svg version="1.1" id="Layer_1" xmlns="http://www.w3.org/2000/svg" xmlns:xlink="http://www.w3.org/1999/xlink" x="0px" y="0px" width="16px" height="16px" viewBox="0 0 16 16" enable-background="new 0 0 16 16" xml:space="preserve">
  <g id="icon">
    <path d="M4.8,12.5H1.95C1.149,12.5,0.5,11.851,0.5,11.05V9M2.736,10.423M4.8,12.474M2.636,14.625M4.8,12.474M2.636,14.625L4.8,12.474l-2.064,-2.051" fill="none" stroke="#EE3D3B" stroke-width="1" stroke-miterlimit="1"/>
    <polygon points="6.533,0.5 0.5,0.5 0.5,8 2,8 2,9 5,9 5,5 9.5,5 9.5,3.557" fill="#FFFFFF" stroke-linejoin="miter"/>
    <path d="M10,3.353V5H9V4H6V1H1v7H0V0h6.744L10,3.353zM8.256,3L7,1.693V3H8.256z" fill="#383838"/>
    <path d="M5,3H2v1h3V3zM5,7H2v1h3V7zM5,5H2v1h3V5z" fill="#78797A" opacity="0.5"/>
    <rect x="6.5" y="6.5" width="9" height="9" fill="#FFFFFF" stroke="#EE3D3B" stroke-width="1" stroke-miterlimit="1"/>
    <path d="M10.509,8.004c0.4,-0.064,0.417,0.455,0.417,0.714c0,0.336,-0.017,0.672,-0.063,1.005c-0.102,0.738,-0.337,1.473,-0.622,2.16c-0.265,0.64,-0.565,1.341,-1.089,1.814c-0.179,0.161,-0.608,0.463,-0.84,0.199c-0.238,-0.272,0.206,-0.644,0.374,-0.797c0.542,-0.491,1.212,-0.788,1.887,-1.05c0.643,-0.25,1.287,-0.436,1.956,-0.6c0.37,-0.091,0.799,-0.19,1.167,-0.034c0.147,0.062,0.296,0.162,0.332,0.327c0.042,0.191,-0.062,0.349,-0.25,0.387c-0.608,0.122,-1.304,-0.196,-1.739,-0.6c-0.503,-0.468,-1.045,-0.978,-1.395,-1.574c-0.177,-0.3,-0.307,-0.622,-0.388,-0.961C10.19,8.713,10.066,8.075,10.509,8.004z" fill="none" stroke="#EE3D3B" stroke-width="0.9" stroke-miterlimit="1"/>
  </g>
</svg>
