<?xml version="1.0" encoding="UTF-8"?><svg id="Layer_2" xmlns="http://www.w3.org/2000/svg" viewBox="0 0 20.12 10"><defs><style>.cls-1{fill:#fff;}</style></defs><g id="First_Look"><path class="cls-1" d="M18.69,4.99c1.43-1.47,1.43-4.36,1.43-4.54,0-.22-.17-.39-.39-.43-2.68-.26-4.19,2.55-4.75,3.98C12.12,.19,7.41,.02,7.15,.02h-.04C1.45,.02,.02,4.77,.02,4.86c-.04,.09,0,.17,0,.26,1.6,4.45,5.27,4.88,6.66,4.88,.26,0,.48,0,.52-.04,.39,0,5.01-.3,7.78-3.98,.61,1.47,2.07,4.28,4.75,3.98,.22,0,.39-.22,.39-.43,0-.13,.04-3.03-1.43-4.54ZM7.19,9.09h-.04S2.7,9.65,.97,4.99c.22-.65,1.64-4.02,6.18-4.02,.09,0,4.93,.22,7.48,4.06-2.55,3.85-7.39,4.06-7.43,4.06ZM15.58,4.94c.22-.61,1.43-3.89,3.72-4.02-.04,1.08-.39,2.98-1.43,3.72-.13,.09-.17,.22-.17,.35s.09,.26,.17,.35c1.17,.82,1.38,2.85,1.43,3.72-2.29-.13-3.5-3.41-3.72-4.11Z"/></g></svg>