<svg xmlns="http://www.w3.org/2000/svg" width="75" height="87" viewBox="0 0 75 87">
  <g id="Flight" transform="translate(-302 -454)">
    <text id="Flight-2" data-name="Flight" transform="translate(302 510)" fill="#ffac3e" font-size="12" font-family="SFProText-Bold, SF Pro Text" font-weight="700"><tspan x="20.25" y="11">Flight</tspan></text>
    <g id="airplane" transform="translate(313 453)" fill="none">
      <path d="M22.636,28.681h-14L4.818,33.772H1l2.545-8.909L1,15.954H4.818l3.818,5.091h14L16.272,1h5.091L34.09,21.045h14a4.106,4.106,0,0,1,3.818,3.818,4.106,4.106,0,0,1-3.818,3.818h-14L21.363,48.726H16.272Z" stroke="none"/>
      <path d="M 20.48363304138184 47.12583541870117 L 33.21052551269531 27.08097457885742 L 48.08948516845703 27.08097457885742 C 48.57102584838867 27.08097457885742 49.12936401367188 26.81012535095215 49.58303451538086 26.35645484924316 C 50.03670501708984 25.90279579162598 50.30755615234375 25.34445571899414 50.30755615234375 24.8629150390625 C 50.30755615234375 24.38137435913086 50.03670501708984 23.82303428649902 49.58303451538086 23.36936569213867 C 49.12936401367188 22.91569519042969 48.57102584838867 22.64484596252441 48.08948516845703 22.64484596252441 L 33.21052551269531 22.64484596252441 L 20.48363494873047 2.600005149841309 L 18.45889472961426 2.600005149841309 L 24.82233619689941 22.64484596252441 L 7.836135387420654 22.64484596252441 L 4.01806640625 17.5540943145752 L 3.121172428131104 17.5540943145752 L 5.209395408630371 24.8629150390625 L 3.121172428131104 32.17173385620117 L 4.018065452575684 32.17173385620117 L 7.836135387420654 27.08097457885742 L 24.82233619689941 27.08097457885742 L 18.45889282226562 47.12583541870117 L 20.48363304138184 47.12583541870117 M 21.36301612854004 48.72583389282227 L 16.27226448059082 48.72583389282227 L 22.63570594787598 28.68097496032715 L 8.636135101318359 28.68097496032715 L 4.818065643310547 33.77173614501953 L 1.00000536441803 33.77173614501953 L 3.545375347137451 24.8629150390625 L 1.00000536441803 15.95409488677979 L 4.818065643310547 15.95409488677979 L 8.636135101318359 21.04484558105469 L 22.63570594787598 21.04484558105469 L 16.27226448059082 1.000005006790161 L 21.36301612854004 1.000005006790161 L 34.08990478515625 21.04484558105469 L 48.08948516845703 21.04484558105469 C 49.99851608276367 21.04484558105469 51.90755462646484 22.95388412475586 51.90755462646484 24.8629150390625 C 51.90755462646484 26.77194595336914 49.99851608276367 28.68097496032715 48.08948516845703 28.68097496032715 L 34.08990478515625 28.68097496032715 L 21.36301612854004 48.72583389282227 Z" stroke="none" fill="#ffac3e"/>
    </g>
  </g>
</svg>
