<svg id="All" xmlns="http://www.w3.org/2000/svg" viewBox="0 0 24 24"><path fill="#7C59B6" d="M12,2A10,10,0,1,0,22,12,10.01146,10.01146,0,0,0,12,2Zm0,19a9,9,0,1,1,9-9A9.01016,9.01016,0,0,1,12,21Zm1-8a1,1,0,0,1-2,0,.98585.98585,0,0,1,.5-.84674V8h1v4.15326A.98557.98557,0,0,1,13,13ZM6.52521,11.5c-.0149.16492-.02521.33124-.02521.5,0,.16882.01031.33508.02521.5h-2C4.51422,12.334,4.5,12.16882,4.5,12s.01422-.334.02521-.5ZM5.76953,7.82544,7.51,8.83032a5.49023,5.49023,0,0,0-.49951.86634L5.27527,8.69476A7.48461,7.48461,0,0,1,5.76953,7.82544ZM8.69482,5.27521,9.69672,7.0105A5.4949,5.4949,0,0,0,8.83038,7.51L7.8255,5.76947A7.49834,7.49834,0,0,1,8.69482,5.27521Zm6.61036.00006a7.49,7.49,0,0,1,.86938.4942L15.16968,7.51a5.4922,5.4922,0,0,0-.86634-.49951ZM19.5,12c0,.16882-.01422.334-.02521.5h-2c.0149-.16492.02521-.33118.02521-.5,0-.16876-.01031-.33508-.02521-.5h2C19.48578,11.666,19.5,11.83118,19.5,12Zm-.77527-3.30518L16.9895,9.69666A5.4922,5.4922,0,0,0,16.49,8.83032l1.74054-1.00488A7.49,7.49,0,0,1,18.72473,8.69482ZM12,6.5c-.16882,0-.33508.01031-.5.02521v-2c.166-.011.33118-.02521.5-.02521s.334.01422.5.02521v2C12.33508,6.51031,12.16876,6.5,12,6.5Z"/></svg>