<svg xmlns="http://www.w3.org/2000/svg" xmlns:xlink="http://www.w3.org/1999/xlink" width="1780" height="216" viewBox="0 0 1780 216">
  <defs>
    <clipPath id="clip-path">
      <rect id="Rectangle_1105" data-name="Rectangle 1105" width="1780" height="216" fill="#fff" stroke="#707070" stroke-width="1"/>
    </clipPath>
    <linearGradient id="linear-gradient" x1="0.523" y1="-0.538" x2="0.49" y2="1.617" gradientUnits="objectBoundingBox">
      <stop offset="0" stop-color="#3a55da" stop-opacity="0.306"/>
      <stop offset="1" stop-color="#282f89" stop-opacity="0.698"/>
    </linearGradient>
    <linearGradient id="linear-gradient-2" x1="0.581" y1="0.251" x2="0.482" y2="1.943" gradientUnits="objectBoundingBox">
      <stop offset="0" stop-color="#5777ea"/>
      <stop offset="1" stop-color="#282f89" stop-opacity="0.698"/>
    </linearGradient>
  </defs>
  <g id="Mask_Group_3" data-name="Mask Group 3" clip-path="url(#clip-path)">
    <g id="Group_1936" data-name="Group 1936" transform="translate(-38.861 -13.979)">
      <path id="Path_553" data-name="Path 553" d="M0,0H1819.837V369.654H0Z" transform="translate(2.834 1.164)" fill="#151950"/>
      <path id="Path_566" data-name="Path 566" d="M-7457.42-8717.927s-19.181,4.749-62.828-15.854-274.741-129.447-274.741-129.447v371.161h1822.045l.815-370.141s-417.691,278.48-458.5,305.29-65.076,25.421-111.06,8.657-391.083-142.132-419.966-152.276-40.973-17.244-70.2-17.3S-7457.42-8717.927-7457.42-8717.927Z" transform="translate(7794.989 8863.229)" fill="url(#linear-gradient)"/>
      <path id="Path_565" data-name="Path 565" d="M-7792-8513.481s246.71-219.575,288.324-258.847,71.157-34.851,97.934-35.711,429.348,0,429.348,0,32.594-3.44,71.32,11.957,353.633,125.186,353.633,125.186,38.344,14.059,77.665-11.146,161.965-108.593,201.527-131.69,55.756-17.287,123.826-9.113,323.072,33.479,323.072,33.479l-.341,327.56L-7792-8462.385Z" transform="translate(7813.79 8853.015)" opacity="0.154" fill="url(#linear-gradient-2)"/>
    </g>
  </g>
</svg>
