<svg xmlns="http://www.w3.org/2000/svg" width="75" height="103" viewBox="0 0 75 103">
  <g id="HomePainting" transform="translate(-302 -440)">
    <text id="Home_Painting" data-name="Home Painting" transform="translate(302 512)" fill="#ffac3e" font-size="12" font-family="SFProText-Bold, SF Pro Text" font-weight="700"><tspan x="19.913" y="11">Home </tspan><tspan x="12.718" y="27">Painting</tspan></text>
    <g id="Group_920" data-name="Group 920" transform="translate(294.039 440.997)">
      <path id="Path_1122" data-name="Path 1122" d="M68.981,37.07V3.278A1.813,1.813,0,0,0,67.17,1.466H49.2L47.351-.383a2.1,2.1,0,0,0-2.97,0L34.857,9.14a2.122,2.122,0,0,0-.507-.064,2.087,2.087,0,0,0-1.485.615l-4.119,4.12a2.1,2.1,0,0,0,0,2.97l5.463,5.463a43.664,43.664,0,0,1-8.375,6.334,13.126,13.126,0,0,0-2.606,2.036,11.652,11.652,0,0,0-3,4.783c-.52,1.785-.277,3.3.685,4.259a3.481,3.481,0,0,0,2.538.955,8.787,8.787,0,0,0,5.011-1.975.776.776,0,1,0-.929-1.244c-2.219,1.656-4.542,2.147-5.523,1.166a2.764,2.764,0,0,1-.292-2.727,10.083,10.083,0,0,1,2.606-4.12,11.543,11.543,0,0,1,2.3-1.8,45.226,45.226,0,0,0,8.685-6.574l1.922,1.921a45.22,45.22,0,0,0-6.574,8.686,10.939,10.939,0,0,1-.843,1.224.776.776,0,0,0,1.219.962,12.44,12.44,0,0,0,.962-1.4,43.673,43.673,0,0,1,6.335-8.375l5.463,5.463a2.085,2.085,0,0,0,1.485.615c.034,0,.067,0,.1,0v3.1a4.452,4.452,0,0,0,8.9,0V30.281a2.9,2.9,0,0,1,5.8,0V47.55a4.452,4.452,0,1,0,8.9,0V37.078S68.981,37.073,68.981,37.07ZM45.478.715a.548.548,0,0,1,.774,0l13.6,13.6a.548.548,0,0,1,0,.774l-9.31,9.31L46.913,20.77,48.486,19.2a.776.776,0,1,0-1.1-1.1l-1.573,1.573-5.5-5.5L41.89,12.6a.776.776,0,1,0-1.1-1.1l-1.573,1.573-.837-.837,6.192-6.192a.776.776,0,1,0-1.1-1.1L37.284,11.14l-1.116-1.116Zm.183,30.012a.547.547,0,0,1-.774,0L29.843,15.683a.548.548,0,0,1,0-.774l4.12-4.119a.547.547,0,0,1,.774,0L49.781,25.833a.548.548,0,0,1,0,.774Zm21.767,6.351V47.55a2.9,2.9,0,1,1-5.8,0V30.281a4.452,4.452,0,0,0-8.9,0v5.251a2.9,2.9,0,0,1-5.8,0V31.657l3.952-3.952a2.1,2.1,0,0,0,.55-1.991l9.524-9.524a2.1,2.1,0,0,0,0-2.97l-10.2-10.2H67.17a.259.259,0,0,1,.259.259Z" transform="translate(0 0)" fill="#ffac3e"/>
      <path id="Path_1123" data-name="Path 1123" d="M156,171.516a.78.78,0,1,0-1.1,1.1l8.249,8.248a.78.78,0,0,0,1.1-1.1Z" transform="translate(-120.747 -154.433)" fill="#ffac3e"/>
      <path id="Path_1124" data-name="Path 1124" d="M435.913,180.923H435.9a.784.784,0,1,0,.008,0Z" transform="translate(-372.133 -163.054)" fill="#ffac3e"/>
      <path id="Path_1125" data-name="Path 1125" d="M442.233,201.383a.78.78,0,0,0,.018,1.559h.01a.78.78,0,0,0-.01-1.559h-.018Z" transform="translate(-377.811 -181.392)" fill="#ffac3e"/>
      <path id="Path_1126" data-name="Path 1126" d="M395.691,224.444a.784.784,0,1,0,.008,0Z" transform="translate(-336.07 -202.062)" fill="#ffac3e"/>
    </g>
  </g>
</svg>
