<svg xmlns="http://www.w3.org/2000/svg" width="43.118" height="41.545" viewBox="0 0 43.118 41.545">
  <g id="C__Logo_CCW" data-name="C#_Logo_CCW" transform="translate(0 8.709) rotate(-14)">
    <path id="Path_2626" data-name="Path 2626" d="M184.361,116.294v1.786h1.786v-1.786h.893v1.786h1.786v.893h-1.786v1.786h1.786v.893h-1.786v1.786h-.893v-1.786h-1.786v1.786h-.893v-1.786h-1.786v-.893h1.786v-1.786h-1.786v-.893h1.786v-1.786Zm1.786,2.679h-1.786v1.786h1.786Z" transform="translate(-152.827 -103.021)" fill="#fff"/>
    <path id="Path_2627" data-name="Path 2627" d="M50.982,48.626a17.64,17.64,0,0,1,15.176,8.452l-.03-.049L58.5,61.27a8.782,8.782,0,0,0-7.419-4.149h-.1a8.58,8.58,0,0,0-8.727,8.426,8.163,8.163,0,0,0,1.151,4.18,8.882,8.882,0,0,0,15.181-.049l-.036.062L66.167,74a17.633,17.633,0,0,1-14.99,8.467h-.2a17.637,17.637,0,0,1-15.2-8.5,16.4,16.4,0,0,1-2.321-8.421C33.456,56.2,41.3,48.626,50.982,48.626Z" transform="translate(-33.456 -48.626)" fill="#fff"/>
  </g>
</svg>
