<svg xmlns="http://www.w3.org/2000/svg" xmlns:xlink="http://www.w3.org/1999/xlink" width="74.523" height="62.724" viewBox="0 0 74.523 62.724">
  <defs>
    <clipPath id="clip-path">
      <path id="Path_1736" data-name="Path 1736" d="M29.879-52.242A27.879,27.879,0,0,0,57.758-80.121,27.879,27.879,0,0,0,29.879-108,27.879,27.879,0,0,0,2-80.121,27.879,27.879,0,0,0,29.879-52.242Z" transform="translate(-2 108)" fill="none" clip-rule="evenodd"/>
    </clipPath>
    <clipPath id="clip-path-2">
      <path id="Path_1735" data-name="Path 1735" d="M-402,1584.581H679.373V-940H-402Z" transform="translate(402 940)" fill="none"/>
    </clipPath>
    <clipPath id="clip-path-3">
      <path id="Path_1739" data-name="Path 1739" d="M77.771-83.327C81.484-87.55,85.8-90.836,90.146-90.2c2.463.362,3.5,1.774,5.541,1.611,2.626-.209,5.749-2.922,8.88-12.156l4.667,2.283c-5.218,11.886-9.443,14.567-12.489,14.515-2.394-.041-3.586-1.763-7.1-2.371-4.65-.807-8.9,1.114-11.877,2.989" transform="translate(-77.771 100.743)" fill="none" clip-rule="evenodd"/>
    </clipPath>
    <clipPath id="clip-path-4">
      <path id="Path_1738" data-name="Path 1738" d="M-402,1609.827H668.559V-940H-402Z" transform="translate(402 940)" fill="none"/>
    </clipPath>
    <clipPath id="clip-path-5">
      <path id="Path_1742" data-name="Path 1742" d="M81.722-84.122c.03-7.445,4.438-13.46,10.086-14.745a12.785,12.785,0,0,1,9.336,1.9l-3.136,4.047a11.675,11.675,0,0,0-5.549-.644c-7.249.982-10.529,8.918-10.737,9.444" transform="translate(-81.722 99.125)" fill="none" clip-rule="evenodd"/>
    </clipPath>
    <clipPath id="clip-path-7">
      <path id="Path_1745" data-name="Path 1745" d="M42.216-93.41,52.9-94.033a5.6,5.6,0,0,0,5.037-3.974,5.6,5.6,0,0,1,6.48-3.871l5.663,1.153v-3.251l-7.541-1.112a5.6,5.6,0,0,0-6.248,4.166l-.257,1.015a5.606,5.606,0,0,1-4.073,4.06Z" transform="translate(-42.216 105.149)" fill="none" clip-rule="evenodd"/>
    </clipPath>
    <clipPath id="clip-path-9">
      <path id="Path_1750" data-name="Path 1750" d="M39.019-115.023l25.118-3.086,1.947,15.868L40.966-99.156Z" transform="translate(-39.019 118.109)" fill="none" clip-rule="evenodd"/>
    </clipPath>
    <clipPath id="clip-path-11">
      <rect id="Rectangle_6116" data-name="Rectangle 6116" width="26.206" height="16.727" fill="none"/>
    </clipPath>
    <clipPath id="clip-path-12">
      <path id="Path_1748" data-name="Path 1748" d="M42.634-97.262l8.585-2.952a5.606,5.606,0,0,0,3.486-3.5l.8-2.373a5.6,5.6,0,0,1,5.486-3.805l6.75.216.2-3.568-9.152.188a5.6,5.6,0,0,0-5.347,4.357l-.774,3.389a5.608,5.608,0,0,1-2.57,3.553Z" transform="translate(-42.634 113.25)" fill="none" clip-rule="evenodd"/>
    </clipPath>
    <clipPath id="clip-path-13">
      <path id="Path_1747" data-name="Path 1747" d="M39-97.273H66.322V-114H39Z" transform="translate(-39 114)" fill="none"/>
    </clipPath>
    <clipPath id="clip-path-14">
      <path id="Path_1755" data-name="Path 1755" d="M.545-78.2a28.048,28.048,0,0,0,28.04,28.057h0A28.049,28.049,0,0,0,56.624-78.2h0a28.049,28.049,0,0,0-28.04-28.057h0A28.048,28.048,0,0,0,.545-78.2Z" transform="translate(-0.545 106.257)" fill="none" clip-rule="evenodd"/>
    </clipPath>
    <clipPath id="clip-path-16">
      <rect id="Rectangle_6117" data-name="Rectangle 6117" width="37.358" height="57.431" fill="none"/>
    </clipPath>
    <clipPath id="clip-path-17">
      <path id="Path_1753" data-name="Path 1753" d="M30.572,10.48l-24.252,2.9L1.533-23.4A17,17,0,0,1,18.314-43.064,17,17,0,0,1,35.1-23.4Z" transform="translate(-1.319 43.064)" fill="none" clip-rule="evenodd"/>
    </clipPath>
    <clipPath id="clip-path-18">
      <path id="Path_1752" data-name="Path 1752" d="M2-50.127H57.758V-107H2Z" transform="translate(-2 107)" fill="none"/>
    </clipPath>
    <clipPath id="clip-path-21">
      <rect id="Rectangle_6118" data-name="Rectangle 6118" width="24.534" height="25.091" fill="none"/>
    </clipPath>
    <clipPath id="clip-path-22">
      <path id="Path_1758" data-name="Path 1758" d="M27.309-43.067,39.962-31.989,51.3-38.056l-8.591-6.876A5.212,5.212,0,0,1,40.753-49v-7.783H27.309Z" transform="translate(-27.309 56.783)" fill="none" clip-rule="evenodd"/>
    </clipPath>
    <clipPath id="clip-path-27">
      <path id="Path_1763" data-name="Path 1763" d="M15.367-43.067,2.714-31.989-8.621-38.056l8.591-6.876A5.212,5.212,0,0,0,1.923-49v-7.783H15.367Z" transform="translate(8.621 56.783)" fill="none" clip-rule="evenodd"/>
    </clipPath>
    <clipPath id="clip-path-29">
      <path id="Path_1770" data-name="Path 1770" d="M.545-78.2a28.048,28.048,0,0,0,28.04,28.057h0A28.049,28.049,0,0,0,56.624-78.2h0a28.049,28.049,0,0,0-28.04-28.057h0A28.048,28.048,0,0,0,.545-78.2" transform="translate(-0.545 106.257)" fill="none" clip-rule="evenodd"/>
    </clipPath>
    <clipPath id="clip-path-31">
      <rect id="Rectangle_6120" data-name="Rectangle 6120" width="23.418" height="32.34" fill="none"/>
    </clipPath>
    <clipPath id="clip-path-32">
      <path id="Path_1768" data-name="Path 1768" d="M27.978-89.423H23.233a13.184,13.184,0,0,0-13.18,13.188v13.452a5.274,5.274,0,0,0,5.272,5.275H27.978a5.274,5.274,0,0,0,5.272-5.275V-84.148a5.274,5.274,0,0,0-5.272-5.275" transform="translate(-10.053 89.423)" fill="none" clip-rule="evenodd"/>
    </clipPath>
    <clipPath id="clip-path-36">
      <rect id="Rectangle_6121" data-name="Rectangle 6121" width="21.188" height="21.746" fill="none"/>
    </clipPath>
    <clipPath id="clip-path-37">
      <path id="Path_1773" data-name="Path 1773" d="M33.005-65.759A10.416,10.416,0,0,1,22.593-55.34,10.415,10.415,0,0,1,12.181-65.759,10.415,10.415,0,0,1,22.593-76.178,10.416,10.416,0,0,1,33.005-65.759" transform="translate(-12.181 76.178)" fill="none" clip-rule="evenodd"/>
    </clipPath>
    <clipPath id="clip-path-39">
      <path id="Path_1780" data-name="Path 1780" d="M12.181-65.759A10.416,10.416,0,0,0,22.593-55.34h0A10.416,10.416,0,0,0,33.005-65.759h0A10.415,10.415,0,0,0,22.593-76.178h0A10.415,10.415,0,0,0,12.181-65.759Z" transform="translate(-12.181 76.178)" fill="none" clip-rule="evenodd"/>
    </clipPath>
    <clipPath id="clip-path-41">
      <rect id="Rectangle_6122" data-name="Rectangle 6122" width="18.958" height="29.552" fill="none"/>
    </clipPath>
    <clipPath id="clip-path-42">
      <path id="Path_1778" data-name="Path 1778" d="M14.56-54.9V-73.762a9.088,9.088,0,0,1,9.085-9.091h0a9.088,9.088,0,0,1,9.085,9.091v20.335Z" transform="translate(-14.56 82.853)" fill="none" clip-rule="evenodd"/>
    </clipPath>
    <clipPath id="clip-path-43">
      <path id="Path_1777" data-name="Path 1777" d="M12-55.254H33.188V-77H12Z" transform="translate(-12 77)" fill="none"/>
    </clipPath>
    <clipPath id="clip-path-46">
      <rect id="Rectangle_6123" data-name="Rectangle 6123" width="5.018" height="8.921" fill="none"/>
    </clipPath>
    <clipPath id="clip-path-47">
      <path id="Path_1783" data-name="Path 1783" d="M23.054-59.486H27.8v-8.177Z" transform="translate(-23.054 67.663)" fill="none" clip-rule="evenodd"/>
    </clipPath>
    <clipPath id="clip-path-49">
      <path id="Path_1788" data-name="Path 1788" d="M31.989-49.106a5.925,5.925,0,0,0,3.463-.867A5.942,5.942,0,0,0,37.473-52l-.9-.55a4.909,4.909,0,0,1-1.669,1.67,4.9,4.9,0,0,1-2.863.715Z" transform="translate(-31.989 52.546)" fill="none"/>
    </clipPath>
    <clipPath id="clip-path-53">
      <rect id="Rectangle_6124" data-name="Rectangle 6124" width="2.23" height="1.673" fill="none"/>
    </clipPath>
    <clipPath id="clip-path-54">
      <path id="Path_1791" data-name="Path 1791" d="M41.359-65.313H39.4a.912.912,0,0,1,.912-.913h.131a.912.912,0,0,1,.912.913" transform="translate(-39.403 66.226)" fill="none" clip-rule="evenodd"/>
    </clipPath>
    <clipPath id="clip-path-58">
      <rect id="Rectangle_6125" data-name="Rectangle 6125" width="2.788" height="1.673" fill="none"/>
    </clipPath>
    <clipPath id="clip-path-59">
      <path id="Path_1796" data-name="Path 1796" d="M20.557-65.313H18.6a.912.912,0,0,1,.912-.913h.131a.912.912,0,0,1,.912.913" transform="translate(-18.603 66.226)" fill="none" clip-rule="evenodd"/>
    </clipPath>
    <clipPath id="clip-path-61">
      <path id="Path_1801" data-name="Path 1801" d="M12.18-69.742H33.8v-1.375H12.18Z" transform="translate(-12.18 71.116)" fill="none"/>
    </clipPath>
    <clipPath id="clip-path-63">
      <path id="Path_1804" data-name="Path 1804" d="M12.18-61.261H33.8v-1.375H12.18Z" transform="translate(-12.18 62.636)" fill="none"/>
    </clipPath>
    <clipPath id="clip-path-65">
      <path id="Path_1807" data-name="Path 1807" d="M12.18-44.08h20.3v-1.375H12.18Z" transform="translate(-12.18 45.455)" fill="none"/>
    </clipPath>
    <clipPath id="clip-path-67">
      <path id="Path_1810" data-name="Path 1810" d="M12.18-52.561H33.8v-1.375H12.18Z" transform="translate(-12.18 53.936)" fill="none"/>
    </clipPath>
    <clipPath id="clip-path-69">
      <path id="Path_1815" data-name="Path 1815" d="M28.585-50.142A28.049,28.049,0,0,0,56.624-78.2a28.049,28.049,0,0,0-28.04-28.057A28.048,28.048,0,0,0,.545-78.2,28.048,28.048,0,0,0,28.585-50.142Z" transform="translate(-0.545 106.257)" fill="none" clip-rule="evenodd"/>
    </clipPath>
    <clipPath id="clip-path-71">
      <rect id="Rectangle_6126" data-name="Rectangle 6126" width="48.51" height="30.667" fill="none"/>
    </clipPath>
    <clipPath id="clip-path-72">
      <path id="Path_1813" data-name="Path 1813" d="M68.5-44.824v-5.409H45.3v5.409a5.07,5.07,0,0,1-3.956,4.947,10.131,10.131,0,0,0-7.906,9.886q-.282,4.923-.564,9.846l47.485-7.931v-1.915a10.131,10.131,0,0,0-7.906-9.886A5.07,5.07,0,0,1,68.5-44.824" transform="translate(-32.872 50.232)" fill="none" clip-rule="evenodd"/>
    </clipPath>
    <clipPath id="clip-path-74">
      <path id="Path_1818" data-name="Path 1818" d="M66.757-51.02h0a11.636,11.636,0,0,1-11.6-11.606v-5.8a11.637,11.637,0,0,1,11.6-11.606,11.636,11.636,0,0,1,11.6,11.606v5.8a11.636,11.636,0,0,1-11.6,11.606" transform="translate(-55.158 80.035)" fill="none" clip-rule="evenodd"/>
    </clipPath>
    <clipPath id="clip-path-76">
      <path id="Path_1821" data-name="Path 1821" d="M54.685-58.939H78.41v-5.012H54.685Z" transform="translate(-54.685 63.951)" fill="none" clip-rule="evenodd"/>
    </clipPath>
    <clipPath id="clip-path-78">
      <path id="Path_1824" data-name="Path 1824" d="M75.527-53.53H61.311a2.852,2.852,0,0,1-2.843-2.845,2.852,2.852,0,0,1,2.843-2.845H75.527a2.853,2.853,0,0,1,2.843,2.845,2.853,2.853,0,0,1-2.843,2.845" transform="translate(-58.467 59.22)" fill="none" clip-rule="evenodd"/>
    </clipPath>
    <clipPath id="clip-path-80">
      <path id="Path_1827" data-name="Path 1827" d="M62.959-54.378a.923.923,0,0,1,.923-.923.923.923,0,0,1,.922.923" transform="translate(-62.959 55.301)" fill="none" clip-rule="evenodd"/>
    </clipPath>
    <clipPath id="clip-path-82">
      <path id="Path_1830" data-name="Path 1830" d="M83.288-54.276a.923.923,0,0,1,.923-.923.923.923,0,0,1,.923.923" transform="translate(-83.288 55.199)" fill="none" clip-rule="evenodd"/>
    </clipPath>
    <clipPath id="clip-path-84">
      <path id="Path_1833" data-name="Path 1833" d="M72.65-52.783h2.468v-4.748Z" transform="translate(-72.65 57.531)" fill="none" clip-rule="evenodd"/>
    </clipPath>
    <clipPath id="clip-path-86">
      <path id="Path_1836" data-name="Path 1836" d="M77.767-37.186h2.108a1.055,1.055,0,0,0,1.055-1.055H76.713A1.055,1.055,0,0,0,77.767-37.186Z" transform="translate(-76.713 38.241)" fill="none"/>
    </clipPath>
  </defs>
  <g id="Ningas" transform="translate(0 0)">
    <g id="Group_4179" data-name="Group 4179" transform="translate(0.254 6.752)" clip-path="url(#clip-path)">
      <g id="Group_4178" data-name="Group 4178" transform="translate(-227.539 -459.316)" clip-path="url(#clip-path-2)">
        <path id="Path_1734" data-name="Path 1734" d="M-3-113H58.39v61.279H-3Z" transform="translate(227.723 569.555)" fill="#93d9f3"/>
      </g>
    </g>
    <g id="Group_4181" data-name="Group 4181" transform="translate(43.06 9.683)" clip-path="url(#clip-path-3)">
      <g id="Group_4180" data-name="Group 4180" transform="translate(-267.512 -467.955)" clip-path="url(#clip-path-4)">
        <path id="Path_1737" data-name="Path 1737" d="M69.025-90.526l35.361-19.6,8.339,15.044-35.361,19.6Z" transform="translate(193.611 572.85)" fill="#00b86c"/>
      </g>
    </g>
    <g id="Group_4183" data-name="Group 4183" transform="translate(45.263 10.585)" clip-path="url(#clip-path-5)">
      <g id="Group_4182" data-name="Group 4182" transform="translate(-269.715 -468.857)" clip-path="url(#clip-path-4)">
        <path id="Path_1740" data-name="Path 1740" d="M67.6-98.458,92.78-112.416,99.664-100,74.483-86.038Z" transform="translate(194.241 573.863)" fill="#00b86c"/>
      </g>
    </g>
    <g id="Group_4185" data-name="Group 4185" transform="translate(23.235 7.227)" clip-path="url(#clip-path-7)">
      <g id="Group_4184" data-name="Group 4184" transform="translate(-247.687 -465.499)" clip-path="url(#clip-path-4)">
        <path id="Path_1743" data-name="Path 1743" d="M34.608-108.371l34.268-4.208,1.9,15.472L36.507-92.9Z" transform="translate(208.837 573.934)" fill="#f35e32"/>
      </g>
    </g>
    <g id="Group_4191" data-name="Group 4191" transform="translate(21.453 0)" clip-path="url(#clip-path-9)">
      <g id="Group_4190" data-name="Group 4190" transform="translate(-245.905 -458.272)" clip-path="url(#clip-path-4)">
        <g id="Group_4189" data-name="Group 4189" transform="translate(247.567 460.564)" style="isolation: isolate">
          <g id="Group_4188" data-name="Group 4188" transform="translate(0 0)" clip-path="url(#clip-path-11)">
            <g id="Group_4187" data-name="Group 4187" transform="translate(0.353 0.418)" clip-path="url(#clip-path-12)">
              <g id="Group_4186" data-name="Group 4186" transform="translate(-2.026 -0.418)" clip-path="url(#clip-path-13)">
                <path id="Path_1746" data-name="Path 1746" d="M37.634-118.25H68.516v21.563H37.634Z" transform="translate(-38.395 115.88)" fill="#f35e32"/>
              </g>
            </g>
          </g>
        </g>
      </g>
    </g>
    <g id="Group_4197" data-name="Group 4197" transform="translate(0 6.609)" clip-path="url(#clip-path-14)">
      <g id="Group_4196" data-name="Group 4196" transform="translate(-224.452 -464.881)" clip-path="url(#clip-path-4)">
        <g id="Group_4195" data-name="Group 4195" transform="translate(223.033 499.594)" style="isolation: isolate">
          <g id="Group_4194" data-name="Group 4194" transform="translate(0 0)" clip-path="url(#clip-path-16)">
            <g id="Group_4193" data-name="Group 4193" transform="translate(1.85 0.522)" clip-path="url(#clip-path-17)">
              <g id="Group_4192" data-name="Group 4192" transform="translate(0.38 -35.649)" clip-path="url(#clip-path-18)">
                <path id="Path_1751" data-name="Path 1751" d="M-3.681-48.064H35.887V13.957H-3.681Z" transform="translate(0.513 80.926)" fill="#f35e32"/>
              </g>
            </g>
          </g>
        </g>
      </g>
    </g>
    <g id="Group_4203" data-name="Group 4203" transform="translate(0 6.609)" clip-path="url(#clip-path-14)">
      <g id="Group_4202" data-name="Group 4202" transform="translate(-224.452 -464.881)" clip-path="url(#clip-path-4)">
        <g id="Group_4201" data-name="Group 4201" transform="translate(239.203 492.346)" style="isolation: isolate">
          <g id="Group_4200" data-name="Group 4200" transform="translate(0 0)" clip-path="url(#clip-path-21)">
            <g id="Group_4199" data-name="Group 4199" transform="translate(0.172 0.121)" clip-path="url(#clip-path-22)">
              <g id="Group_4198" data-name="Group 4198" transform="translate(-14.112 -28)" clip-path="url(#clip-path-18)">
                <path id="Path_1756" data-name="Path 1756" d="M22.309-61.783H51.873v30.37H22.309Z" transform="translate(-10.985 86.995)" fill="#2a475e"/>
              </g>
            </g>
          </g>
        </g>
      </g>
    </g>
    <g id="Group_4209" data-name="Group 4209" transform="translate(0 6.609)" clip-path="url(#clip-path-14)">
      <g id="Group_4208" data-name="Group 4208" transform="translate(-224.452 -464.881)" clip-path="url(#clip-path-4)">
        <g id="Group_4207" data-name="Group 4207" transform="translate(219.13 492.346)" style="isolation: isolate">
          <g id="Group_4206" data-name="Group 4206" transform="translate(0 0)" clip-path="url(#clip-path-21)">
            <g id="Group_4205" data-name="Group 4205" transform="translate(0.211 0.121)" clip-path="url(#clip-path-27)">
              <g id="Group_4204" data-name="Group 4204" transform="translate(5.922 -28)" clip-path="url(#clip-path-18)">
                <path id="Path_1761" data-name="Path 1761" d="M-13.621-61.783H15.942v30.37H-13.621Z" transform="translate(4.911 86.995)" fill="#2a475e"/>
              </g>
            </g>
          </g>
        </g>
      </g>
    </g>
    <g id="Group_4215" data-name="Group 4215" transform="translate(0 6.609)" clip-path="url(#clip-path-29)">
      <g id="Group_4214" data-name="Group 4214" transform="translate(-224.452 -464.881)" clip-path="url(#clip-path-4)">
        <g id="Group_4213" data-name="Group 4213" transform="translate(229.724 473.945)" style="isolation: isolate">
          <g id="Group_4212" data-name="Group 4212" transform="translate(0 0)" clip-path="url(#clip-path-31)">
            <g id="Group_4211" data-name="Group 4211" transform="translate(0.03 0.321)" clip-path="url(#clip-path-32)">
              <g id="Group_4210" data-name="Group 4210" transform="translate(-4.49 -9.8)" clip-path="url(#clip-path-18)">
                <path id="Path_1766" data-name="Path 1766" d="M5.053-94.423H33.826v37.492H5.053Z" transform="translate(-3.351 101.436)" fill="#0d254e"/>
              </g>
            </g>
          </g>
        </g>
      </g>
    </g>
    <g id="Group_4221" data-name="Group 4221" transform="translate(0 6.609)" clip-path="url(#clip-path-29)">
      <g id="Group_4220" data-name="Group 4220" transform="translate(-224.452 -464.881)" clip-path="url(#clip-path-4)">
        <g id="Group_4219" data-name="Group 4219" transform="translate(230.839 481.194)" style="isolation: isolate">
          <g id="Group_4218" data-name="Group 4218" transform="translate(0 0)" clip-path="url(#clip-path-36)">
            <g id="Group_4217" data-name="Group 4217" transform="translate(0.101 0.458)" clip-path="url(#clip-path-37)">
              <g id="Group_4216" data-name="Group 4216" transform="translate(-5.677 -17.186)" clip-path="url(#clip-path-18)">
                <path id="Path_1771" data-name="Path 1771" d="M7.181-81.178h26.4v26.413H7.181Z" transform="translate(-4.292 95.576)" fill="#2a475e"/>
              </g>
            </g>
          </g>
        </g>
      </g>
    </g>
    <g id="Group_4227" data-name="Group 4227" transform="translate(6.488 23.38)" clip-path="url(#clip-path-39)">
      <g id="Group_4226" data-name="Group 4226" transform="translate(-230.94 -481.652)" clip-path="url(#clip-path-4)">
        <g id="Group_4225" data-name="Group 4225" transform="translate(231.954 477.849)" style="isolation: isolate">
          <g id="Group_4224" data-name="Group 4224" transform="translate(0 0)" clip-path="url(#clip-path-41)">
            <g id="Group_4223" data-name="Group 4223" transform="translate(0.312 0.082)" clip-path="url(#clip-path-42)">
              <g id="Group_4222" data-name="Group 4222" transform="translate(-1.428 3.263)" clip-path="url(#clip-path-43)">
                <path id="Path_1776" data-name="Path 1776" d="M9.56-87.853H33.307v35H9.56Z" transform="translate(-10.921 81.801)" fill="#f4a85d"/>
              </g>
            </g>
          </g>
        </g>
      </g>
    </g>
    <g id="Group_4233" data-name="Group 4233" transform="translate(0 6.609)" clip-path="url(#clip-path-14)">
      <g id="Group_4232" data-name="Group 4232" transform="translate(-224.452 -464.881)" clip-path="url(#clip-path-4)">
        <g id="Group_4231" data-name="Group 4231" transform="translate(236.973 486.212)" style="isolation: isolate">
          <g id="Group_4230" data-name="Group 4230" transform="translate(0)" clip-path="url(#clip-path-46)">
            <g id="Group_4229" data-name="Group 4229" transform="translate(0.03 0.188)" clip-path="url(#clip-path-47)">
              <g id="Group_4228" data-name="Group 4228" transform="translate(-11.739 -21.934)" clip-path="url(#clip-path-18)">
                <path id="Path_1781" data-name="Path 1781" d="M18.054-72.663H28.375v13.753H18.054Z" transform="translate(-9.103 91.809)" fill="#ea7800"/>
              </g>
            </g>
          </g>
        </g>
      </g>
    </g>
    <g id="Group_4235" data-name="Group 4235" transform="translate(17.533 36.557)" clip-path="url(#clip-path-49)">
      <g id="Group_4234" data-name="Group 4234" transform="translate(-241.985 -494.829)" clip-path="url(#clip-path-4)">
        <path id="Path_1786" data-name="Path 1786" d="M26.989-57.546h11.06v9.024H26.989Z" transform="translate(212.208 549.587)" fill="#fefffe"/>
      </g>
    </g>
    <g id="Group_4241" data-name="Group 4241" transform="translate(0 6.609)" clip-path="url(#clip-path-29)">
      <g id="Group_4240" data-name="Group 4240" transform="translate(-224.452 -464.881)" clip-path="url(#clip-path-4)">
        <g id="Group_4239" data-name="Group 4239" transform="translate(245.894 486.77)" style="isolation: isolate">
          <g id="Group_4238" data-name="Group 4238" transform="translate(0 0)" clip-path="url(#clip-path-53)">
            <g id="Group_4237" data-name="Group 4237" transform="translate(0.225 0.432)" clip-path="url(#clip-path-54)">
              <g id="Group_4236" data-name="Group 4236" transform="translate(-20.856 -22.735)" clip-path="url(#clip-path-18)">
                <path id="Path_1789" data-name="Path 1789" d="M34.4-71.226h7.531v6.489H34.4Z" transform="translate(-16.336 91.173)" fill="#231e1f"/>
              </g>
            </g>
          </g>
        </g>
      </g>
    </g>
    <g id="Group_4247" data-name="Group 4247" transform="translate(0 6.609)" clip-path="url(#clip-path-29)">
      <g id="Group_4246" data-name="Group 4246" transform="translate(-224.452 -464.881)" clip-path="url(#clip-path-4)">
        <g id="Group_4245" data-name="Group 4245" transform="translate(234.185 486.77)" style="isolation: isolate">
          <g id="Group_4244" data-name="Group 4244" transform="translate(0 0)" clip-path="url(#clip-path-58)">
            <g id="Group_4243" data-name="Group 4243" transform="translate(0.336 0.432)" clip-path="url(#clip-path-59)">
              <g id="Group_4242" data-name="Group 4242" transform="translate(-9.257 -22.735)" clip-path="url(#clip-path-18)">
                <path id="Path_1794" data-name="Path 1794" d="M13.6-71.226h7.531v6.489H13.6Z" transform="translate(-7.133 91.173)" fill="#231e1f"/>
              </g>
            </g>
          </g>
        </g>
      </g>
    </g>
    <g id="Group_4249" data-name="Group 4249" transform="translate(6.488 26.203)" clip-path="url(#clip-path-61)">
      <g id="Group_4248" data-name="Group 4248" transform="translate(-230.94 -484.475)" clip-path="url(#clip-path-4)">
        <path id="Path_1799" data-name="Path 1799" d="M7.18-76.116H34.372v6.951H7.18Z" transform="translate(220.972 557.803)" fill="#0d254e"/>
      </g>
    </g>
    <g id="Group_4251" data-name="Group 4251" transform="translate(6.488 30.931)" clip-path="url(#clip-path-63)">
      <g id="Group_4250" data-name="Group 4250" transform="translate(-230.94 -489.203)" clip-path="url(#clip-path-4)">
        <path id="Path_1802" data-name="Path 1802" d="M7.18-67.636H34.372v6.951H7.18Z" transform="translate(220.972 554.051)" fill="#0d254e"/>
      </g>
    </g>
    <g id="Group_4253" data-name="Group 4253" transform="translate(6.488 40.511)" clip-path="url(#clip-path-65)">
      <g id="Group_4252" data-name="Group 4252" transform="translate(-230.94 -498.783)" clip-path="url(#clip-path-4)">
        <path id="Path_1805" data-name="Path 1805" d="M7.18-50.455H33.054V-43.5H7.18Z" transform="translate(220.972 546.45)" fill="#0d254e"/>
      </g>
    </g>
    <g id="Group_4255" data-name="Group 4255" transform="translate(6.488 35.782)" clip-path="url(#clip-path-67)">
      <g id="Group_4254" data-name="Group 4254" transform="translate(-230.94 -494.054)" clip-path="url(#clip-path-4)">
        <path id="Path_1808" data-name="Path 1808" d="M7.18-58.936H34.372v6.951H7.18Z" transform="translate(220.972 550.202)" fill="#0d254e"/>
      </g>
    </g>
    <g id="Group_4261" data-name="Group 4261" transform="translate(0 6.609)" clip-path="url(#clip-path-69)">
      <g id="Group_4260" data-name="Group 4260" transform="translate(-224.452 -464.881)" clip-path="url(#clip-path-4)">
        <g id="Group_4259" data-name="Group 4259" transform="translate(241.991 495.691)" style="isolation: isolate">
          <g id="Group_4258" data-name="Group 4258" transform="translate(0 0)" clip-path="url(#clip-path-71)">
            <g id="Group_4257" data-name="Group 4257" transform="translate(0.486 0.428)" clip-path="url(#clip-path-72)">
              <g id="Group_4256" data-name="Group 4256" transform="translate(-17.214 -31.653)" clip-path="url(#clip-path-18)">
                <path id="Path_1811" data-name="Path 1811" d="M27.872-55.232H80.933v35.663H27.872Z" transform="translate(-13.446 84.097)" fill="#00264d"/>
              </g>
            </g>
          </g>
        </g>
      </g>
    </g>
    <g id="Group_4263" data-name="Group 4263" transform="translate(30.452 21.23)" clip-path="url(#clip-path-74)">
      <g id="Group_4262" data-name="Group 4262" transform="translate(-254.904 -479.502)" clip-path="url(#clip-path-4)">
        <path id="Path_1816" data-name="Path 1816" d="M50.158-85.035H78.931v34.59H50.158Z" transform="translate(201.958 561.749)" fill="#00264d"/>
      </g>
    </g>
    <g id="Group_4265" data-name="Group 4265" transform="translate(30.188 30.198)" clip-path="url(#clip-path-76)">
      <g id="Group_4264" data-name="Group 4264" transform="translate(-254.64 -488.47)" clip-path="url(#clip-path-4)">
        <path id="Path_1819" data-name="Path 1819" d="M49.685-68.951h29.3v10.588h-29.3Z" transform="translate(202.167 554.633)" fill="#00b86c"/>
      </g>
    </g>
    <g id="Group_4267" data-name="Group 4267" transform="translate(32.297 32.836)" clip-path="url(#clip-path-78)">
      <g id="Group_4266" data-name="Group 4266" transform="translate(-256.749 -491.108)" clip-path="url(#clip-path-4)">
        <path id="Path_1822" data-name="Path 1822" d="M53.467-64.22H78.946v11.265H53.467Z" transform="translate(200.493 552.54)" fill="#f4a85d"/>
      </g>
    </g>
    <g id="Group_4269" data-name="Group 4269" transform="translate(34.801 35.021)" clip-path="url(#clip-path-80)">
      <g id="Group_4268" data-name="Group 4268" transform="translate(-259.253 -493.293)" clip-path="url(#clip-path-4)">
        <path id="Path_1825" data-name="Path 1825" d="M57.959-60.3H65.38v6.5H57.959Z" transform="translate(198.506 550.806)" fill="#00264d"/>
      </g>
    </g>
    <g id="Group_4271" data-name="Group 4271" transform="translate(46.136 35.078)" clip-path="url(#clip-path-82)">
      <g id="Group_4270" data-name="Group 4270" transform="translate(-270.588 -493.35)" clip-path="url(#clip-path-4)">
        <path id="Path_1828" data-name="Path 1828" d="M78.288-60.2h7.421v6.5H78.288Z" transform="translate(189.513 550.761)" fill="#00264d"/>
      </g>
    </g>
    <g id="Group_4273" data-name="Group 4273" transform="translate(40.205 33.778)" clip-path="url(#clip-path-84)">
      <g id="Group_4272" data-name="Group 4272" transform="translate(-264.657 -492.05)" clip-path="url(#clip-path-4)">
        <path id="Path_1831" data-name="Path 1831" d="M67.65-62.531h8.044v10.324H67.65Z" transform="translate(194.219 551.793)" fill="#ea7800"/>
      </g>
    </g>
    <g id="Group_4275" data-name="Group 4275" transform="translate(42.47 44.533)" clip-path="url(#clip-path-86)">
      <g id="Group_4274" data-name="Group 4274" transform="translate(-266.922 -502.805)" clip-path="url(#clip-path-4)">
        <path id="Path_1834" data-name="Path 1834" d="M71.713-43.241h9.793v6.631H71.713Z" transform="translate(192.421 543.259)" fill="#fefffe"/>
      </g>
    </g>
  </g>
</svg>
