<svg xmlns="http://www.w3.org/2000/svg" width="59.724" height="59.724" viewBox="0 0 59.724 59.724">
  <g id="Group_4276" data-name="Group 4276" transform="translate(-2819 3961.304)">
    <path id="Path_1837" data-name="Path 1837" d="M193.333,159.907l-10.427,21.34,30.973,1.917Z" transform="translate(2636.094 -4113.493)" fill="#fff"/>
    <path id="Path_1838" data-name="Path 1838" d="M211.632,267.03l21.34,10.427,1.917-30.973Z" transform="translate(2615.084 -4179.037)" fill="#fff"/>
    <path id="Path_1839" data-name="Path 1839" d="M318.755,269.74l10.427-21.34-30.973-1.917Z" transform="translate(2549.542 -4179.036)" fill="#fff"/>
    <path id="Path_1840" data-name="Path 1840" d="M321.466,141.607l-21.34-10.427-1.917,30.973Z" transform="translate(2549.542 -4092.484)" fill="#fff"/>
    <path id="Path_1841" data-name="Path 1841" d="M244.185,131.18,221.722,138.9l20.546,23.257Z" transform="translate(2607.118 -4092.484)" fill="#4683ff"/>
    <path id="Path_1842" data-name="Path 1842" d="M182.906,239.349l7.717,22.463,23.257-20.546Z" transform="translate(2636.094 -4173.231)" fill="#4683ff"/>
    <path id="Path_1843" data-name="Path 1843" d="M291.075,277.457l22.463-7.717-20.546-23.257Z" transform="translate(2555.347 -4179.037)" fill="#4683ff"/>
    <path id="Path_1844" data-name="Path 1844" d="M329.183,192.459,321.466,170l-23.257,20.546Z" transform="translate(2549.542 -4121.46)" fill="#4683ff"/>
  </g>
</svg>
