<svg xmlns="http://www.w3.org/2000/svg" viewBox="0 0 42 29">
  <g>
    <path fill="#4683ff" d="M37.41,.87c-3.28-.87-16.41-.87-16.41-.87,0,0-13.13,0-16.41,.87-1.81,.48-3.23,1.88-3.71,3.66-.88,3.23-.88,9.97-.88,9.97,0,0,0,6.74,.88,9.97,.48,1.78,1.91,3.19,3.71,3.66,3.28,.87,16.41,.87,16.41,.87,0,0,13.13,0,16.41-.87,1.81-.48,3.23-1.88,3.71-3.66,.88-3.23,.88-9.97,.88-9.97,0,0,0-6.74-.88-9.97-.48-1.78-1.91-3.19-3.71-3.66ZM16.8,20.71V8.29l10.91,6.21-10.91,6.21Z"/>
    <polygon fill="#ffffff" points="16.8 20.71 27.71 14.5 16.8 8.29 16.8 20.71"/>
  </g>
</svg>