<svg id="All" xmlns="http://www.w3.org/2000/svg" viewBox="0 0 24 24"><path fill="#FFF" d="M2,2V22H22V2ZM3,3H21V21H3ZM9,20H4V15H5v4H9ZM18.55743,8.29614a1.515,1.515,0,0,0,0-2.1402L17.844,5.44257a1.515,1.515,0,0,0-2.14019,0L14.63373,6.51263l-.71338.71344L7.21338,13.933,6.5,17.5l3.567-.71344,6.707-6.70691.71337-.71338Zm-3.9237-.35669,1.42682,1.42682-1.0044,1.0044L9.56958,15.85724l-1.78351.35669.35669-1.78351,5.48657-5.48657ZM17.844,7.58276,16.77393,8.65283,15.34711,7.22607l1.07013-1.07013a.50512.50512,0,0,1,.71338,0l.71337.71338A.50512.50512,0,0,1,17.844,7.58276Z"/></svg>