<?xml version="1.0" encoding="UTF-8"?>
<!DOCTYPE svg PUBLIC "-//W3C//DTD SVG 1.1//EN" "http://www.w3.org/Graphics/SVG/1.1/DTD/svg11.dtd">
<svg version="1.1" id="Layer_1" xmlns="http://www.w3.org/2000/svg" xmlns:xlink="http://www.w3.org/1999/xlink" x="0px" y="0px" width="32px" height="32px" viewBox="0 0 32 32" enable-background="new 0 0 32 32" xml:space="preserve">
  <g id="icon">
    <polygon points="24.5,10.5 19,10.5 19,19 13.5,19 13.5,30.5 14.6,30.5 15,30.5 18,30.5 25,30.5 30.5,30.5 30.5,22 30.5,19.3 30.5,16.5" fill="#FFFFFF" stroke-linejoin="miter"/>
    <path d="M22,15h-3v-1h3V15zM16.5,27h1.5h9.5v-1H16.5V27zM22,17h-3v1h3V17zM16.5,24h11v-1H16.5V24zM16.5,20v1h11v-1H16.5z" fill="#78797A" opacity="0.5"/>
    <path d="M24.707,10H19v1h5v6h6v3.7v1.3v8h-5h-7h-3h-1V19h-1v12h0.6h1.4h3h7h5h1v-1v-8v-1.3v-4.407L24.707,10zM25,16v-4.293L29.293,16H25z" fill="#383838"/>
    <path d="M7.624,30.255l-0.704,-0.71L9.485,27H5.417C4.084,27,3,25.916,3,24.583V19h1v5.583c0,0.781,0.635,1.417,1.417,1.417h4.072l-2.569,-2.549l0.705,-0.71l3.786,3.757L7.624,30.255z" fill="#17AB4E"/>
    <rect x="1.5" y="1.5" width="16" height="16" fill="#FFFFFF" stroke="#EE3D3B" stroke-width="1" stroke-miterlimit="1"/>
    <path d="M8.508,3.609c0.786,-0.126,0.821,0.896,0.821,1.404c0,0.66,-0.034,1.321,-0.124,1.975c-0.2,1.451,-0.663,2.896,-1.223,4.248c-0.521,1.258,-1.112,2.638,-2.142,3.567c-0.351,0.317,-1.196,0.911,-1.651,0.391c-0.468,-0.535,0.405,-1.266,0.736,-1.567c1.065,-0.966,2.384,-1.549,3.712,-2.065c1.264,-0.492,2.531,-0.858,3.846,-1.18c0.727,-0.178,1.572,-0.374,2.294,-0.067c0.289,0.123,0.581,0.319,0.652,0.643c0.082,0.375,-0.121,0.686,-0.491,0.761c-1.196,0.241,-2.565,-0.385,-3.42,-1.181c-0.989,-0.921,-2.054,-1.924,-2.743,-3.096c-0.348,-0.591,-0.603,-1.223,-0.762,-1.889C7.88,5.002,7.637,3.748,8.508,3.609z" fill="none" stroke="#EE3D3B" stroke-width="1.1" stroke-miterlimit="1"/>
  </g>
</svg>
