<?xml version="1.0" encoding="UTF-8"?>
<!DOCTYPE svg PUBLIC "-//W3C//DTD SVG 1.1//EN" "http://www.w3.org/Graphics/SVG/1.1/DTD/svg11.dtd">
<svg version="1.1" id="Layer_1" xmlns="http://www.w3.org/2000/svg" xmlns:xlink="http://www.w3.org/1999/xlink" x="0px" y="0px" width="32px" height="32px" viewBox="0 0 32 32" enable-background="new 0 0 32 32" xml:space="preserve">
  <g id="icon">
    <polygon points="24.5,10.5 19,10.5 19,19 13.5,19 13.5,30.5 14.6,30.5 15,30.5 18,30.5 25,30.5 30.5,30.5 30.5,22 30.5,19.3 30.5,16.5" fill="#FFFFFF" stroke-linejoin="miter"/>
    <path d="M22,15h-3v-1h3V15zM16.5,27h1.5h9.5v-1H16.5V27zM22,17h-3v1h3V17zM16.5,24h11v-1H16.5V24zM16.5,20v1h11v-1H16.5z" fill="#78797A" opacity="0.5"/>
    <path d="M24.707,10H19v1h5v6h6v3.7v1.3v8h-5h-7h-3h-1V19h-1v12h0.6h1.4h3h7h5h1v-1v-8v-1.3v-4.407L24.707,10zM25,16v-4.293L29.293,16H25z" fill="#383838"/>
    <path d="M7.624,30.255l-0.704,-0.71L9.485,27H5.417C4.084,27,3,25.916,3,24.583V19h1v5.583c0,0.781,0.635,1.417,1.417,1.417h4.072l-2.569,-2.549l0.705,-0.71l3.786,3.757L7.624,30.255z" fill="#17AB4E"/>
    <rect x="1.5" y="1.5" width="16" height="16" fill="#FFFFFF" stroke="#787979" stroke-width="1" stroke-miterlimit="1"/>
    <path d="M4,4.5h11M4,6.5h11M4,8.5h11M4,10.5h11M4,12.5h11M4,14.5h8" fill="none" stroke="#787979" stroke-width="1" stroke-miterlimit="1"/>
  </g>
</svg>
