<?xml version="1.0" encoding="utf-8"?>
<!-- Generator: Adobe Illustrator 26.2.1, SVG Export Plug-In . SVG Version: 6.00 Build 0)  -->
<svg version="1.1" id="Layer_1" xmlns="http://www.w3.org/2000/svg" xmlns:xlink="http://www.w3.org/1999/xlink" x="0px" y="0px"
	 viewBox="0 0 24 24" style="enable-background:new 0 0 24 24;" xml:space="preserve">
<g>
	<path fill="#7C59B6" d="M12,2C12,2,12,2,12,2C9.4,2,6.8,3.1,4.9,4.9C3,6.8,2,9.3,2,12c0,5.5,4.5,10,10,10s10-4.5,10-10S17.5,2,12,2z M12,3.6
		c2.2,0,4.3,0.8,6,2.5c1.6,1.6,2.5,3.7,2.5,6c0,2.3-0.9,4.4-2.5,6c-1.6,1.6-3.7,2.5-6,2.5c0,0,0,0,0,0c-2.3,0-4.4-0.9-6-2.5
		c-1.6-1.6-2.5-3.7-2.5-6c0-2.3,0.9-4.4,2.5-6C7.7,4.4,9.8,3.6,12,3.6z"/>
	<path fill="#7C59B6" id="Path_17831" d="M14.6,14.9c-0.2,0.4-0.4,0.7-0.6,1.1c-0.2,0.3-0.4,0.5-0.6,0.8l0,0c-0.2,0.2-0.5,0.4-0.7,0.5
		c-0.3,0.1-0.5,0.2-0.8,0.2c-0.2,0-0.4,0-0.6-0.1c-0.2-0.1-0.3-0.2-0.5-0.3c-0.1-0.1-0.2-0.3-0.3-0.5c-0.1-0.2-0.1-0.4-0.1-0.6
		c0-0.2,0-0.3,0-0.5c0-0.2,0.1-0.3,0.1-0.5c0-0.2,0.1-0.4,0.2-0.6c0.1-0.2,0.1-0.4,0.2-0.6v0l0.2-0.5c0-0.1,0.1-0.3,0.2-0.6l0,0
		c0.2-0.4,0.3-0.8,0.4-1c0.1-0.1,0.1-0.3,0.1-0.4c0,0,0-0.1,0-0.1l0,0c-0.1,0-0.1,0-0.2,0c-0.1,0-0.2,0.1-0.2,0.2
		c-0.1,0.1-0.2,0.2-0.3,0.3c-0.1,0.1-0.2,0.3-0.4,0.5c-0.1,0.1-0.2,0.2-0.3,0.2H9.7c-0.2,0-0.3-0.1-0.3-0.3c0-0.1,0-0.1,0-0.2
		c0.2-0.4,0.4-0.7,0.6-1c0.2-0.3,0.4-0.5,0.7-0.8c0.2-0.2,0.5-0.4,0.7-0.5c0.2-0.1,0.5-0.2,0.8-0.2c0.2,0,0.4,0,0.6,0.1
		c0.2,0.1,0.3,0.2,0.5,0.3c0.1,0.1,0.2,0.3,0.3,0.5c0.1,0.2,0.1,0.4,0.1,0.6c0,0.3-0.1,0.6-0.1,0.9c-0.1,0.2-0.1,0.4-0.2,0.8
		s-0.2,0.7-0.4,1.2l0,0c-0.1,0.3-0.2,0.6-0.3,0.8c-0.1,0.3-0.1,0.4-0.2,0.6c0,0.1-0.1,0.2-0.1,0.3c0,0.1,0,0.1,0,0.2
		c0,0,0,0.1,0,0.1c0,0,0,0,0,0l0,0c0,0,0,0,0,0c0,0,0.1,0,0.1,0c0.1,0,0.2-0.1,0.2-0.2c0.1-0.1,0.2-0.2,0.3-0.4
		c0.1-0.2,0.2-0.4,0.3-0.5c0.1-0.1,0.2-0.2,0.3-0.2h0.7c0.2,0,0.3,0.1,0.3,0.3C14.6,14.8,14.6,14.9,14.6,14.9 M11.8,7.7
		c0-0.2,0-0.3,0.1-0.5C11.9,7.1,12,7,12.1,6.9l0,0c0.1-0.1,0.2-0.2,0.4-0.3c0.1-0.1,0.3-0.1,0.5-0.1c0.3,0,0.6,0.1,0.8,0.3l0,0
		C13.9,7,14,7.1,14.1,7.3c0.1,0.1,0.1,0.3,0.1,0.5c0,0.3-0.1,0.6-0.4,0.8l0,0c-0.1,0.1-0.2,0.2-0.4,0.3c-0.4,0.2-1,0.1-1.3-0.3
		c-0.1-0.1-0.2-0.2-0.3-0.4C11.8,8.1,11.8,7.9,11.8,7.7"/>
</g>
</svg>
