<?xml version="1.0" encoding="utf-8"?>
<!-- Generator: Adobe Illustrator 27.0.1, SVG Export Plug-In . SVG Version: 6.00 Build 0)  -->
<svg version="1.1" id="Layer_1" xmlns="http://www.w3.org/2000/svg" xmlns:xlink="http://www.w3.org/1999/xlink" x="0px" y="0px"
	 viewBox="0 0 22 22" style="enable-background:new 0 0 22 22;" xml:space="preserve">
<g>
	<path fill="#FFFFFF" d="M11,0C4.9,0,0,4.9,0,11s4.9,11,11,11s11-4.9,11-11S17.1,0,11,0z M11,20.7c-5.4,0-9.7-4.4-9.7-9.7S5.6,1.3,11,1.3
		s9.7,4.4,9.7,9.7S16.4,20.7,11,20.7z"/>
	<path fill="#FFFFFF" d="M11,6.6c-0.4,0-0.6,0.3-0.6,0.6v9.9c0,0.4,0.3,0.6,0.6,0.6s0.6-0.3,0.6-0.6V7.2C11.6,6.9,11.4,6.6,11,6.6z"/>
	<path fill="#FFFFFF" d="M11,5.6c0.4,0,0.6-0.3,0.6-0.6c0-0.4-0.3-0.6-0.6-0.6s-0.6,0.3-0.6,0.6C10.4,5.3,10.6,5.6,11,5.6z"/>
</g>
</svg>
