<?xml version="1.0" encoding="utf-8"?>
<!-- Generator: Adobe Illustrator 26.0.3, SVG Export Plug-In . SVG Version: 6.00 Build 0)  -->
<svg version="1.1" id="Layer_1" xmlns="http://www.w3.org/2000/svg" xmlns:xlink="http://www.w3.org/1999/xlink" x="0px" y="0px"
	 viewBox="0 0 24 24" style="enable-background:new 0 0 24 24;" xml:space="preserve">
<style type="text/css">
	.st0{fill:#020202;}
</style>
<path class="st0" d="M19.9,7.4c-0.1-0.1-0.1-0.1-0.2-0.1h-3l0,0l0,0h-3.1l0,0l0,0h-3.2l0,0l0,0H7.3l0,0l0,0h-3C4.1,7.3,4,7.4,4,7.6
	v8.8c0,0.1,0,0.2,0.1,0.2c0.1,0.1,0.1,0.1,0.2,0.1h15.4c0.2,0,0.3-0.1,0.3-0.3V7.6C20,7.5,20,7.5,19.9,7.4z M19.4,16.1H4.6V7.9H7
	v1.8C7,9.9,7.1,10,7.3,10c0.2,0,0.3-0.1,0.3-0.3V7.9h2.5v3.2c0,0.2,0.1,0.3,0.3,0.3c0.2,0,0.3-0.1,0.3-0.3V7.9h2.5v1.8
	c0,0.2,0.1,0.3,0.3,0.3s0.3-0.1,0.3-0.3V7.9h2.5v3.2c0,0.2,0.1,0.3,0.3,0.3c0.2,0,0.3-0.1,0.3-0.3V7.9h2.4L19.4,16.1z"/>
</svg>
