<?xml version="1.0" encoding="utf-8"?>
<!-- Generator: Adobe Illustrator 26.2.1, SVG Export Plug-In . SVG Version: 6.00 Build 0)  -->
<svg version="1.1" id="Capa_1" xmlns="http://www.w3.org/2000/svg" xmlns:xlink="http://www.w3.org/1999/xlink" x="0px" y="0px"
	 viewBox="0 0 24 24" style="enable-background:new 0 0 24 24;" xml:space="preserve">
<g>
	<path d="M16.7,10V8.3C16.7,5.9,14.6,4,12,4S7.3,5.9,7.3,8.3V10c-1,0.1-1.8,1-1.8,2.1v5.8c0,1.2,1,2.1,2.1,2.1h8.8
		c1.2,0,2.1-1,2.1-2.1v-5.8C18.5,11,17.7,10.1,16.7,10z M7.9,8.3c0-2,1.9-3.7,4.1-3.7s4.1,1.7,4.1,3.7v1.6H7.9V8.3z M17.9,17.9
		c0,0.9-0.7,1.5-1.5,1.5H7.6c-0.9,0-1.5-0.7-1.5-1.5v-5.8c0-0.9,0.7-1.5,1.5-1.5h8.8c0.9,0,1.5,0.7,1.5,1.5V17.9z"/>
	<path d="M12,12.3c-0.7,0-1.2,0.5-1.2,1.2v1.8c0,0.7,0.5,1.2,1.2,1.2s1.2-0.5,1.2-1.2v-1.8C13.2,12.8,12.7,12.3,12,12.3z M12.6,15.3
		c0,0.3-0.3,0.6-0.6,0.6s-0.6-0.3-0.6-0.6v-1.8c0-0.3,0.3-0.6,0.6-0.6s0.6,0.3,0.6,0.6V15.3z"/>
</g>
</svg>
