<?xml version="1.0" encoding="utf-8"?>
<!-- Generator: Adobe Illustrator 26.2.1, SVG Export Plug-In . SVG Version: 6.00 Build 0)  -->
<svg version="1.1" id="Layer_1" xmlns="http://www.w3.org/2000/svg" xmlns:xlink="http://www.w3.org/1999/xlink" x="0px" y="0px"
	 viewBox="0 0 26.3 27.1" style="enable-background:new 0 0 26.3 27.1;" xml:space="preserve">
<g>
	<path fill="#FFFFFF" d="M14.3,9.1l0-1.6h-1.5v1.5H12V7.5h-1.5v1.5H8.3v1.8h1.2v8.2H8.3v1.8h2.2v1.5H12v-1.5h0.8v1.5h1.5v-1.5H15
		c1.9,0,3.4-1.5,3.4-3.4c0-1.2-0.7-2.4-1.7-3c1.1-1.5,0.9-3.6-0.6-4.7C15.6,9.4,15,9.2,14.3,9.1z M11.3,10.9H14
		c0.9,0,1.6,0.7,1.6,1.6c0,0.9-0.7,1.6-1.6,1.6h-2.7V10.9z M16.7,17.5c0,0.9-0.7,1.6-1.6,1.6h-3.8v-3.2H15
		C15.9,15.9,16.7,16.6,16.7,17.5z"/>
	<path fill="#FFFFFF" d="M26.3,13.1c0-0.9-0.7-1.6-1.6-1.6c-0.9,0-1.6,0.7-1.6,1.6c0,0.8,0.6,1.5,1.4,1.6c-0.2,6.4-5.4,11.5-11.8,11.5
		c-6.5,0-11.8-5.3-11.8-11.8C0.9,8,6,2.8,12.4,2.5c0.2,0.9,1,1.6,2,1.6v0c1.1,0,2-0.9,2-2c0,0,0,0,0,0c0-1.1-0.9-2-2-2
		c-1,0-1.8,0.7-2,1.6C5.6,1.9,0.2,7.4,0.1,14.2C0,21.3,5.7,27,12.8,27.1c7,0,12.7-5.7,12.8-12.7C26,14.2,26.3,13.7,26.3,13.1z
		 M14.3,0.9c0.6,0,1.1,0.5,1.1,1.1c0,0.6-0.5,1.1-1.1,1.1c-0.6,0-1.1-0.5-1.1-1.1C13.2,1.4,13.7,0.9,14.3,0.9z"/>
</g>
</svg>
