<svg id="Progress_Logo" data-name="Progress Logo" xmlns="http://www.w3.org/2000/svg" width="20.78" height="22.201" viewBox="0 0 20.78 22.201">
  <path id="Path_23" data-name="Path 23" d="M129.875,62.711v-6l-5.19,3Z" transform="translate(-124.685 -41.846)" fill="#fff"/>
  <path id="Path_24" data-name="Path 24" d="M137.382,50.236l-2.132-1.231-4.986-2.877a.837.837,0,0,0-.771,0l-4.423,2.55h0l-.384.224,7.5,4.333V61.9l4.421-2.551.388-.223a.866.866,0,0,0,.388-.671V50.236Z" transform="translate(-124.685 -39.702)" fill="#fff"/>
  <path id="Path_25" data-name="Path 25" d="M143.469,42.158,136.623,38.2a.852.852,0,0,0-.774,0l-.45.262-4.938,2.845,10.391,6v12l.386-.222,1.869-1.08,2.768-1.6.364-.211a.845.845,0,0,0,.383-.667l0-11.109v-.443Z" transform="translate(-125.845 -38.111)" fill="#fff"/>
</svg>
