<svg id="All" xmlns="http://www.w3.org/2000/svg" viewBox="0 0 24 24"><path fill="#7C59B6" d="M20.65918,6.98035A9.95815,9.95815,0,0,0,17.0199,3.34113,9.78168,9.78168,0,0,0,12.00031,2a9.78218,9.78218,0,0,0-5.0196,1.34113,9.95523,9.95523,0,0,0-3.6394,3.63922A9.78149,9.78149,0,0,0,2,12a9.78362,9.78362,0,0,0,1.34119,5.01953,9.96021,9.96021,0,0,0,3.63934,3.63928A9.78236,9.78236,0,0,0,12.00012,22a9.78235,9.78235,0,0,0,5.01972-1.34119A9.95581,9.95581,0,0,0,20.659,17.01953,9.78405,9.78405,0,0,0,22,12,9.78418,9.78418,0,0,0,20.65918,6.98035ZM13.15991,17.00079a.19124.19124,0,0,1-.09112.11713,1.24509,1.24509,0,0,0-.2345-.19519,1.2293,1.2293,0,0,1-.23444-.19574c-.01751-.02588-.04113-.06274-.07159-.11047q-.04569-.07169-.11719-.18885a1.31056,1.31056,0,0,1-.10394-.202c-.02155-.05646-.02356-.08893-.00659-.09735a.89021.89021,0,0,1-.71607-.14331,1.282,1.282,0,0,1-.27343-.27344.42372.42372,0,0,0-.37763-.19538q-.065.013-.17584.04554a.68018.68018,0,0,1-.18872.03247.59417.59417,0,0,1-.20844-.05219,1.67335,1.67335,0,0,1-.27984-.14959,1.85987,1.85987,0,0,0-.24079-.13654l-.16925-.09119-.20837-.10394a.63958.63958,0,0,1-.16284-.1236.413.413,0,0,1-.11054-.1759,2.49993,2.49993,0,0,1-.06506-.31256.97309.97309,0,0,0-.10419-.33844,1.17443,1.17443,0,0,0-.22137-.26032.4105.4105,0,0,0-.26032-.13049c.06952,0,.06952-.05817,0-.17572A1.32029,1.32029,0,0,0,8.35547,13.29c-.0174-.01752-.06952-.07385-.15631-.16956-.08679-.09552-.16059-.17773-.22132-.2475a1.04068,1.04068,0,0,1-.15631-.241.27631.27631,0,0,1-.02606-.22791c.00867-.00854,0-.02173-.02606-.039a.67506.67506,0,0,0-.09766-.05212q-.0585-.02581-.11053-.04553A.2562.2562,0,0,0,7.483,12.248a.98807.98807,0,0,1,.05872.18884.75075.75075,0,0,0,.07153.202q.02628.052.22137.37732a1.5334,1.5334,0,0,1,.31263.80756c-.05213.01715-.08692.00867-.10425-.02594a.47376.47376,0,0,1-.03912-.14325.81843.81843,0,0,0-.02607-.13013.48979.48979,0,0,0-.2019-.16955.4416.4416,0,0,1-.20178-.18231.0605.0605,0,0,0,.03253-.01307.06275.06275,0,0,1,.03259-.01275.44707.44707,0,0,0-.1366-.29968q-.14987-.1821-.12371-.26032a.63771.63771,0,0,1-.18238-.30591,1.14718,1.14718,0,0,0-.13025-.29321.55733.55733,0,0,0-.13012-.1366q-.0782-.05841-.19532-.13012-.11718-.0716-.15631-.09766a.50328.50328,0,0,1-.10418-.11694q-.42957-.521-.26032-.56-.16919.039-.28-.254a.8108.8108,0,0,1-.07165-.44928l-.026-.01294A1.92558,1.92558,0,0,0,5.85547,9.924a3.00971,3.00971,0,0,1,.03259-.46222q.03268-.20838.12372-.20843-.09109.013-.13666-.16266a.34863.34863,0,0,1-.00659-.241c.00867-.02606.04785-.00848.11725.05212a.66909.66909,0,0,1,.11713.11713q.16928-.09136.13024-.2345a1.78762,1.78762,0,0,0-.27349-.27343,4.83155,4.83155,0,0,0-.57288-.35163.18267.18267,0,0,0-.03918-.24737q-.13011.07818-.14972.03918a.50478.50478,0,0,1-.0326-.14325c-.0086-.06933-.03039-.1084-.065-.11706A.34421.34421,0,0,1,4.944,7.58667,8.21721,8.21721,0,0,1,8.00385,4.69586a2.09068,2.09068,0,0,1,.28637-.01294.52029.52029,0,0,1,.19525.06507,1.02731,1.02731,0,0,1,.18879.14325q.09777.09081.14978.13006A.31889.31889,0,0,0,8.759,4.78693q.02592-.0782.28644-.15631a.73746.73746,0,0,1,.39056.01306,3.42834,3.42834,0,0,0-.26031-.3255l-.06513.065q-.10418-.0911-.54687.09112c-.01721.00861-.06067.03266-.13019.0716a1.51739,1.51739,0,0,1-.16925.08459.32114.32114,0,0,1-.15631.013A7.37855,7.37855,0,0,1,9.332,4.10962a1.2765,1.2765,0,0,1,.13013.11053q.091.0846.14319.12372c-.02607-.01727-.04346-.00879-.05213.026a.33576.33576,0,0,0,0,.26032.24178.24178,0,0,0,.17578.10425.96715.96715,0,0,0,.26691-.01313,1.62455,1.62455,0,0,1,.20844-.026l.13024.01313q.41656.039.32557-.07825a.83676.83676,0,0,1,.09106.215.57755.57755,0,0,0,.11713.22791q.06517-.05228.026-.18237a.21407.21407,0,0,1,0-.18238.14856.14856,0,0,1,.07812-.05212q.06519-.0259.14978-.05847.08469-.03269.11084-.04553.0781-.05227-.10424-.18244a.905.905,0,0,0-.11054-.03906c-.05646-.01709-.10644-.03473-.14978-.052a.82674.82674,0,0,1-.13666-.07154.11129.11129,0,0,1-.06524-.10424.35235.35235,0,0,1,.07165-.14978.35448.35448,0,0,1,.25391-.05207.64566.64566,0,0,1,.2669.065q.35175.19536.10425.35162a.93572.93572,0,0,1,.31262.104q.1821.09127.14319.1955.10419-.19529.20838-.1955.065.01327.12365.176a1.07161,1.07161,0,0,0,.07142.17584c.06964.09534.13861.11713.20855.065a1.09658,1.09658,0,0,0,.21472-.2279q.1105-.1496.12366-.1366c-.08679-.03461-.09588-.0694-.02588-.10413a.41677.41677,0,0,1,.3515-.065.49528.49528,0,0,1,.10389.117q.11682.23464-.039.22143a.28407.28407,0,0,1,.09772.26044c-.01306.10412-.08069.152-.20215.14319a.462.462,0,0,1-.189-.06507.58547.58547,0,0,0-.18885-.07159.31432.31432,0,0,0-.18231.07159,1.64869,1.64869,0,0,0-.13672.22138.9984.9984,0,0,1-.14978.22131.76837.76837,0,0,1-.65118.14319q.03918,0-.00653.07819a1.50575,1.50575,0,0,1-.12372.17578q-.07818.09759-.09106.11065a.66425.66425,0,0,0-.15632.2995q0,.026-.01312.17572a.65392.65392,0,0,1-.05212.22791q.15629-.03909.24737.15631.0782.18237,0,.19543a1.53679,1.53679,0,0,1,.7555.05213q.46866.16918.53405.3385.07773-.11728.37738-.01312c.07819.04333.14734.1737.2085.39056a.84072.84072,0,0,0,.17572.3385.21347.21347,0,0,0,.267.07813l.03894-.02606c.03479-.01722.06287-.03248.08453-.04548a.5498.5498,0,0,0,.07148-.05212.1233.1233,0,0,0,.04553-.05847.05491.05491,0,0,0-.01929-.05213.47056.47056,0,0,1-.13678-.21472.27393.27393,0,0,1,.01972-.24109.87122.87122,0,0,1,.20819-.15631.47069.47069,0,0,0,.20831-.20837.22944.22944,0,0,0-.13007-.28q-.18228-.1105-.18237-.20184a.25524.25524,0,0,1,.08453-.15632.20493.20493,0,0,0,.07166-.16925.63353.63353,0,0,0-.04559-.16284.89123.89123,0,0,1-.052-.18237.19372.19372,0,0,1,.05848-.13666.80584.80584,0,0,1,.42956.00641,1.45484,1.45484,0,0,1,.443.12366,1.1488,1.1488,0,0,0,.16932.07818,1.57175,1.57175,0,0,1,.228.1106c.06476.039.10169.07574.11036.11053H15.321a.31272.31272,0,0,1,.11048.18244.13564.13564,0,0,1-.09735.15643.41047.41047,0,0,1,.20831.039q.20838.07811.01312.14319a.83294.83294,0,0,1,.11035-.02606.29963.29963,0,0,0,.11066-.039.36845.36845,0,0,0,.06494-.0456.21364.21364,0,0,1,.05866-.03894.42224.42224,0,0,1,.05865-.01312.10593.10593,0,0,1,.0777.01947c.00909,0,.02844-.02173.05871-.06506.0301-.04328.06312-.08673.09754-.13007.03485-.04333.06494-.065.09119-.065a.09868.09868,0,0,1,.07128.03241.27283.27283,0,0,1,.05219.07165c.01306.02607.02588.05433.039.08448.01306.03039.02368.05444.03247.07165a.3466.3466,0,0,0,.1236.13666.34973.34973,0,0,1,.12359.1366c.00873.02612.02576.09124.052.19555a.429.429,0,0,0,.10406.21473.508.508,0,0,0,.19519.09759.20471.20471,0,0,0,.11725-.01282.312.312,0,0,1,.14966-.01312c.0393.00855.05865.04321.05865.10413q.078-.0782.07788-.10413a.54956.54956,0,0,0,.085.27344.23115.23115,0,0,0,.22785.09106l-.02625.28656a.29037.29037,0,0,1-.19537.09748.71326.71326,0,0,0-.19543.05865.90055.90055,0,0,0-.18885.15637c-.09991.09558-.1408.152-.12359.16925a.6342.6342,0,0,0-.664-.14325,3.27933,3.27933,0,0,0-.677.15631.94707.94707,0,0,0-.28656.19526.40939.40939,0,0,0-.04541.09118c-.02173.052-.04339.09986-.06494.14319-.022.04334-.0412.065-.05853.065a.33406.33406,0,0,0,.17578-.12353.75029.75029,0,0,1,.12366-.12366.70024.70024,0,0,1,.56054-.15521q.28638.07818.091.20843c-.017.01722-.06287.02375-.13654.01954a.468.468,0,0,0-.14984.00653.68841.68841,0,0,1,.19574.07141.08442.08442,0,0,1,.03882.12365q.20818.11728.07825.26056a.47084.47084,0,0,1-.40363.14319c.02625,0,.02625.01746,0,.05206l-.22162.14325q-.02581.01273-.16919.06507a.44213.44213,0,0,0-.19537.11712.26011.26011,0,0,0-.039.1565.69466.69466,0,0,1-.01306.15631c-.00861.03491-.04346.04327-.10395.02606q-.03936.078-.241.12348a.43831.43831,0,0,0-.26685.13665.15033.15033,0,0,1-.01318.20844.16654.16654,0,0,1-.27338-.02606.18774.18774,0,0,0-.09772.13025.24155.24155,0,0,1-.09747.14318c.06091.09552.05188.16517-.02582.20838a.1795.1795,0,0,1,.05829.02606.9766.9766,0,0,1,.09778.06506.18875.18875,0,0,0,.06494.03919q-.052.11691-.14331.117.07818.20838-.19507.45575a.59786.59786,0,0,1-.163.10419c-.07416.03467-.14124.0628-.20209.08453a.42393.42393,0,0,0-.10407.0456.88059.88059,0,0,0-.19525.2409.28118.28118,0,0,0-.01971.241.29373.29373,0,0,0,.24109.15637l.01263.10407v.23431l.01312.10425q.01338.091.01972.1629a1.30215,1.30215,0,0,1,0,.18231c-.00427.07361-.02387.115-.05853.12342a.23751.23751,0,0,1-.14319-.026q-.10455-.052-.24768-.57281a.8693.8693,0,0,0-.15638-.3125.39192.39192,0,0,1-.11047.08447c-.03015.01312-.05218.01551-.06482.00659a.86678.86678,0,0,1-.07178-.05853.86419.86419,0,0,0-.09094-.07147.69208.69208,0,0,0-.228-.06494.42225.42225,0,0,1-.20172-.06507q-.31283.23475-.3778-.11688a.27519.27519,0,0,0,.00653.17578,1.02756,1.02756,0,0,1,.03265.1236q-.09109.16947-.28644.02588-.07818-.07782-.35821-.01941a.74774.74774,0,0,1-.371.01941c.00879,0,.02607.01294.05213.03912a.35708.35708,0,0,1,.05206.03888.16335.16335,0,0,1-.03918.07807.05537.05537,0,0,1-.05207.01971.1318.1318,0,0,0-.05871,0,.21827.21827,0,0,0-.0586.01935.80314.80314,0,0,0-.13012.13653.64761.64761,0,0,1-.11713.12342.85913.85913,0,0,1,.07166.319q-.00678.111-.03919.32562a2.40629,2.40629,0,0,0-.03259.34521,1.19692,1.19692,0,0,0,.12366.48163.82626.82626,0,0,0,.293.37769.77008.77008,0,0,0,.31263.06482.76.76,0,0,0,.31244-.02594.32035.32035,0,0,0,.11712-.09094.4413.4413,0,0,0,.06507-.14985q.02608-.09741.03918-.13641a.35936.35936,0,0,1,.33826-.26062.38135.38135,0,0,1,.22815.03247.11465.11465,0,0,1,.05841.12378.65631.65631,0,0,1-.05188.16272c-.02619.05652-.05866.11926-.09778.1889a.72.72,0,0,0-.07123.15656,2.16778,2.16778,0,0,0-.04553.29309,1.61068,1.61068,0,0,1-.03284.228.75823.75823,0,0,0,.19525.01281.31032.31032,0,0,1,.01966-.08459.37259.37259,0,0,0,.01941-.07147.25706.25706,0,0,0,.20849.11706.198.198,0,0,0,.2085-.10412q.02628.03909.15643.19555a.56273.56273,0,0,1,.14325.26032c.00873.035.02588.09119.05182.16955a.323.323,0,0,1,.02624.16291c-.00872.03-.05218.04541-.13018.04541a.05991.05991,0,0,0-.06494.039.17711.17711,0,0,0,0,.09753.88151.88151,0,0,0,.03247.11072.84584.84584,0,0,0,.05188.11066.24039.24039,0,0,1,.03277.07141.43865.43865,0,0,0,.638.2345q0,.37737-.18261.41638c-.06867.01721-.14655-.02661-.23334-.13056Q13.12021,17.1055,13.15991,17.00079Zm.28559,3.20227a1.04,1.04,0,0,1-.02491-.20788.47908.47908,0,0,1,.09076-.28.60171.60171,0,0,0,.10413-.26691q-.20838-.052-.15656-.3385a1.07313,1.07313,0,0,1,.37769-.52087.60118.60118,0,0,0,.15637-.625,3.59331,3.59331,0,0,1-.06525-.495,4.43438,4.43438,0,0,0-.05212-.45569c0,.02588.04114.04981.1239.07148.08246.02154.13233.04992.14966.08429a.78947.78947,0,0,0,.06512-.143.66053.66053,0,0,1,.0777-.15637.44282.44282,0,0,1,.11084-.09772,1.26863,1.26863,0,0,1,.11066-.07147,1.00178,1.00178,0,0,0,.11688-.08454c.06085-.04779.11084-.08447.15-.11053a.43252.43252,0,0,1,.15625-.05835.11139.11139,0,0,1,.13654.05835q.06537.07829-.02588.241-.09128.163,0,.22821a.97184.97184,0,0,0,.02588-.16968.31488.31488,0,0,1,.07825-.19556.29649.29649,0,0,1,.14978-.09088.1857.1857,0,0,1,.12988.01953,1.159,1.159,0,0,1,.13672.091.367.367,0,0,0,.14325.07147,1.61154,1.61154,0,0,1,.46887.28656c-.00873-.00885-.00873-.01965,0-.03284a.13661.13661,0,0,1,.05219-.03894c.02587-.01282.04962-.02588.07147-.039a.35767.35767,0,0,1,.07147-.03229l.03894-.01312a.44683.44683,0,0,0,.13007-.01312.14924.14924,0,0,1,.11059.02624.89254.89254,0,0,1,.09748.05847c.01745.01282.04772.03669.09112.07148a1.13979,1.13979,0,0,1,.09082.07806c.02625.01715.074.04773.14325.09113q.10446.06508.163.10394a.34092.34092,0,0,1,.10389.11688.25655.25655,0,0,1,.03283.16962,2.0649,2.0649,0,0,1,.3125.10394.46662.46662,0,0,0,.16291.04541.31462.31462,0,0,1,.16278.05853A8.04874,8.04874,0,0,1,13.4455,20.20306Z"/></svg>