<svg id="All" xmlns="http://www.w3.org/2000/svg" viewBox="0 0 24 24"><path fill="#7C59B6" d="M2,6V18H22V6ZM21,17H3V7H21ZM8.61839,13.49366H7.13994l-.28643.94326H6l1.44952-4.37384H8.3146l1.44373,4.37384H8.90482Zm-1.27014-.68792H8.41008l-.52079-1.71829H7.87193Zm2.981,1.63118V10.06308h1.42347a1.95465,1.95465,0,0,1,1.1602.3004,1.03527,1.03527,0,0,1,.41663.8982.97064.97064,0,0,1-.15431.54172.93685.93685,0,0,1-.45038.35948.89147.89147,0,0,1,.569.36048,1.10352,1.10352,0,0,1,.189.63986,1.15172,1.15172,0,0,1-.39927.95127,1.75661,1.75661,0,0,1-1.13126.32243Zm.84482-2.54139h.60759a.82259.82259,0,0,0,.52078-.14419.50419.50419,0,0,0,.18228-.42057.53362.53362,0,0,0-.18324-.44759.87909.87909,0,0,0-.54876-.14419h-.57865Zm0,.60681V13.761h.77829a.76449.76449,0,0,0,.5121-.1512.55861.55861,0,0,0,.17649-.4486.71547.71547,0,0,0-.15045-.48965.603.603,0,0,0-.47449-.16922Z"/></svg>