<?xml version="1.0" encoding="utf-8"?>
<!-- Generator: Adobe Illustrator 26.2.1, SVG Export Plug-In . SVG Version: 6.00 Build 0)  -->
<svg version="1.1" id="Layer_1" xmlns="http://www.w3.org/2000/svg" xmlns:xlink="http://www.w3.org/1999/xlink" x="0px" y="0px"
	 viewBox="0 0 75 101.9" style="enable-background:new 0 0 75 101.9;" xml:space="preserve">
<style type="text/css">
	.st0{enable-background:new    ;}
	.st1{fill:#FFAC3E;}
	.st2{fill:none;stroke:#FFAC3E;stroke-width:1.3;}
</style>
<g>
	<g>
		<g class="st0">
			<path class="st1" d="M14.5,73.4h2l2.3,6.2h0.1l2.3-6.2h2v8.5h-1.6v-5.8h-0.1l-2.2,5.8h-0.9l-2.2-5.8h-0.1v5.8h-1.6
				C14.5,81.9,14.5,73.4,14.5,73.4z"/>
			<path class="st1" d="M24.9,78.6L24.9,78.6c0-2.1,1.2-3.4,3.1-3.4s3.1,1.3,3.1,3.2V79h-4.4c0,1.1,0.6,1.7,1.5,1.7
				c0.8,0,1.2-0.4,1.3-0.6l0,0h1.6v0.1c-0.2,0.8-1,1.9-2.9,1.9C26.1,82,24.9,80.7,24.9,78.6z M26.6,78h2.8c-0.1-0.9-0.6-1.4-1.4-1.4
				S26.7,77.1,26.6,78z"/>
			<path class="st1" d="M32.5,72.9h1.7v8.9h-1.7V72.9z"/>
			<path class="st1" d="M35.7,78.6L35.7,78.6c0-2.1,1.2-3.4,3.2-3.4s3.2,1.3,3.2,3.4l0,0c0,2.1-1.2,3.4-3.2,3.4S35.7,80.7,35.7,78.6
				z M40.3,78.6L40.3,78.6c0-1.3-0.5-2-1.4-2s-1.4,0.8-1.4,2l0,0c0,1.3,0.5,2,1.4,2C39.8,80.6,40.3,79.9,40.3,78.6z"/>
			<path class="st1" d="M43.2,78.6L43.2,78.6c0-2.1,1-3.3,2.6-3.3c0.9,0,1.6,0.4,1.9,1.1h0.1v-3.5h1.7v8.9h-1.7v-1h-0.1
				c-0.3,0.7-1,1.1-1.9,1.1C44.2,82,43.2,80.7,43.2,78.6z M47.8,78.6L47.8,78.6c0-1.2-0.6-1.9-1.5-1.9s-1.5,0.7-1.5,1.9l0,0
				c0,1.2,0.6,1.9,1.5,1.9C47.2,80.5,47.8,79.8,47.8,78.6z"/>
			<path class="st1" d="M51.2,73.5c0-0.5,0.4-1,1-1s1,0.4,1,1c0,0.5-0.4,0.9-1,0.9S51.2,74,51.2,73.5z M51.2,75.4h1.7v6.5h-1.7V75.4
				z"/>
			<path class="st1" d="M54.3,78.6L54.3,78.6c0-2.1,1.1-3.4,3.2-3.4c1.7,0,2.7,0.9,2.9,2.4l0,0h-1.6l0,0c-0.1-0.6-0.5-1-1.3-1
				c-0.9,0-1.4,0.7-1.4,2l0,0c0,1.3,0.5,2,1.4,2c0.7,0,1.1-0.3,1.3-1l0,0h1.6l0,0c-0.2,1.4-1.2,2.3-2.9,2.3
				C55.5,82,54.3,80.8,54.3,78.6z"/>
		</g>
		<g class="st0">
			<path class="st1" d="M14.6,93.6L14.6,93.6c0-2.8,1.5-4.4,4-4.4c2,0,3.5,1.3,3.7,3.1v0.1h-1.7l0,0c-0.2-0.9-0.9-1.6-1.9-1.6
				c-1.3,0-2.2,1.1-2.2,2.9l0,0c0,1.8,0.8,2.9,2.2,2.9c1,0,1.7-0.6,1.9-1.5l0,0h1.7v0.1c-0.2,1.8-1.6,3-3.7,3
				C16.1,98.1,14.6,96.4,14.6,93.6z"/>
			<path class="st1" d="M23.9,88.9h1.7v3.5h0.1c0.3-0.7,0.9-1.1,1.9-1.1c1.4,0,2.2,0.9,2.2,2.4v4.2H28v-3.8c0-0.9-0.4-1.4-1.2-1.4
				c-0.8,0-1.3,0.6-1.3,1.4v3.7h-1.7C23.8,97.8,23.8,88.9,23.9,88.9z"/>
			<path class="st1" d="M31.2,89.5c0-0.5,0.4-1,1-1c0.6,0,1,0.4,1,1c0,0.5-0.4,0.9-1,0.9C31.6,90.4,31.2,90,31.2,89.5z M31.4,91.4
				h1.7v6.5h-1.7V91.4z"/>
			<path class="st1" d="M34.8,88.9h1.7v8.9h-1.7V88.9z"/>
			<path class="st1" d="M38.4,88.9h1.7v8.9h-1.7V88.9z"/>
			<path class="st1" d="M41.6,94.6L41.6,94.6c0-2.1,1.2-3.4,3.2-3.4s3.2,1.3,3.2,3.4l0,0c0,2.1-1.2,3.4-3.2,3.4S41.6,96.7,41.6,94.6
				z M46.2,94.6L46.2,94.6c0-1.3-0.5-2-1.4-2s-1.4,0.8-1.4,2l0,0c0,1.3,0.5,2,1.4,2S46.2,95.9,46.2,94.6z"/>
			<path class="st1" d="M49.2,95.6v-4.2h1.7v3.8c0,0.9,0.3,1.4,1.2,1.4c0.8,0,1.3-0.6,1.3-1.4v-3.7h1.7V98h-1.7v-1h-0.1
				c-0.3,0.7-0.9,1.1-1.9,1.1C50.1,98,49.2,97.1,49.2,95.6z"/>
			<path class="st1" d="M57.3,96.1v-3.4h-1v-1.3h1v-1.5h1.7v1.5h1.3v1.3h-1.3v3c0,0.6,0.2,0.8,0.8,0.8c0.2,0,0.3,0,0.5,0v1.3
				c-0.2,0-0.5,0.1-0.9,0.1C57.9,97.9,57.3,97.4,57.3,96.1z"/>
		</g>
	</g>
	<path id="Path_779" class="st2" d="M58.1,28.9c-0.2-3.6-2-6.3-3.7-9c-1.3-1.8-2.4-3.8-3-6l-0.1-0.4c-0.4-1.2-0.5-2.4-0.4-3.6
		c0.3-1-0.3-2-1.2-2.3c-1-0.3-2,0.1-2.4,1.1L33.8,40.2c-1.2-1.6-2.8-2.9-4.7-3.7c-4.8-2.1-10.2-0.6-11.8,3.3s1,8.8,5.8,10.8
		c4.9,2.1,10.2,0.6,11.9-3.3l13.1-30.9c0.8,2,1.8,3.8,3,5.6c1.5,2.3,3,4.5,3.1,7.1c0.1,1.5-0.2,3.1-0.8,4.4c-1.4,3-3.7,5.4-6.6,7
		c-0.9,0.5-1.3,1.6-0.8,2.6c0.5,0.9,1.6,1.3,2.5,0.9c3.6-1.9,6.6-5,8.4-8.7C57.8,33.3,58.2,31.1,58.1,28.9z"/>
</g>
</svg>
