<svg xmlns="http://www.w3.org/2000/svg" width="81" height="107.891" viewBox="0 0 81 107.891">
  <g id="MelodicProgressive" transform="translate(-165 -439.109)">
    <text id="Melodic_Progressive" data-name="Melodic
Progressive" transform="translate(165 510)" fill="#f85446" font-size="12" font-family="SFProText-Bold, SF Pro Text" font-weight="700"><tspan x="16.755" y="11">Melodic</tspan><tspan x="4.755" y="27">Progressive</tspan></text>
    <path id="Path_779" data-name="Path 779" d="M95.415,15.45c-1.5-3.07-4.068-4.793-6.553-6.458A18.526,18.526,0,0,1,84.019,4.9L83.8,4.6a8.063,8.063,0,0,1-1.69-3.034A1.841,1.841,0,0,0,80.176,0a1.816,1.816,0,0,0-1.694,1.814V34.27a10.536,10.536,0,0,0-5.463-1.493c-5.019,0-9.106,3.267-9.106,7.285S68,47.346,73.019,47.346s9.106-3.267,9.106-7.285V8.3a26.325,26.325,0,0,0,4.709,3.715c2.182,1.461,4.243,2.841,5.311,5.03a8.55,8.55,0,0,1,.911,4.181,14.864,14.864,0,0,1-3.191,8.523,1.819,1.819,0,1,0,2.732,2.4,18.588,18.588,0,0,0,4.094-10.7A12.088,12.088,0,0,0,95.415,15.45Z" transform="translate(123.65 488.355) rotate(-30)" fill="none" stroke="#f85446" stroke-width="1.3"/>
  </g>
</svg>
