<?xml version="1.0" encoding="UTF-8"?>
<svg id="Lamp" xmlns="http://www.w3.org/2000/svg" xmlns:xlink="http://www.w3.org/1999/xlink" viewBox="0 0 750 500">
  <defs>
    <linearGradient id="linear-gradient" x1="408.5403" y1="413.2309" x2="408.5403" y2="91.6039" gradientUnits="userSpaceOnUse">
      <stop offset="0" stop-color="#fff" stop-opacity="0"/>
      <stop offset=".6032" stop-color="#ffc662" stop-opacity=".6134"/>
      <stop offset="1" stop-color="#ffa300"/>
    </linearGradient>
  </defs>
  <g>
    <rect x="310.0905" y="95.1391" width="107.5623" height="158.3814" transform="translate(207.0329 -197.4162) rotate(41.5263)" style="fill: #f5f5f5;"/>
    <g style="opacity: .3;">
      <polygon points="345.9544 223.0092 339.623 223.6208 334.5405 179.0057 340.8718 178.3941 345.9544 223.0092" style="fill: #3a439d;"/>
      <polygon points="361.9436 195.6754 362.673 202.0776 318.5514 206.3397 317.822 199.9375 361.9436 195.6754" style="fill: #3a439d;"/>
    </g>
    <path d="M405.3565,141.9663c-.1045,.1179-8.3055-6.9739-18.3153-15.8379-10.0132-8.8671-18.0432-16.1485-17.9386-16.2665,.1044-.1178,8.3036,6.9725,18.3168,15.8395,10.0097,8.864,18.0415,16.1472,17.9371,16.2649Z" style="fill: #e0e0e0;"/>
    <path d="M421.6816,171.6759c-.1045,.118-13.6551-11.7112-30.2624-26.4177-16.6131-14.7116-29.9917-26.7294-29.8872-26.8472,.1044-.1179,13.6521,11.7087,30.2652,26.4203,16.6072,14.7065,29.9887,26.7269,29.8844,26.8447Z" style="fill: #e0e0e0;"/>
    <path d="M413.8224,180.551c-.1045,.1179-13.655-11.7112-30.2624-26.4177-16.6131-14.7117-29.9916-26.7294-29.8871-26.8473,.1044-.1179,13.6521,11.7087,30.2652,26.4204,16.6072,14.7065,29.9886,26.7268,29.8843,26.8446Z" style="fill: #e0e0e0;"/>
    <path d="M405.9632,189.4259c-.1045,.1179-13.6551-11.7112-30.2624-26.4177-16.6131-14.7116-29.9917-26.7294-29.8872-26.8472,.1044-.118,13.6521,11.7086,30.2652,26.4203,16.6072,14.7065,29.9887,26.7269,29.8844,26.8447Z" style="fill: #e0e0e0;"/>
    <path d="M398.104,198.3009c-.1045,.118-13.655-11.7111-30.2624-26.4177-16.6131-14.7116-29.9916-26.7294-29.8871-26.8472,.1044-.1179,13.6521,11.7087,30.2652,26.4203,16.6072,14.7066,29.9886,26.7268,29.8843,26.8446Z" style="fill: #e0e0e0;"/>
  </g>
  <g>
    <polygon points="272.4196 279.6595 271.1462 287.5401 215.3678 279.5046 216.6413 271.624 272.4196 279.6595" style="fill: #e0e0e0;"/>
    <polygon points="244.3289 251.5465 252.3329 252.6996 243.4586 307.6175 235.4545 306.4645 244.3289 251.5465" style="fill: #e0e0e0;"/>
  </g>
  <g>
    <rect x="155.6649" y="144.9847" width="115.835" height="170.5627" transform="translate(-91.968 157.6103) rotate(-33.7769)" style="fill: #7c60c1; opacity: .1;"/>
    <path d="M191.2043,178.2102c.0686,.1025-9.5802,6.6766-21.5484,14.6817-11.9725,8.0078-21.7305,14.4142-21.7992,14.3116-.0686-.1025,9.5782-6.6752,21.5507-14.6831,11.9683-8.005,21.7284-14.4128,21.7969-14.3102Z" style="fill: #7259b1;"/>
    <path d="M226.6125,169.3218c.0686,.1026-15.9766,10.955-35.8334,24.2363-19.8637,13.286-36.0168,23.9697-36.0854,23.8671-.0686-.1025,15.9732-10.9526,35.8369-24.2386,19.8569-13.2814,36.0134-23.9674,36.0819-23.8649Z" style="fill: #7259b1;"/>
    <path d="M233.7101,179.9333c.0686,.1026-15.9766,10.955-35.8334,24.2363-19.8637,13.2861-36.0168,23.9698-36.0854,23.8672-.0686-.1025,15.9732-10.9526,35.8369-24.2386,19.8568-13.2814,36.0133-23.9674,36.0818-23.865Z" style="fill: #7259b1;"/>
    <path d="M240.8077,190.5449c.0686,.1026-15.9766,10.955-35.8335,24.2363-19.8637,13.286-36.0167,23.9697-36.0854,23.8671-.0686-.1025,15.9732-10.9526,35.8369-24.2386,19.8568-13.2814,36.0133-23.9674,36.0819-23.8649Z" style="fill: #7259b1;"/>
    <path d="M247.9053,201.1564c.0686,.1025-15.9766,10.9549-35.8334,24.2363-19.8637,13.286-36.0168,23.9697-36.0854,23.8671-.0686-.1025,15.9732-10.9526,35.8369-24.2386,19.8569-13.2814,36.0134-23.9674,36.0819-23.8649Z" style="fill: #e0e0e0;"/>
  </g>
  <rect x="394.1717" width="2.5832" height="43.9829" style="opacity: .2;"/>
  <g>
    <rect x="579.542" y="191.6124" width="97.6333" height="143.7615" transform="translate(115.1166 -184.6651) rotate(18.3771)" style="fill: #f5f5f5;"/>
    <polygon points="626.5858 305.0923 620.8191 294.961 630.9164 289.4404 628.9841 286.0457 618.8868 291.5662 613.1201 281.4348 609.7367 283.2846 615.5034 293.416 605.4061 298.9365 607.3385 302.3312 617.4357 296.8107 623.2025 306.9422 626.5858 305.0923" style="fill: #7c60c1; opacity: .3;"/>
    <path d="M675.6602,240.6495c-.0391,.1175-15.5648-4.9345-34.6732-11.2825-19.115-6.3502-34.5741-11.5918-34.5351-11.7093,.039-.1175,15.5614,4.9334,34.6765,11.2837,19.1085,6.348,34.5708,11.5906,34.5318,11.7082Z" style="fill: #e0e0e0;"/>
    <path d="M672.2678,250.861c-.039,.1177-15.5648-4.9344-34.6732-11.2825-19.1151-6.3502-34.5741-11.5918-34.5351-11.7093,.0391-.1175,15.5614,4.9334,34.6765,11.2837,19.1084,6.3481,34.5707,11.5907,34.5318,11.7081Z" style="fill: #e0e0e0;"/>
    <path d="M668.8754,261.0726c-.0391,.1175-15.5647-4.9344-34.6731-11.2825-19.1151-6.3503-34.5742-11.5918-34.5351-11.7093,.0389-.1175,15.5614,4.9334,34.6764,11.2837,19.1085,6.348,34.5709,11.5907,34.5318,11.7082Z" style="fill: #e0e0e0;"/>
    <path d="M665.483,271.2842c-.0391,.1176-15.5647-4.9345-34.6732-11.2825-19.1151-6.3503-34.5742-11.5918-34.535-11.7093,.0389-.1175,15.5613,4.9334,34.6764,11.2837,19.1084,6.3481,34.5709,11.5907,34.5318,11.7082Z" style="fill: #e0e0e0;"/>
  </g>
  <path d="M663.6665,439.8284c0,.1439-129.2508,.2605-288.6526,.2605s-288.6804-.1166-288.6804-.2605c0-.1437,129.2231-.2603,288.6804-.2603s288.6526,.1166,288.6526,.2603Z" style="fill: #263238;"/>
  <g>
    <path d="M143.2075,405.2257c2.9105-2.5491,6.9925-3.5054,10.8436-3.1321,3.8509,.3733,7.4961,1.9679,10.7847,4.0061,6.3627,3.9438,11.3413,10.9764,14.767,17.6323-7.6205,3.323-16.8565,.5463-21.4532-1.1567-7.2655-2.6916-18.7619-11.9681-14.9421-17.3497" style="fill: #88d2dd;"/>
    <path d="M193.8137,422.4027c-4.2288-.8922-7.6489-4.4461-8.8673-8.5929-1.2182-4.1467-.3893-8.7423,1.752-12.4966,.9901-1.7359,2.4364-3.4337,4.4075-3.7631,1.8427-.308,3.7263,.7158,4.8524,2.2065,1.1263,1.4905,1.6043,3.3739,1.8249,5.2291,.7565,6.3624,.3205,12.6582-3.9695,17.4171" style="fill: #88d2dd;"/>
    <path d="M210.9924,439.4197c-.0237,.0304-.4773-.2795-1.2843-.8548-.8869-.6378-2.0329-1.4618-3.4095-2.4516-2.8237-2.1021-6.9131-5.0209-10.1041-9.4986-3.1957-4.4399-4.798-9.2968-5.0452-12.8647-.1475-1.7837-.0501-3.2367,.1081-4.2209,.0584-.4953,.1686-.8698,.2203-1.1261,.0609-.2548,.1016-.3863,.1199-.3827,.1287,.0118-.4584,2.1837-.0666,5.6916,.3403,3.4923,1.9639,8.2211,5.1047,12.5874,3.1236,4.3879,7.1265,7.3273,9.8933,9.5074,1.4021,1.0831,2.5383,1.9615,3.3069,2.5901,.769,.6279,1.1788,.9944,1.1564,1.0229Z" style="fill: #263238;"/>
    <path d="M152.5862,411.5166c.0074-.0172,.2261,.0577,.6358,.2162,.4603,.1854,1.0508,.4231,1.7815,.7175,1.5433,.6319,3.7645,1.5747,6.4991,2.7629,5.4697,2.3751,12.9807,5.7626,21.1888,9.6893,8.2097,3.9307,15.56,7.6557,20.8407,10.4257,2.6409,1.3842,4.7682,2.5224,6.2283,3.328,.6873,.3845,1.2429,.6953,1.6759,.9373,.3804,.2197,.5759,.343,.5671,.3595s-.2213-.0745-.618-.2627c-.4451-.2189-1.0163-.4996-1.723-.8472-1.5495-.7799-3.6884-1.8566-6.3054-3.1739-5.3233-2.6812-12.6955-6.3493-20.8999-10.2775-8.2028-3.9239-15.683-7.3643-21.1104-9.828-2.6674-1.2117-4.8478-2.2022-6.4275-2.9198-.7139-.3325-1.2911-.6013-1.7408-.8107-.3955-.1908-.5997-.2994-.5923-.3165Z" style="fill: #263238;"/>
    <path d="M193.2708,434.1351c-8.7445-2.5618-18.6935-.5601-25.767,5.1839-1.8012,1.4628-3.5628,3.653-2.8916,5.8741,.6723,2.225,3.3672,3.0732,5.6858,3.2378,9.6465,.6843,19.4284-5.111,23.462-13.9004" style="fill: #88d2dd;"/>
    <path d="M174.315,441.4196c-.0235-.029,.3655-.3662,1.0925-.9535,.3616-.2962,.8062-.6569,1.3661-1.0151,.5583-.3581,1.1595-.8261,1.9017-1.215,.7289-.4113,1.5188-.8808,2.424-1.273,.8813-.4445,1.8672-.8152,2.9079-1.1995,2.0971-.7142,4.4779-1.3064,7.0294-1.567,2.5541-.2367,5.0063-.1231,7.202,.1846,1.0939,.1881,2.1336,.3627,3.0807,.6436,.9623,.2211,1.8239,.5417,2.6132,.8211,.8001,.251,1.4717,.6121,2.0829,.8705,.6132,.2568,1.1113,.5397,1.5162,.7734,.8135,.4605,1.2523,.7295,1.2336,.762-.0566,.1086-1.8312-.967-4.9604-2.0443-.7874-.2526-1.6433-.5481-2.5957-.7465-.9374-.2585-1.9637-.4131-3.0409-.5851-2.1631-.275-4.5698-.3715-7.0786-.1395-2.506,.2561-4.8474,.8231-6.9202,1.5-1.0284,.3654-2.0058,.7145-2.8827,1.1355-.9005,.3686-1.6901,.8129-2.4224,1.1978-2.8944,1.6072-4.4776,2.9445-4.5492,2.8499Z" style="fill: #263238;"/>
  </g>
  <path d="M298.9584,234.544l-35.361,181.799-4.6292,23.7994,236.0632-1.1647c10.5938-.0522,19.983-9.4589,23.3915-23.4349l41.8592-171.6368c2.5875-10.6095-3.0904-21.6445-11.1325-21.6361l-238.9229,.2514c-5.2753,.0055-9.8881,4.9272-11.2683,12.0227Z" style="fill: #e8505b;"/>
  <g style="opacity: .5;">
    <path d="M298.9584,234.544l-35.361,181.799-4.6292,23.7994,236.0632-1.1647c10.5938-.0522,19.983-9.4589,23.3915-23.4349l41.8592-171.6368c2.5875-10.6095-3.0904-21.6445-11.1325-21.6361l-238.9229,.2514c-5.2753,.0055-9.8881,4.9272-11.2683,12.0227Z" style="fill: #6e2932;"/>
  </g>
  <path d="M472.3871,404.0258l-24.9936-201.4077c-1.0242-8.2525-7.5981-14.4085-15.3597-14.3831l-54.8063,.1792c-4.0565,.0133-7.9454,1.7376-10.8268,4.8005l-26.0247,27.6647-152.4261,.7951c-9.3146,.0486-16.4708,8.8623-15.2363,18.7654l23.2059,186.1526c1.0273,8.2406,7.5888,14.3887,15.3398,14.3734l265.6468-.5249c29.5869,.6131,32.4113-8.1249,32.4113-8.1249-33.9073,7.5146-36.927-28.2671-36.9303-28.2903Z" style="fill: #dc5163;"/>
  <g>
    <circle cx="323.4222" cy="332.5896" r="36" style="fill: #fff; opacity: .5;"/>
    <polygon points="345.0127 347.1156 328.6455 332.3917 343.455 316.4861 337.9706 311.5524 323.1612 327.4579 306.794 312.734 301.8317 318.0637 318.1988 332.7876 303.3894 348.6932 308.8737 353.6269 323.6831 337.7213 340.0504 352.4452 345.0127 347.1156" style="fill: #fff;"/>
  </g>
  <path d="M354.7448,91.6178h82.8192l290.9763,321.6131H88.5403S354.7448,89.1658,354.7448,91.6178Z" style="fill: url(#linear-gradient); opacity: .3;"/>
  <g>
    <path d="M335.2328,97.1886h120.461s-11.1221-53.2335-61.1434-53.2335c-44.492,0-59.3176,53.2335-59.3176,53.2335Z" style="fill: #5ba1a8;"/>
    <rect x="394.1717" width="2.5832" height="43.9829" style="fill: #88d2dd;"/>
  </g>
  <g>
    <g>
      <path d="M530.4933,131.0193c-.9884-.6035-1.598-1.7379-1.4756-2.968l1.5504-15.4085c.0961-.9697,.6426-1.8375,1.4738-2.3442,.8315-.5076,1.853-.5955,2.7592-.2379,2.3769,.9361,5.1691,.7917,7.66-.3976,2.2922-1.0935,3.9925-2.946,4.6642-5.0836,.6713-2.1294,.3443-4.6404-.8957-6.8908-1.3285-2.4085-3.5423-4.2223-5.9355-4.8519-4.8847-1.2885-10.7965,1.743-12.9085,6.6209-.6822,1.576-2.5124,2.3008-4.0884,1.6186-1.6008-.6997-2.3011-2.5138-1.6187-4.0898,3.319-7.6671,12.3816-12.2274,20.2042-10.1634,4.0551,1.0701,7.6303,3.9369,9.7925,7.8628,2.0582,3.7315,2.561,8.0176,1.383,11.7613-1.1883,3.7769-4.0735,6.9955-7.9183,8.8292-2.7782,1.3258-5.8194,1.8388-8.7402,1.5217l-1.1923,11.8771c-.1728,1.7091-1.6973,2.9548-3.4064,2.7819-.4801-.0487-.9222-.2024-1.3077-.4377Z" style="fill: #7c60c1;"/>
      <path d="M534.1024,137.9261c-.1048,1.401-1.3255,2.4518-2.7265,2.3472-1.401-.1048-2.4521-1.3255-2.3471-2.7267,.1048-1.401,1.3255-2.4519,2.7265-2.3472s2.4519,1.3257,2.3471,2.7267Z" style="fill: #7c60c1;"/>
    </g>
    <path d="M505.6981,77.3694c.0111,.0121,.2371-.1559,.6661-.4942,.4593-.3692,1.0863-.8711,1.8904-1.5165,.7964-.7112,1.8995-1.4288,3.1994-2.2781,.6591-.4084,1.3177-.9362,2.1134-1.3413,.7896-.4178,1.6279-.8622,2.515-1.333,3.5975-1.7532,8.2291-3.5403,13.8153-4.3384,5.5614-.809,12.0494-.6143,18.7229,1.2903,3.3714,.8524,6.6648,2.3904,9.9722,4.1481,3.1805,1.9624,6.4283,4.1667,9.209,7.0824,1.5007,1.348,2.7282,2.9932,4.068,4.5787,.661,.8008,1.1852,1.7155,1.7916,2.5777,.5985,.8698,1.1937,1.7516,1.6633,2.7211,2.1867,3.6963,3.6569,7.941,4.6597,12.3838,2.0274,8.9053,1.0355,19.1025-3.2217,28.41-2.127,4.6592-5.2405,8.9846-9.0022,12.7377-3.6892,3.8392-8.2418,6.9346-13.1809,9.194l-1.5176,.6584-.2004,.0872-.0761,.1926c-3.1147,7.8945-6.1693,15.6358-9.1292,23.1378l.8559-.0544c-3.0296-6.8113-5.9678-13.4154-8.7864-19.7515l-.1088-.2443-.2728-.0043c-7.7949-.1237-15.1163-2.2586-21.2542-5.6954-6.1556-3.4483-11.0616-8.2154-14.679-13.3962-3.6276-5.1891-5.9106-10.8446-7.0536-16.3226-1.1524-5.4875-1.1785-10.785-.553-15.5154,.6712-4.7449,2.1053-8.8633,3.5719-12.3563,1.6426-3.4268,3.3449-6.2227,4.9426-8.3494,.8174-1.0427,1.5444-1.9695,2.1784-2.7773,.6939-.7315,1.2844-1.3535,1.7732-1.8684,.4527-.4837,.8096-.8647,1.0792-1.1526,.2394-.2625,.3574-.4005,.3484-.4102-.0085-.0092-.1431,.1107-.4011,.3554-.2828,.2756-.6569,.6397-1.1328,1.1036-.5055,.5034-1.1168,1.112-1.8344,1.8279-.6536,.8005-1.4035,1.7179-2.2466,2.7506-1.6452,2.1147-3.4019,4.9115-5.1006,8.3573-1.5212,3.5111-3.0119,7.6669-3.7299,12.4671-.6734,4.7859-.6843,10.1571,.4509,15.7321,1.1254,5.5652,3.4124,11.3223,7.0742,16.6113,3.6511,5.2785,8.619,10.1447,14.8725,13.6744,6.235,3.5178,13.6883,5.7139,21.636,5.855l-.3815-.2485c2.8091,6.3406,5.7364,12.949,8.7565,19.766l.4412,.9967,.415-1.0505c2.9645-7.501,6.0231-15.2405,9.1419-23.1331l-.2758,.2789,1.551-.6719c5.049-2.3091,9.7026-5.4778,13.4726-9.4024,3.8421-3.8373,7.0195-8.2646,9.188-13.0272,4.341-9.5146,5.3239-19.917,3.2376-28.9823-1.0322-4.5232-2.5452-8.8385-4.7806-12.5932-.4826-.9834-1.0901-1.8784-1.7018-2.7615-.6197-.8751-1.1569-1.8027-1.8315-2.6143-1.3683-1.6073-2.6238-3.2725-4.1531-4.6361-2.8388-2.9495-6.1487-5.1774-9.3895-7.1504-3.3681-1.7698-6.7198-3.3094-10.146-4.1548-6.7829-1.8903-13.3614-2.0383-18.9841-1.1694-5.6478,.8569-10.3121,2.7146-13.9169,4.533-.887,.4873-1.7268,.9479-2.5159,1.3818-.7947,.4201-1.4513,.9629-2.1064,1.3862-1.2934,.8791-2.3849,1.6247-3.1663,2.3623-.782,.6766-1.3915,1.2053-1.8386,1.5917-.4099,.3615-.6147,.5525-.604,.5642Z" style="fill: #263238;"/>
  </g>
</svg>