<?xml version="1.0" encoding="UTF-8"?><svg id="Layer_2" xmlns="http://www.w3.org/2000/svg" viewBox="0 0 15.36 12.2"><defs><style>.cls-1{fill:#fff;}</style></defs><g id="First_Look"><g><path class="cls-1" d="M10.62,6.1c0-.23-.19-.42-.42-.42H5.15c-.23,0-.42,.19-.42,.42s.19,.42,.42,.42h5.05c.23,0,.42-.19,.42-.42Z"/><path class="cls-1" d="M14.97,2.31c.25-.25,.38-.59,.38-.95,0-.75-.61-1.36-1.36-1.36h-1.74c-.62,0-1.2,.24-1.63,.68l-2.56,2.56c-.2,.2-.55,.2-.75,0L4.74,.68c-.44-.44-1.02-.68-1.63-.68H1.36C.61,0,0,.61,0,1.36c0,.35,.14,.69,.38,.95-.25,.25-.38,.59-.38,.95s.14,.69,.38,.95c-.25,.25-.38,.59-.38,.95s.14,.69,.38,.95c-.25,.25-.38,.59-.38,.95s.14,.69,.38,.95c-.25,.25-.38,.59-.38,.95s.14,.69,.38,.95c-.25,.25-.38,.59-.38,.95,0,.75,.61,1.36,1.36,1.36h1.74c.62,0,1.2-.24,1.63-.68l2.56-2.56c.2-.2,.55-.2,.75,0l2.56,2.56c.44,.44,1.02,.68,1.63,.68h1.74c.75,0,1.36-.61,1.36-1.36,0-.35-.14-.69-.38-.95,.25-.25,.38-.59,.38-.95s-.14-.69-.38-.95c.25-.25,.38-.59,.38-.95s-.14-.69-.38-.95c.25-.25,.38-.59,.38-.95s-.14-.69-.38-.95c.25-.25,.38-.59,.38-.95s-.14-.69-.38-.95ZM3.1,11.37H1.36c-.29,0-.53-.24-.53-.53s.24-.53,.53-.53c.23,0,.42-.19,.42-.42s-.19-.42-.42-.42c-.29,0-.53-.24-.53-.53s.24-.53,.53-.53c.23,0,.42-.19,.42-.42s-.19-.42-.42-.42c-.29,0-.53-.24-.53-.53s.24-.53,.53-.53c.23,0,.42-.19,.42-.42s-.19-.42-.42-.42c-.29,0-.53-.24-.53-.53s.24-.53,.53-.53c.23,0,.42-.19,.42-.42s-.19-.42-.42-.42c-.29,0-.53-.24-.53-.53s.24-.53,.53-.53c.23,0,.42-.19,.42-.42s-.19-.42-.42-.42c-.29,0-.53-.24-.53-.53s.24-.53,.53-.53h1.74c.4,0,.77,.15,1.05,.43l2.56,2.56c.26,.26,.6,.4,.96,.4h0c.36,0,.71-.14,.96-.4l2.56-2.56c.28-.28,.65-.43,1.05-.43h1.74c.29,0,.53,.24,.53,.53s-.24,.53-.53,.53c-.23,0-.42,.19-.42,.42s.19,.42,.42,.42c.29,0,.53,.24,.53,.53s-.24,.53-.53,.53c-.23,0-.42,.19-.42,.42s.19,.42,.42,.42c.29,0,.53,.24,.53,.53s-.24,.53-.53,.53c-.23,0-.42,.19-.42,.42s.19,.42,.42,.42c.29,0,.53,.24,.53,.53s-.24,.53-.53,.53c-.23,0-.42,.19-.42,.42s.19,.42,.42,.42c.29,0,.53,.24,.53,.53s-.24,.53-.53,.53c-.23,0-.42,.19-.42,.42s.19,.42,.42,.42c.29,0,.53,.24,.53,.53s-.24,.53-.53,.53h-1.74c-.4,0-.77-.15-1.05-.43l-2.56-2.56c-.26-.26-.6-.4-.96-.4s-.71,.14-.96,.4l-2.56,2.56c-.28,.28-.65,.43-1.05,.43Z"/></g></g></svg>