<svg id="All" xmlns="http://www.w3.org/2000/svg" viewBox="0 0 24 24"><path fill="#7C59B6" d="M21.99805,11.52441a3.60952,3.60952,0,0,0-3.721-3.4956q-.16142.00531-.3233.01452.07608-.14328.14917-.28839a3.62626,3.62626,0,0,0-1.59137-4.85876A3.59965,3.59965,0,0,0,12.01007,3.942a3.60744,3.60744,0,0,0-6.10242,3.7962q.07251.14493.14862.28845-.16149-.00924-.32342-.01507a3.6164,3.6164,0,0,0-.25665,7.22821q.1614.00576.32354.00775-.08569.1377-.16845.27746a3.62718,3.62718,0,0,0,1.25628,4.95661,3.59788,3.59788,0,0,0,4.94025-1.26044q.08249-.13924.16205-.28107.07927.14154.16174.28156a3.593,3.593,0,0,0,4.93677,1.274,3.6272,3.6272,0,0,0,1.26984-4.95313q-.08212-.13953-.16791-.27759.16177-.00183.32373-.0072A3.61562,3.61562,0,0,0,21.99805,11.52441Zm-4.899,2.53418-1.27551-.08838.76605,1.0271a12.67622,12.67622,0,0,1,.75952,1.14325h.00006a2.44793,2.44793,0,0,1-.85693,3.34278,2.42816,2.42816,0,0,1-3.33185-.8598,13.694,13.694,0,0,1-.63983-1.223l-.5351-1.16485-.53015,1.16711a12.70788,12.70788,0,0,1-.63489,1.21747,2.42807,2.42807,0,0,1-3.3341.85059,2.448,2.448,0,0,1-.84784-3.34516,13.64314,13.64314,0,0,1,.76208-1.15027l.76148-1.03021-1.275.09375a12.58779,12.58779,0,0,1-1.36926.0257A2.44064,2.44064,0,0,1,5.691,9.18652,13.535,13.535,0,0,1,7.0625,9.305L8.329,9.48071,7.63489,8.40344A12.68555,12.68555,0,0,1,6.955,7.21069,2.44729,2.44729,0,0,1,8.0379,3.93457a2.42887,2.42887,0,0,1,3.26538,1.08655c.05426.10846.10987.22418.175.36413l.53089,1.14063.53094-1.14063c.06531-.14038.12079-.25543.17456-.36224A2.43425,2.43425,0,1,1,17.057,7.22455a13.64607,13.64607,0,0,1-.68183,1.19989l-.68957,1.08008,1.26562-.181a12.58394,12.58394,0,0,1,1.36438-.11969,2.43589,2.43589,0,0,1,2.51117,2.35907,2.44,2.44,0,0,1-2.35126,2.51959A13.53,13.53,0,0,1,17.09906,14.05859ZM13.5213,11.74878A1.52131,1.52131,0,1,1,12,10.22247,1.52381,1.52381,0,0,1,13.5213,11.74878Z"/></svg>