<svg id="All" xmlns="http://www.w3.org/2000/svg" viewBox="0 0 24 24"><path fill="#7C59B6" d="M9.85645,14.90961a25.25654,25.25654,0,0,0-2.85254,1.384c-.5484.29187-1.551,1.10754-.62989,1.53882a1.86674,1.86674,0,0,0,1.5434,0,3.38653,3.38653,0,0,0,.68616-.39148,3.85623,3.85623,0,0,0,.56256-.48755A10.93585,10.93585,0,0,0,10.45526,15.28a30.21123,30.21123,0,0,1,4.57044-1.36408,2.27945,2.27945,0,0,0,2.43524.491c.81854-.31525.68152-1.25281-.25257-1.26446a5.1654,5.1654,0,0,0-1.8399.075c-.26428-.25788-.50983-.53436-.736-.7923-.73175-.98675-1.40454-1.99921-2.03669-3.03277a8.51234,8.51234,0,0,0,.21033-2.686c-.13879-.68439-.53552-.7431-.92761-.69269-.36853.04694-.57123.16992-.74066.69269a4.29432,4.29432,0,0,0,.228,2.19147c.09552.23907.2215.47107.33106.70782a8.79519,8.79519,0,0,1-.24854,1.06867A22.57918,22.57918,0,0,1,9.85645,14.90961Zm-.66163,1.13684a2.82668,2.82668,0,0,1-2.1,1.37115c-.28192-.66809.873-1.04187,1.4104-1.3443.29413-.12884.5935-.24841.89068-.37018C9.3255,15.81793,9.26923,15.93506,9.19482,16.04645Zm7.06488-2.31812c.32868-.00348.59247.06922.5279.33289a2.3673,2.3673,0,0,1-.747-.313C16.11377,13.74249,16.18817,13.72833,16.2597,13.72833ZM11.75549,6.725c.09961-.18744.35566.01178.351.26019-.0036.24963-.05042.80749-.2602.96326A2.11927,2.11927,0,0,1,11.75549,6.725Zm.54438,4.022a11.54549,11.54549,0,0,0,2.14337,2.68121c-.2572.0622-.51917.122-.77167.17585-.93579.25549-1.85407.55786-2.75458.89306A16.16914,16.16914,0,0,0,12.29987,10.74707ZM19.5,17.87109a1.8335,1.8335,0,1,0,1.833,1.833A1.83507,1.83507,0,0,0,19.5,17.87109Zm0,2.667a.8335.8335,0,1,1,.833-.834A.8346.8346,0,0,1,19.5,20.53809Zm3.751-2.13379h-.39942a3.59556,3.59556,0,0,0-.54687-.94727l.2041-.34082a.74671.74671,0,0,0,.08008-.57031.73485.73485,0,0,0-.35059-.459l-.95605-.55371a.77249.77249,0,0,0-1.01465.26758l-.21.34961a3.667,3.667,0,0,0-1.10352-.002l-.1875-.3291a.77427.77427,0,0,0-1.02832-.28125l-.95215.5498a.75309.75309,0,0,0-.27832,1.01758l.19434.3418a3.615,3.615,0,0,0-.55371.957H15.749a.74977.74977,0,0,0-.749.749v1.10156a.74978.74978,0,0,0,.749.749h.40137a3.56587,3.56587,0,0,0,.55762.96191l-.207.377a.74856.74856,0,0,0,.28418,1.00489l.94433.54394a.76972.76972,0,0,0,1.04-.2832l.19141-.34863a3.64028,3.64028,0,0,0,1.08984-.002l.21094.36133A.74711.74711,0,0,0,20.91309,24a.77926.77926,0,0,0,.377-.10059l.94922-.5498a.75243.75243,0,0,0,.27636-1.02441l-.21386-.36817a3.62282,3.62282,0,0,0,.5498-.95312H23.251a.74978.74978,0,0,0,.749-.749V19.15332A.74977.74977,0,0,0,23.251,18.4043ZM23,20.00391h-.89453l-.09961.37109a2.59167,2.59167,0,0,1-.67285,1.166l-.27246.27148.46289.7959-.51856.30078-.46289-.79492-.36914.09765a2.61194,2.61194,0,0,1-1.34375,0l-.3789-.10058-.4336.791-.51855-.29882.4375-.79688-.26563-.26465a2.58214,2.58214,0,0,1-.67383-1.166l-.09863-.37207H16V19.4043h.89453l.09961-.3711a2.58336,2.58336,0,0,1,.67285-1.165l.27051-.26953-.43652-.76855.51953-.30078.43554.76758.374-.10157a2.6082,2.6082,0,0,1,1.34277,0l.36426.09864.46191-.76856.51856.29981-.46094.7666.27637.27636a2.595,2.595,0,0,1,.67285,1.165l.09961.3711H23ZM14.42212,21a4.96779,4.96779,0,0,0,.60052,1H2V2H22V15.02264a4.96779,4.96779,0,0,0-1-.60052V3H3V21Z"/></svg>