<svg id="All" xmlns="http://www.w3.org/2000/svg" viewBox="0 0 24 24"><path fill="#7C59B6" d="M6.374,17.83246a1.86674,1.86674,0,0,0,1.5434,0,3.38571,3.38571,0,0,0,.68615-.39148,3.85575,3.85575,0,0,0,.56257-.48754A10.93689,10.93689,0,0,0,10.45528,15.28a30.21027,30.21027,0,0,1,4.57043-1.36407,2.27949,2.27949,0,0,0,2.43525.491c.81854-.31524.68151-1.2528-.25257-1.26445a5.1654,5.1654,0,0,0-1.8399.075c-.26428-.25787-.50983-.53436-.736-.79229-.73175-.98675-1.40454-1.99926-2.03668-3.03282a8.51254,8.51254,0,0,0,.21033-2.686c-.13879-.68438-.53552-.7431-.92761-.69268-.36853.04693-.57123.16992-.74066.69268a4.29413,4.29413,0,0,0,.228,2.19145c.09552.23908.2215.47107.33106.70782a8.80044,8.80044,0,0,1-.24854,1.06872,22.57808,22.57808,0,0,1-1.59192,4.23527,25.25814,25.25814,0,0,0-2.85254,1.384C6.45552,16.58552,5.4529,17.40119,6.374,17.83246Zm9.88568-4.1041c.32868-.00348.59247.06921.5279.33288a2.36728,2.36728,0,0,1-.747-.313C16.11379,13.74252,16.18819,13.72836,16.25972,13.72836ZM11.75551,6.72505c.09961-.18744.35565.01178.351.26019-.0036.24963-.05041.80749-.26019.96325A2.11923,2.11923,0,0,1,11.75551,6.72505Zm.54437,4.02207a11.54611,11.54611,0,0,0,2.14338,2.68119c-.25721.0622-.51917.122-.77167.17584-.93579.2555-1.85407.55786-2.75458.89306A16.16843,16.16843,0,0,0,12.29988,10.74712Zm-3.79467,5.3262c.29412-.12885.5935-.24842.89068-.37018-.07037.11481-.12665.23193-.20105.34332a2.82674,2.82674,0,0,1-2.1,1.37115C6.81288,16.74952,7.96779,16.37574,8.50521,16.07332ZM22,22H2V2H22ZM3,21H21V3H3Z"/></svg>