<?xml version="1.0" encoding="utf-8"?>
<!-- Generator: Adobe Illustrator 27.2.0, SVG Export Plug-In . SVG Version: 6.00 Build 0)  -->
<svg version="1.1" id="Group_278" xmlns="http://www.w3.org/2000/svg" xmlns:xlink="http://www.w3.org/1999/xlink" x="0px" y="0px"
	 viewBox="0 0 26 26" style="enable-background:new 0 0 26 26;" xml:space="preserve">
<style type="text/css">
	.st0{fill:#2AA1D1;}
	.st1{fill:#F9C553;}
	.st2{fill:#61BCA6;}
</style>
<g>
	<path class="st0" d="M23.4,7l-5.2,3c0.5,0.9,0.8,1.9,0.8,3c0,0,0,0,0,0c0,1.1-0.3,2.1-0.8,3c-1,1.8-3,3-5.2,3v6
		c4.4,0,8.3-2.4,10.4-6c1-1.8,1.6-3.8,1.6-6c0,0,0,0,0,0C25,10.8,24.4,8.8,23.4,7z"/>
	<path class="st1" d="M13,1C8.6,1,4.7,3.4,2.6,7l5.2,3c1-1.8,3-3,5.2-3s4.2,1.2,5.2,3l5.2-3C21.3,3.4,17.4,1,13,1L13,1z"/>
	<path class="st2" d="M7.8,16C7.3,15.1,7,14.1,7,13c0,0,0,0,0,0c0-1.1,0.3-2.1,0.8-3L2.6,7C1.6,8.8,1,10.8,1,13c0,0,0,0,0,0
		c0,2.2,0.6,4.2,1.6,6c2.1,3.6,5.9,6,10.4,6v-6C10.8,19,8.8,17.8,7.8,16L7.8,16z"/>
</g>
</svg>
