<?xml version="1.0" encoding="UTF-8"?><svg id="Layer_2" xmlns="http://www.w3.org/2000/svg" viewBox="0 0 19.97 14.4"><defs><style>.cls-1{fill:#fff;}</style></defs><g id="First_Look"><g><path class="cls-1" d="M19.97,6.44c0-1.25-1.01-2.26-2.26-2.26s-2.26,1.01-2.26,2.26c0,.07,0,.14,0,.21h-1.39c-.06-.13-.14-.26-.24-.4-.25-.33-.62-.5-1.07-.7-.33-.15-.69-.31-1.06-.58-.28-.2-.46-.48-.72-.87-.41-.62-.97-1.48-2.31-2.54C6.49-.16,3.62,0,3.31,.01,1.42,.03,0,3.12,0,7.2c0,3.87,1.28,6.88,3.04,7.16h.06c.08,.02,.17,.02,.25,.03,.11,0,.26,0,.44,0,1.11,0,3.22-.16,4.86-1.23,1.34-.88,1.91-1.59,2.32-2.11,.26-.33,.43-.54,.7-.7,.37-.22,.75-.36,1.08-.48,.43-.16,.8-.3,1.05-.57,.03-.03,.06-.07,.09-.1l1.56,.07c.03,1.06,.9,1.9,1.96,1.9s1.97-.88,1.97-1.96c0-.35-.09-.69-.27-.99,.54-.43,.86-1.08,.86-1.77Zm-1.74,1.22c-.15,.06-.25,.2-.28,.35-.03,.16,.03,.32,.15,.42,.22,.2,.34,.48,.34,.77,0,.57-.46,1.03-1.03,1.03s-1.03-.46-1.03-1.03c0-.09,.01-.18,.03-.26,.04-.14,0-.28-.07-.39-.08-.11-.21-.18-.36-.19l-1.77-.08-.02-.68h1.84c.16,0,.3-.08,.39-.21s.1-.29,.04-.44c-.06-.16-.1-.33-.1-.5,0-.73,.59-1.32,1.32-1.32s1.32,.59,1.32,1.32c0,.53-.31,1.01-.8,1.22Zm-4.77,.53l-.2,.07v.11c-.01,.09-.04,.17-.15,.29-.1,.11-.41,.22-.7,.33-.35,.13-.78,.29-1.23,.55-.43,.25-.69,.58-.97,.93-.39,.49-.88,1.11-2.1,1.91-.94,.62-2.11,.89-3.06,1,.99-1.26,1.59-3.56,1.59-6.18s-.59-4.87-1.56-6.15c.92,.15,2.05,.5,3,1.25,1.22,.97,1.71,1.72,2.11,2.32,.29,.44,.53,.81,.96,1.11,.45,.32,.9,.52,1.24,.67,.31,.14,.59,.26,.69,.4,.17,.23,.17,.33,.17,.54,0,.07,0,.13,0,.2v.47s0,.1,0,.17h.2Zm-7.75-1c0,1.73-.28,3.36-.8,4.57-.44,1.03-1.02,1.66-1.54,1.68h-.17c-.52-.09-1.05-.7-1.47-1.68-.52-1.21-.8-2.84-.8-4.57s.28-3.36,.8-4.57c.45-1.05,1.04-1.68,1.59-1.68s1.14,.63,1.59,1.68c.52,1.21,.8,2.84,.8,4.57Z"/><path class="cls-1" d="M3.04,6.57c-.68,0-1.19,.78-1.19,1.81s.51,1.81,1.19,1.81,1.19-.78,1.19-1.81-.51-1.81-1.19-1.81Zm.25,1.81c0,.53-.2,.84-.23,.88-.08-.04-.28-.35-.28-.88,0-.49,.17-.79,.25-.87,.09,.08,.25,.38,.25,.87Z"/><path class="cls-1" d="M2.13,3.67s.08,.02,.13,.02c.21,0,.39-.14,.45-.34,.2-.69,.75-.93,.81-.96,.24-.09,.36-.36,.27-.6-.04-.12-.13-.21-.24-.26-.11-.05-.24-.06-.35-.01-.01,0-1.04,.38-1.38,1.58-.03,.12-.02,.25,.04,.36,.06,.11,.16,.19,.28,.22Z"/></g></g></svg>