<svg xmlns="http://www.w3.org/2000/svg" xmlns:xlink="http://www.w3.org/1999/xlink" width="12.999" height="11.406" viewBox="0 0 12.999 11.406">
  <defs>
    <clipPath id="clip-path">
      <rect id="Rectangle_21345" data-name="Rectangle 21345" width="12.999" height="11.406" transform="translate(0 0)"/>
    </clipPath>
  </defs>
  <g id="Group_21108" data-name="Group 21108" transform="translate(0 0)">
    <g fill="#99000000" id="Group_20993" data-name="Group 20993" clip-path="url(#clip-path)">
      <path id="Path_17848" data-name="Path 17848" d="M3.78.473V.231H3.569L3.559.222A.818.818,0,0,0,3.506.158C3.489.145,3.467.141,3.449.129A.657.657,0,0,0,3.323.063.664.664,0,0,0,3.184.018C3.164.015,3.146,0,3.126,0a.682.682,0,0,0-.079.008A.581.581,0,0,0,2.964,0C2.94,0,2.921.017,2.9.022A.7.7,0,0,0,2.78.059a.657.657,0,0,0-.142.073C2.621.143,2.6.146,2.586.158a.691.691,0,0,0-.05.06L2.521.231H2.312V.472L.163,3.147a.734.734,0,0,0,.11,1.031.737.737,0,0,0,.461.163.729.729,0,0,0,.572-.274L2.312,2.816v8.355H3.78V2.816l1,1.25a.734.734,0,1,0,1.145-.919Z"/>
      <path id="Path_17849" data-name="Path 17849" d="M12.726,7.222a.739.739,0,0,0-1.033.112L10.688,8.585V.231H9.22V8.586L8.214,7.334a.725.725,0,0,0-.49-.269.735.735,0,0,0-.654,1.19L9.22,10.93v.241h.212l.006,0a.391.391,0,0,0,.059.07.615.615,0,0,0,.094.053.878.878,0,0,0,.079.044.74.74,0,0,0,.285.064.72.72,0,0,0,.28-.064.6.6,0,0,0,.083-.045.641.641,0,0,0,.1-.054.578.578,0,0,0,.06-.071h.214V10.93l2.151-2.677a.737.737,0,0,0-.113-1.031"/>
    </g>
  </g>
</svg>
