<svg xmlns="http://www.w3.org/2000/svg" width="26.742" height="17.657" viewBox="0 0 26.742 17.657">
  <style>.st0{fill:#FFAC3E;}</style>
  <path id="Path_2" class="st0" data-name="Path 2" d="M13.135-6.983a9.221,9.221,0,0,1-.687,3.727A5.76,5.76,0,0,1,10.521-.81l2.666,2.092L11.843,2.522,8.7.021A6.405,6.405,0,0,1,7.137.205,5.706,5.706,0,0,1,4.009-.661,5.726,5.726,0,0,1,1.892-3.133,8.861,8.861,0,0,1,1.118-6.85V-7.926a9.126,9.126,0,0,1,.749-3.8,5.706,5.706,0,0,1,2.117-2.528,5.682,5.682,0,0,1,3.133-.877,5.781,5.781,0,0,1,3.174.872A5.622,5.622,0,0,1,12.4-11.756a9.209,9.209,0,0,1,.738,3.82Zm-1.969-.964a6.775,6.775,0,0,0-1.051-4.066,3.5,3.5,0,0,0-3-1.43,3.469,3.469,0,0,0-2.927,1.42,6.557,6.557,0,0,0-1.1,3.943v1.1a6.756,6.756,0,0,0,1.072,4.04A3.473,3.473,0,0,0,7.137-1.466,3.48,3.48,0,0,0,10.09-2.856a6.666,6.666,0,0,0,1.077-3.984ZM24.415-3.9H18.16L16.755,0h-2.03l5.7-14.93h1.723L27.86,0H25.84Zm-5.66-1.62H23.83L21.287-12.5Z" transform="translate(-1.118 15.135)"/>
</svg>
