<svg xmlns="http://www.w3.org/2000/svg" width="76" height="76" viewBox="0 0 76 76">
  <g id="RatingRetaurantLogo" transform="translate(-133 -41)">
    <g id="Group_4439" data-name="Group 4439">
      <g id="Group_1436" data-name="Group 1436" transform="translate(153.558 61.558)">
        <path id="Path_2722" data-name="Path 2722" d="M77.95,20.928l2.02-.129h.011a4.746,4.746,0,0,0,3.545-2.092l1.6-2.368a9.639,9.639,0,0,0,1.516-7.011,2.17,2.17,0,0,0-.688-1.253,2.127,2.127,0,0,0-1.313-.54,9.387,9.387,0,0,0-6.7,2.362L75.8,11.782a4.833,4.833,0,0,0-1.629,3.809s0,.007,0,.011l.115,2.042a2.893,2.893,0,0,1-.791,2.154L56.82,37.114a2.465,2.465,0,0,0-.649,1.818,2.927,2.927,0,0,0,.938,2.03,2.86,2.86,0,0,0,1.885.707q.111,0,.222-.009a2.415,2.415,0,0,0,1.71-.872l15-18.806A2.835,2.835,0,0,1,77.95,20.928Zm-2.822.4-15,18.8a1.4,1.4,0,0,1-.992.491,1.82,1.82,0,0,1-1.34-.439A1.862,1.862,0,0,1,57.2,38.89a1.425,1.425,0,0,1,.36-1.052L74.234,20.523a3.945,3.945,0,0,0,1.08-2.938L75.2,15.547a3.79,3.79,0,0,1,1.278-2.981l2.134-1.886a8.374,8.374,0,0,1,5.976-2.106,1.1,1.1,0,0,1,.679.279,1.121,1.121,0,0,1,.356.647,8.593,8.593,0,0,1-1.351,6.25l-1.6,2.368A3.723,3.723,0,0,1,79.9,19.76l-2.014.129A3.866,3.866,0,0,0,75.128,21.326Z" transform="translate(-51.982 -7.073)"/>
        <path id="Path_2723" data-name="Path 2723" d="M305.2,299.356l-12.414-11.307a.572.572,0,1,0-.771.846l12.41,11.3a1.557,1.557,0,0,1,.472,1.132,1.955,1.955,0,0,1-2.028,2.028,1.556,1.556,0,0,1-1.129-.469l-11.062-12.144a.572.572,0,1,0-.846.771L300.9,303.664a2.69,2.69,0,0,0,1.95.839h.06a3.1,3.1,0,0,0,3.134-3.195A2.693,2.693,0,0,0,305.2,299.356Z" transform="translate(-271.471 -269.908)"/>
        <path id="Path_2724" data-name="Path 2724" d="M6.9,16.564a5.3,5.3,0,0,0,3.464,1.4h.012l2.247.007a3.156,3.156,0,0,1,2.309,1.018l.99,1.086a.572.572,0,1,0,.846-.771l-.991-1.088a4.306,4.306,0,0,0-3.149-1.391l-2.241-.007a4.157,4.157,0,0,1-2.685-1.074L1.194,8.006a.2.2,0,0,1,.291-.267l5.927,5.927a1.5,1.5,0,0,0,2.125,0l.7-.7h0l1.237-1.237h0l.7-.7a1.5,1.5,0,0,0,0-2.125L6.24,2.983a.2.2,0,0,1,.267-.291L14.248,9.2a4.155,4.155,0,0,1,1.075,2.685l.007,2.241a4.309,4.309,0,0,0,1.392,3.151l1.061.966a.572.572,0,1,0,.771-.846l-1.059-.965a3.158,3.158,0,0,1-1.02-2.31l-.007-2.247s0-.008,0-.012a5.3,5.3,0,0,0-1.4-3.464.577.577,0,0,0-.052-.05L7.244,1.817A1.342,1.342,0,0,0,5.431,3.792L11.358,9.72a.359.359,0,0,1,0,.507l-.292.292L4.46,3.913a.572.572,0,1,0-.809.809l6.606,6.606-.428.428L3.223,5.15a.572.572,0,0,0-.809.809L9.02,12.565l-.292.292a.359.359,0,0,1-.507,0L2.294,6.93a1.341,1.341,0,0,0-1.9,0A1.334,1.334,0,0,0,.318,8.742l6.536,7.769A.536.536,0,0,0,6.9,16.564Z" transform="translate(-0.001 -1.499)"/>
      </g>
      <g id="Ellipse_40" data-name="Ellipse 40" transform="translate(133 41)" fill="none" stroke="#000" stroke-width="2">
        <circle cx="38" cy="38" r="38" stroke="none"/>
        <circle cx="38" cy="38" r="37" fill="none"/>
      </g>
    </g>
  </g>
</svg>
