<svg xmlns="http://www.w3.org/2000/svg" width="82" height="108.965" viewBox="0 0 82 108.965">
  <g id="RemoteWork" transform="translate(-23 -477.035)">
    <text id="Remote_Work_Request" data-name="Remote Work
Request" transform="translate(23 548)" fill="#0e88f2" font-size="12" font-family="SFProText-Bold, SF Pro Text" font-weight="700"><tspan x="0.77" y="11">Remote Work</tspan><tspan x="16.215" y="27">Request</tspan></text>
    <g id="Group_1420" data-name="Group 1420" transform="translate(19.021 461.035)">
      <path id="Path_2612" data-name="Path 2612" d="M71.962,65.232q0-.062,0-.124a3.933,3.933,0,0,0-3.929-3.929V43.009l3.536-2.652a.982.982,0,0,0-.01-1.579l-8.437-6.165V21.893a.982.982,0,0,0,.982-.982V16.982A.982.982,0,0,0,63.125,16H53.3a.982.982,0,0,0-.982.982v3.929a.982.982,0,0,0,.982.982v3.543l-7.278-5.318a.982.982,0,0,0-1.159,0L19.33,38.779a.982.982,0,0,0-.01,1.579l3.536,2.652v18.17a3.933,3.933,0,0,0-3.929,3.929q0,.061,0,.124a3.929,3.929,0,0,0,.98,7.734H70.982a3.929,3.929,0,0,0,.98-7.734ZM54.286,17.964h7.857v1.964H54.286Zm.982,8.839V21.893h5.893v9.285L55.175,26.8Zm-9.822-4.677L69.332,39.582,67.045,41.3,46.024,26.009a.982.982,0,0,0-1.156,0L23.847,41.3l-2.287-1.715Zm-27.5,46.909a1.967,1.967,0,0,1,1.935-1.964h0c.05.007.1.013.152.016a.982.982,0,0,0,.985-1.316,1.931,1.931,0,0,1-.127-.665,1.967,1.967,0,0,1,1.964-1.964V71H19.91A1.967,1.967,0,0,1,17.946,69.037ZM60.178,71H48.393V49.393H60.178Zm1.964,0V48.411a.982.982,0,0,0-.982-.982H47.41a.982.982,0,0,0-.982.982V71H24.821V43.019l20.625-15,20.625,15V71Zm8.839,0H68.036V63.144A1.967,1.967,0,0,1,70,65.108a1.929,1.929,0,0,1-.127.666.982.982,0,0,0,.985,1.316c.051,0,.1-.009.152-.016h0A1.964,1.964,0,1,1,70.982,71Z" transform="translate(0)" fill="#0e88f2"/>
      <path id="Path_2613" data-name="Path 2613" d="M132.768,272H120.982a.982.982,0,0,0-.982.982v13.75a.982.982,0,0,0,.982.982h11.786a.982.982,0,0,0,.982-.982v-13.75A.982.982,0,0,0,132.768,272Zm-.982,6.875h-3.929v-4.911h3.929Zm-5.893-4.911v4.911h-3.929v-4.911Zm-3.929,6.875h3.929v4.911h-3.929Zm5.893,4.911v-4.911h3.929v4.911Z" transform="translate(-91.251 -224.571)" fill="#0e88f2"/>
      <circle id="Ellipse_118" data-name="Ellipse 118" cx="0.982" cy="0.982" r="0.982" transform="translate(50.357 58.233)" fill="#0e88f2"/>
    </g>
  </g>
</svg>
