<svg id="All" xmlns="http://www.w3.org/2000/svg" viewBox="0 0 24 24"><path fill="#7C59B6" d="M2,2V22H22V2ZM21,21H3V3H21ZM11.855,6.84863h-.61523V5.7207h.58593a.91392.91392,0,0,1,.55518.14063.5119.5119,0,0,1,.186.43652.484.484,0,0,1-.18457.41016A.85606.85606,0,0,1,11.855,6.84863ZM7.91309,6.06055l.52734,1.67578H7.36523l.53028-1.67578Zm4.65966,1.54492a.68072.68072,0,0,1,.15235.47754.53482.53482,0,0,1-.17871.4375.79476.79476,0,0,1-.51856.14746h-.78808V7.44043h.85254A.62391.62391,0,0,1,12.57275,7.60547ZM20,4H4v7H20ZM8.94141,9.32715l-.29-.91992H7.1543l-.29.91992H6L7.46777,5.06152h.876L9.80566,9.32715Zm4.23193-.31445a1.8273,1.8273,0,0,1-1.14551.31445H10.38428V5.06152h1.4414a2.03674,2.03674,0,0,1,1.17481.293.99614.99614,0,0,1,.42187.876.92146.92146,0,0,1-.15674.52832.94166.94166,0,0,1-.45556.35059.90541.90541,0,0,1,.57568.35156,1.04834,1.04834,0,0,1,.1919.624A1.10467,1.10467,0,0,1,13.17334,9.0127Zm4.46582-2.4834h-.832a.93.93,0,0,0-.20215-.64551.80438.80438,0,0,0-.62988-.22461.7132.7132,0,0,0-.60938.31152,1.3223,1.3223,0,0,0-.22558.79492v.85157a1.28542,1.28542,0,0,0,.2373.80078.86379.86379,0,0,0,1.23486.09668.93874.93874,0,0,0,.1919-.64063h.8291l.00586.01758a1.38974,1.38974,0,0,1-.42041,1.09278,1.68749,1.68749,0,0,1-1.19971.40429,1.66521,1.66521,0,0,1-1.251-.49512,1.7536,1.7536,0,0,1-.48047-1.27441V6.77246a1.78483,1.78483,0,0,1,.46875-1.27441A1.59731,1.59731,0,0,1,15.9751,5a1.77255,1.77255,0,0,1,1.23633.40527A1.39044,1.39044,0,0,1,17.645,6.51172Z"/></svg>