<svg id="All" xmlns="http://www.w3.org/2000/svg" viewBox="0 0 24 24"><path fill="#7C59B6" d="M1,6V18H23V6Zm5.44141,7.76562-.29-.91992H4.6543l-.29.91992H3.5L4.96777,9.5h.876l1.46191,4.26562ZM15,17H9V7h6Zm7,0H16V7h6ZM5.41309,10.499l.52734,1.67578H4.86523L5.39551,10.499Zm7.876,2.95215a1.10464,1.10464,0,0,0,.4043-.92773,1.04839,1.04839,0,0,0-.1919-.624.90546.90546,0,0,0-.57568-.35156.94161.94161,0,0,0,.45557-.35058.92154.92154,0,0,0,.15674-.52832.99613.99613,0,0,0-.42188-.876,2.03672,2.03672,0,0,0-1.1748-.293H10.5v4.26562h1.64355A1.82728,1.82728,0,0,0,13.28906,13.45117Zm-1.93359-3.292h.58594a.91391.91391,0,0,1,.55517.14062.51189.51189,0,0,1,.186.43653.484.484,0,0,1-.18457.41015.85612.85612,0,0,1-.52735.14063h-.61523Zm0,1.71973H12.208a.62391.62391,0,0,1,.48047.165.68076.68076,0,0,1,.15234.47753.53482.53482,0,0,1-.17871.4375.79468.79468,0,0,1-.51856.14747h-.78808Zm6.625,1.51464A1.75364,1.75364,0,0,1,17.5,12.11914v-.84668A1.78483,1.78483,0,0,1,17.96875,9.998,1.59731,1.59731,0,0,1,19.1875,9.5a1.77255,1.77255,0,0,1,1.23633.40527,1.39044,1.39044,0,0,1,.43359,1.10645l-.00586.01758h-.832a.93.93,0,0,0-.20215-.64551.80436.80436,0,0,0-.62988-.22461.71322.71322,0,0,0-.60938.31152,1.3223,1.3223,0,0,0-.22558.79492v.85157a1.28542,1.28542,0,0,0,.2373.80078.86381.86381,0,0,0,1.23487.09668.93874.93874,0,0,0,.19189-.64063h.8291l.00586.01758a1.3897,1.3897,0,0,1-.42041,1.09278,1.68747,1.68747,0,0,1-1.1997.40429A1.66522,1.66522,0,0,1,17.98047,13.39355Z"/></svg>