<?xml version="1.0" encoding="utf-8"?>
<!-- Generator: Adobe Illustrator 26.3.1, SVG Export Plug-In . SVG Version: 6.00 Build 0)  -->
<svg version="1.1" id="Layer_1" xmlns="http://www.w3.org/2000/svg" xmlns:xlink="http://www.w3.org/1999/xlink" x="0px" y="0px"
	 viewBox="0 0 22 22" style="enable-background:new 0 0 22 22;" xml:space="preserve">
<path id="Path_17833" fill="#fff" d="M12.2,22H9.7c-0.5,0-1-0.4-1.1-0.9l-0.4-2.3c-0.3-0.1-0.7-0.2-1-0.4l-1.9,1.3c-0.4,0.3-1,0.2-1.4-0.1
	l-1.8-1.8c-0.4-0.4-0.4-0.9-0.1-1.4l1.3-1.9c-0.2-0.3-0.3-0.6-0.4-1l-2.3-0.4C0.4,13.2,0,12.7,0,12.2V9.7c0-0.5,0.4-1,0.9-1.1
	l2.3-0.4c0.1-0.3,0.2-0.7,0.4-1L2.2,5.4C1.9,5,2,4.4,2.4,4.1l1.8-1.8C4.5,2,5.1,1.9,5.5,2.2l1.9,1.3c0.3-0.2,0.6-0.3,1-0.4l0.4-2.3
	C8.8,0.4,9.2,0,9.7,0h2.5c0.5,0,1,0.4,1,0.9l0.4,2.3c0.3,0.1,0.6,0.2,1,0.4l1.9-1.4c0.4-0.3,1-0.3,1.4,0.1l1.8,1.8
	C20,4.5,20.1,5,19.8,5.5l-1.3,1.9c0.1,0.3,0.3,0.6,0.4,0.9l2.3,0.4C21.6,8.8,22,9.2,22,9.7v2.5c0,0.5-0.4,1-0.9,1l-2.3,0.4
	c-0.1,0.3-0.2,0.6-0.4,0.9l1.4,1.9c0.3,0.4,0.3,1-0.1,1.4l-1.8,1.8c-0.4,0.4-0.9,0.4-1.4,0.1l-1.9-1.3c-0.3,0.2-0.6,0.3-1,0.4
	l-0.4,2.3C13.2,21.6,12.7,22,12.2,22 M9.9,20.8h2.2l0.5-2.9l0.4-0.1c0.5-0.1,1-0.3,1.4-0.6l0.3-0.2l2.4,1.7l1.6-1.6L17,14.7l0.2-0.3
	c0.2-0.4,0.4-0.9,0.6-1.4l0.1-0.4l2.9-0.5V9.9l-2.9-0.5L17.7,9c-0.1-0.5-0.3-1-0.6-1.4L17,7.3l1.7-2.4l-1.6-1.6L14.7,5l-0.3-0.2
	c-0.5-0.2-0.9-0.4-1.4-0.6l-0.4-0.1l-0.5-2.9H9.9L9.4,4.1L9,4.2c-0.5,0.1-1,0.3-1.4,0.6L7.3,5L4.9,3.3L3.3,4.9L5,7.3L4.8,7.6
	C4.6,8,4.4,8.5,4.2,9L4.1,9.4L1.2,9.9v2.2l2.9,0.5L4.2,13c0.1,0.5,0.3,1,0.6,1.4L5,14.7l-1.7,2.4l1.6,1.6L7.3,17l0.3,0.2
	C8,17.4,8.5,17.6,9,17.8l0.4,0.1L9.9,20.8z M17.3,18.8L17.3,18.8 M20.8,9.7L20.8,9.7z M3.2,4.7L3.2,4.7z M17.2,3.2L17.2,3.2
	 M11,14.8c-2.1,0-3.8-1.7-3.8-3.8c0-2.1,1.7-3.8,3.8-3.8c2.1,0,3.8,1.7,3.8,3.8C14.8,13.1,13.1,14.8,11,14.8 M11,8.5
	c-1.4,0-2.5,1.1-2.5,2.5s1.1,2.5,2.5,2.5s2.5-1.1,2.5-2.5c0,0,0,0,0,0C13.5,9.6,12.4,8.5,11,8.5"/>
</svg>
