<svg xmlns="http://www.w3.org/2000/svg" width="75" height="97" viewBox="0 0 75 97">
  <g id="TimeOff" transform="translate(-366 -477)">
    <text id="Time_Off_Leave" data-name="Time Off 
&amp; Leave" transform="translate(366 543)" fill="#ffac3e" font-size="12" font-family="SFProText-Bold, SF Pro Text" font-weight="700"><tspan x="11.481" y="11">Time Off </tspan><tspan x="14.033" y="27">&amp; Leave</tspan></text>
    <g id="Group_948" data-name="Group 948" transform="translate(357 458)">
      <path id="Path_1145" data-name="Path 1145" d="M71.216,82.247H57.364c.193-7.147.782-12.56,1.752-16.108a2.078,2.078,0,0,0,2.222-.817c3.213-.391,4.935,1.752,7.148,5.04a.783.783,0,0,0,1.431-.5,13.272,13.272,0,0,0-2.476-6.571,25.78,25.78,0,0,1,3.383,1.728.781.781,0,0,0,1.067-1.072c-.121-.2-3.006-4.974-7.169-5.386a6.058,6.058,0,0,0-3.907.99,6.044,6.044,0,0,0-.694-4.034c-2.1-3.617-7.669-4.252-7.9-4.277a.78.78,0,0,0-.537,1.412,20.274,20.274,0,0,1,3.556,2.95c-3.572-1.374-8.047.713-8.289.826a.78.78,0,0,0,.289,1.482,25.648,25.648,0,0,1,3.781.436,13.3,13.3,0,0,0-5.725,4.095.781.781,0,0,0,.912,1.2c4.029-1.658,6.664-2.469,9.283.263a.778.778,0,0,0,.278.185,2.1,2.1,0,0,0,.179.174c-2.415,5.048-3.681,12.37-4.331,17.974H19.783a.78.78,0,1,0,0,1.56H51.443c-.122,1.185-.226,2.362-.309,3.493q-.37-.039-.743-.041H47.121A7.433,7.433,0,0,0,40.1,92.238a.782.782,0,0,0,.74,1.035H63.3a.78.78,0,0,0,.739-1.036,6.354,6.354,0,0,0-6-4.254h-.76c0-1.515.014-2.893.042-4.176h13.89a.78.78,0,1,0,0-1.56ZM57.34,62.132a.551.551,0,0,1,.345.13.762.762,0,0,0,.066.8.556.556,0,1,1-.411-.928Zm2.281,2.513a.557.557,0,1,1,.559-.557.558.558,0,0,1-.559.557h0Zm2.087-.928a2.092,2.092,0,0,0-.442-.953c.089-.02.181-.045.268-.062a5.278,5.278,0,0,1,2.443.055l.037.009a5.771,5.771,0,0,1,3.438,3.616,6.865,6.865,0,0,0-5.746-2.665Zm2.855-3.6a6.55,6.55,0,0,1,3.565,1.768,7.986,7.986,0,0,0-3.889-.665,6.9,6.9,0,0,0-3-.05l-.01,0a4.751,4.751,0,0,1,3.332-1.055Zm-5.8-3.811a5.418,5.418,0,0,1-.008,4.82,2.118,2.118,0,0,0-.76-.439,7.3,7.3,0,0,0,.141-2.517.372.372,0,0,0-.007-.038l0-.021a7.17,7.17,0,0,0-2.46-4.313,6.517,6.517,0,0,1,3.1,2.507ZM56.6,58.553a5.032,5.032,0,0,1,.015.828,6.441,6.441,0,0,0-1.8-.989,7.957,7.957,0,0,0-3.57-1.59c1.876-.251,4.044-.034,5.355,1.751ZM49.27,60.919a5.773,5.773,0,0,1,4.914-1.1,5.146,5.146,0,0,1,1.909,1.162,2.123,2.123,0,0,0-.671.809,6.91,6.91,0,0,0-6.152-.873Zm-2.147,27.9h3.271a5.874,5.874,0,0,1,5.064,2.9h-13.4a5.874,5.874,0,0,1,5.064-2.9Zm14.935,2.9H57.206a7.373,7.373,0,0,0-1.454-2.171h2.293a4.792,4.792,0,0,1,4.011,2.169ZM55.3,87.985a6.31,6.31,0,0,0-1.4.159,7.425,7.425,0,0,0-1.22-.524c.1-1.444.242-2.986.408-4.507.618-5.616,1.872-13.261,4.338-18.315.065,0,.128-.011.192-.019a2.108,2.108,0,0,0,.158.346l-.055.181c-1.128,3.845-1.764,9.637-1.946,17.7-.039,1.509-.059,3.144-.059,4.976Z" transform="translate(0 -28.586)" fill="#ffac3e"/>
      <path id="Path_1146" data-name="Path 1146" d="M380.5,291.028a.793.793,0,0,0,0,1.586h5.471a.793.793,0,1,0,0-1.586Z" transform="translate(-320.543 -241.624)" fill="#ffac3e"/>
      <path id="Path_1147" data-name="Path 1147" d="M224.793,292.614h4.374a.793.793,0,1,0,0-1.586h-4.374a.793.793,0,1,0,0,1.586Z" transform="translate(-182.117 -241.624)" fill="#ffac3e"/>
      <path id="Path_1148" data-name="Path 1148" d="M90.461,291.028a.793.793,0,0,0,0,1.586H99.9a.793.793,0,1,0,0-1.586Z" transform="translate(-62.661 -241.624)" fill="#ffac3e"/>
      <path id="Path_1149" data-name="Path 1149" d="M241.364,253.325a.793.793,0,0,0,.793.793h5.681a.793.793,0,0,0,0-1.586h-5.681A.794.794,0,0,0,241.364,253.325Z" transform="translate(-197.553 -207.431)" fill="#ffac3e"/>
      <path id="Path_1150" data-name="Path 1150" d="M409.8,253.325a.794.794,0,0,0-.793-.793h-6.669a.793.793,0,0,0,0,1.586H409a.793.793,0,0,0,.793-.793Z" transform="translate(-339.904 -207.431)" fill="#ffac3e"/>
      <path id="Path_1151" data-name="Path 1151" d="M160.332,253.325a.793.793,0,0,0,.793.793h4.653a.793.793,0,1,0,0-1.586h-4.653A.794.794,0,0,0,160.332,253.325Z" transform="translate(-125.557 -207.431)" fill="#ffac3e"/>
      <path id="Path_1152" data-name="Path 1152" d="M53.769,254.118H59.4a.793.793,0,0,0,0-1.586H53.769a.793.793,0,0,0,0,1.586Z" transform="translate(-30.126 -207.431)" fill="#ffac3e"/>
      <path id="Path_1153" data-name="Path 1153" d="M231.793,215.626H237.8a.793.793,0,0,0,0-1.586h-6.005a.793.793,0,1,0,0,1.586Z" transform="translate(-188.348 -173.241)" fill="#ffac3e"/>
      <path id="Path_1154" data-name="Path 1154" d="M139.793,214.04a.793.793,0,1,0,0,1.586h5.258a.793.793,0,0,0,0-1.586Z" transform="translate(-106.609 -173.241)" fill="#ffac3e"/>
      <path id="Path_1155" data-name="Path 1155" d="M74.313,26.646h1.253a4.8,4.8,0,0,0,.847,2.04l-.89.89A.793.793,0,0,0,76.645,30.7h0l.888-.888a4.812,4.812,0,0,0,2.04.848v1.252a.793.793,0,1,0,1.586,0V30.656a4.811,4.811,0,0,0,2.04-.848l.893.89a.793.793,0,0,0,1.12-1.123l-.887-.889a4.81,4.81,0,0,0,.847-2.04h1.257a.793.793,0,0,0,0-1.586H85.171a4.81,4.81,0,0,0-.847-2.04l.892-.889a.793.793,0,0,0-1.12-1.123l-.893.89a4.816,4.816,0,0,0-2.04-.848V19.793a.793.793,0,0,0-1.586,0V21.05a4.812,4.812,0,0,0-2.04.848l-.888-.888a.795.795,0,0,0-1.126,1.121l.888.888a4.8,4.8,0,0,0-.847,2.04H74.313a.793.793,0,1,0,0,1.586Zm3.733-3.115a3.278,3.278,0,1,1-.964,2.322A3.278,3.278,0,0,1,78.046,23.531Z" transform="translate(-48.342)" fill="#ffac3e"/>
      <circle id="Ellipse_60" data-name="Ellipse 60" cx="0.906" cy="0.906" r="0.906" transform="translate(28.239 57.892)" fill="#ffac3e"/>
      <circle id="Ellipse_61" data-name="Ellipse 61" cx="0.906" cy="0.906" r="0.906" transform="translate(33.015 62.084)" fill="#ffac3e"/>
      <circle id="Ellipse_62" data-name="Ellipse 62" cx="0.906" cy="0.906" r="0.906" transform="translate(38.379 58.787)" fill="#ffac3e"/>
      <circle id="Ellipse_63" data-name="Ellipse 63" cx="0.906" cy="0.906" r="0.906" transform="translate(48.887 65.767)" fill="#ffac3e"/>
      <circle id="Ellipse_64" data-name="Ellipse 64" cx="0.906" cy="0.906" r="0.906" transform="translate(56.773 67.41)" fill="#ffac3e"/>
      <circle id="Ellipse_65" data-name="Ellipse 65" cx="0.906" cy="0.906" r="0.906" transform="translate(61.936 66.503)" fill="#ffac3e"/>
      <circle id="Ellipse_66" data-name="Ellipse 66" cx="0.906" cy="0.906" r="0.906" transform="translate(65.425 57.892)" fill="#ffac3e"/>
      <path id="Path_1156" data-name="Path 1156" d="M58.678,439.739H55.9a6.33,6.33,0,0,0-1.415.162,7.507,7.507,0,0,0-3.56-.9H47.609a7.533,7.533,0,0,0-7.116,5.066.793.793,0,0,0,.75,1.052H64.008a.793.793,0,0,0,.75-1.052,6.433,6.433,0,0,0-6.08-4.328Zm-16.2,3.794a5.949,5.949,0,0,1,5.132-2.946h3.315a5.948,5.948,0,0,1,5.132,2.946Zm15.353,0a7.491,7.491,0,0,0-1.473-2.207h2.321a4.85,4.85,0,0,1,4.067,2.207Z" transform="translate(-19.019 -373.12)" fill="#ffac3e"/>
    </g>
  </g>
</svg>
