<?xml version="1.0" encoding="UTF-8"?><svg xmlns="http://www.w3.org/2000/svg" viewBox="0 0 24 24"><defs><style>.cls-1{isolation:isolate;}</style></defs><g id="All"><path fill="#FFF" id="JUNE" class="cls-1" d="M143.3457-225.12598l.00586,.01758c.00781,.45898-.13281,.82324-.4209,1.09277s-.6875,.4043-1.19922,.4043c-.51367,0-.93066-.16504-1.25098-.49512s-.48047-.75488-.48047-1.27441v-.84668c0-.51758,.15625-.94238,.46875-1.27441s.71875-.49805,1.21875-.49805c.52734,0,.93945,.13574,1.23633,.40527,.29688,.27148,.44141,.63965,.43359,1.10645l-.00586,.01758h-.83203c0-.28125-.06738-.49707-.20215-.64551-.13477-.15039-.34473-.22461-.62988-.22461-.25586,0-.45898,.10352-.60938,.31152s-.22559,.47266-.22559,.79492v.85156c0,.32617,.0791,.59277,.2373,.80078s.37207,.31152,.6416,.31152c.26758,0,.46484-.07227,.59277-.21484,.12793-.14453,.19238-.35742,.19238-.64062h.8291Zm1.65039-.25195v1.70508h-.85547v-4.26562h1.6084c.48633,0,.86719,.11133,1.1416,.33203,.27441,.22266,.41113,.53125,.41113,.92773,0,.2207-.05762,.41016-.17285,.56836s-.28418,.28613-.50684,.38379c.25195,.07422,.43359,.19824,.54395,.37207s.16504,.38867,.16504,.64453v.31348c0,.11914,.0166,.24414,.04883,.37402s.08691,.22559,.16504,.28809v.06152h-.88184c-.07812-.0625-.12891-.16699-.15234-.31348s-.03516-.28516-.03516-.41602v-.30176c0-.21289-.05762-.37793-.17383-.49609s-.28027-.17773-.49121-.17773h-.81445Zm0-.65918h.73828c.24023,0,.41992-.05078,.53809-.15234s.17676-.25195,.17676-.45117c0-.19531-.05859-.35059-.17676-.46582s-.29297-.17285-.52344-.17285h-.75293v1.24219Zm6.66602-1.90137v2.83008c0,.47852-.1582,.84766-.47461,1.10742s-.73047,.38965-1.24219,.38965c-.50977,0-.9209-.12988-1.23438-.38965s-.4707-.62891-.4707-1.10742v-2.83008h.8584v2.82812c0,.28027,.0752,.49121,.22559,.63086s.35742,.20898,.62109,.20898c.26758,0,.47754-.06934,.62988-.20801s.22852-.34961,.22852-.63184v-2.82812h.8584Zm.92773,4.26562v-4.26562h1.46484c.52148,0,.95117,.16699,1.28906,.5s.50684,.75977,.50684,1.28125v.70605c0,.52344-.16895,.9502-.50684,1.28223-.33789,.33008-.76758,.49609-1.28906,.49609h-1.46484Zm.85547-3.60645v2.94727h.56543c.30664,0,.54688-.10352,.7207-.31055,.17383-.20605,.26074-.47656,.26074-.81055v-.71094c0-.33008-.08691-.59863-.26074-.80469-.17383-.20703-.41406-.31055-.7207-.31055h-.56543Z"/></g><g id="Layer_3"><g><path fill="#FFF" d="M.99994,5v14H22.99994V5H.99994Zm4.00006,11.00006H3v-2h2v2Zm0-3H3v-2h2v2Zm0-3H3v-2h2v2Zm15.99994,6.99994H7V7h13.99994v10Z"/><rect fill="#FFF" x="9" y="9.00006" width="3" height="6"/><rect fill="#FFF" x="13" y="9.00006" width="3" height="6"/><rect fill="#FFF" x="17" y="9.00006" width="3" height="6"/></g></g></svg>