<svg xmlns="http://www.w3.org/2000/svg" width="82" height="108.97" viewBox="0 0 82 108.97">
  <g id="Top" transform="translate(-30 -440)">
    <g id="Top-2" data-name="Top" transform="translate(-121 -45.467)">
      <path id="Path_787" data-name="Path 787" d="M342.273,84.714,335.9,99.842,347,110.935l10.749-10.749Z" transform="translate(-130.248 403.139)" fill="#0e88f2"/>
      <path id="Path_788" data-name="Path 788" d="M260.4,75.843,244.87,82.814v54.651l22.057-1.911V77.366Z" transform="translate(-54.819 410.535)" fill="#0e88f2"/>
      <path id="Path_789" data-name="Path 789" d="M49.345,100.186l10.749,10.749L72.275,98.754l-7.458-14.04Z" transform="translate(107.158 403.139)" fill="#58b1ff"/>
      <path id="Path_790" data-name="Path 790" d="M145.659,75.843l-6.529,1.523v58.188l20.139,1.911V82.814Z" transform="translate(32.765 410.535)" fill="#58b1ff"/>
      <g id="Group_4412" data-name="Group 4412">
        <path id="Path_792" data-name="Path 792" d="M260.4,71.467l-.558.984a15.13,15.13,0,0,1-13.052,6.972L244.87,77.5l1.918-1.918a11.274,11.274,0,0,0,9.716-5.031Z" transform="translate(-54.806 414.911)" fill="#055ca7"/>
        <path id="Path_793" data-name="Path 793" d="M190.628,75.587v3.836a15.13,15.13,0,0,1-13.052-6.972l-.558-.984,3.893-.911A11.274,11.274,0,0,0,190.628,75.587Z" transform="translate(1.393 414.911)" fill="#055ca7"/>
      </g>
    </g>
    <text id="Women_s_Top" data-name="Women’s 
Top" transform="translate(30 510.97)" fill="#0e88f2" font-size="12" font-family="SFProText-Bold, SF Pro Text" font-weight="700"><tspan x="13.646" y="11">Women’s </tspan><tspan x="29.999" y="27">Top</tspan></text>
  </g>
</svg>
