<svg xmlns="http://www.w3.org/2000/svg" xmlns:xlink="http://www.w3.org/1999/xlink" width="82" height="108.97" viewBox="0 0 82 108.97">
  <defs>
    <clipPath id="clip-path">
      <rect id="Rectangle_6395" data-name="Rectangle 6395" width="52.372" height="58.666" fill="#0e88f2"/>
    </clipPath>
  </defs>
  <g id="Train" transform="translate(-30 -440)">
    <text id="Train-2" data-name="Train" transform="translate(30 510.97)" fill="#0e88f2" font-size="12" font-family="SFProText-Bold, SF Pro Text" font-weight="700"><tspan x="25.801" y="11">Train</tspan></text>
    <g id="Group_4410" data-name="Group 4410" transform="translate(45 440)">
      <g id="Group_4409" data-name="Group 4409" transform="translate(0 0)" clip-path="url(#clip-path)">
        <path id="Path_2632" data-name="Path 2632" d="M36.3,40.427H13.081c-4.957,0-8.99-3.763-8.99-8.387V10.507c0-4.625,4.033-8.386,8.99-8.386h1.062A3.432,3.432,0,0,1,17.372,0H33.153a3.431,3.431,0,0,1,3.23,2.122c4.92.041,8.909,3.788,8.909,8.386V32.04c0,4.625-4.033,8.387-8.991,8.387M13.081,3.523c-4.184,0-7.588,3.133-7.588,6.984V32.04c0,3.851,3.4,6.986,7.588,6.986H36.3c4.186,0,7.59-3.135,7.59-6.986V10.507c0-3.851-3.4-6.984-7.59-6.984H35.272l-.105-.576A2.011,2.011,0,0,0,33.153,1.4H17.372a2.013,2.013,0,0,0-2.014,1.547l-.105.575Zm-.055,31.6a3.464,3.464,0,1,1,0-6.916,3.464,3.464,0,1,1,0,6.916m0-5.514a2.067,2.067,0,1,0,0,4.113,2.067,2.067,0,1,0,0-4.113m22.872,5.3a3.465,3.465,0,1,1,3.673-3.459A3.575,3.575,0,0,1,35.9,34.912m0-5.516a2.067,2.067,0,1,0,2.272,2.057A2.176,2.176,0,0,0,35.9,29.4m.228-7.422H12.8a3.355,3.355,0,0,1-3.446-3.247V11.093A3.355,3.355,0,0,1,12.8,7.848H36.126a3.353,3.353,0,0,1,3.445,3.246v7.635a3.353,3.353,0,0,1-3.445,3.247M12.8,9.249a1.954,1.954,0,0,0-2.045,1.844v7.635A1.955,1.955,0,0,0,12.8,20.574H36.126a1.954,1.954,0,0,0,2.043-1.846V11.093a1.953,1.953,0,0,0-2.043-1.844Z" transform="translate(1.642 0)" fill="#0e88f2"/>
        <path id="Path_2633" data-name="Path 2633" d="M52.372,47.245H44.666L42.708,43H10.359l-2.12,4.242H0L14.088,28.453h3.543L16.04,31.634H37.457l-1.469-3.181h3.363Zm-6.808-1.4h4.13L38.618,29.854h-.44l1.47,3.181H13.774l1.589-3.181h-.575L2.8,45.844H7.371L9.491,41.6H43.605ZM42.193,38.55H11.018l2.4-4.8H39.98Zm-28.909-1.4H40l-.919-1.993H14.28Z" transform="translate(0 11.42)" fill="#0e88f2"/>
      </g>
    </g>
  </g>
</svg>
