<svg xmlns="http://www.w3.org/2000/svg" width="24.794" height="15.135" viewBox="0 0 24.794 15.135">
  <style>.st0{fill:#56AF51;}</style>
  <g id="Group_11" data-name="Group 11" transform="translate(-624.436 -314.07)">
    <path id="Path_3" class="st0" data-name="Path 3" d="M12.243-14.93V-4.778a4.762,4.762,0,0,1-1.328,3.456A5.351,5.351,0,0,1,7.342.185L6.819.205A5.588,5.588,0,0,1,2.912-1.118a4.731,4.731,0,0,1-1.477-3.64V-14.93H3.384v10.11A3.415,3.415,0,0,0,4.276-2.3a3.429,3.429,0,0,0,2.543.9A3.452,3.452,0,0,0,9.377-2.3a3.408,3.408,0,0,0,.887-2.512V-14.93Zm7.978,5.722L23.8-14.93h2.317L21.4-7.526,26.229,0H23.892L20.221-5.824,16.529,0H14.2l4.84-7.526-4.727-7.4h2.307Z" transform="translate(623 329)"/>
  </g>
</svg>
