<?xml version="1.0" encoding="utf-8"?>
<!-- Generator: Adobe Illustrator 26.2.1, SVG Export Plug-In . SVG Version: 6.00 Build 0)  -->
<svg version="1.1" id="Layer_1" xmlns="http://www.w3.org/2000/svg" xmlns:xlink="http://www.w3.org/1999/xlink" x="0px" y="0px"
	 viewBox="0 0 24 24" style="enable-background:new 0 0 24 24;" xml:space="preserve">
<path fill="#FFA726" id="Path_1256" d="M12,3c-5,0-9,4-9,9s4,9,9,9s9-4,9-9C21,7,17,3,12,3z M10.4,19.8c0-0.1,0-0.2,0-0.4v-2.1
	c0-0.8,0.3-0.9,0.6-1.4c0.2-0.2,0.1-0.6-0.2-0.7c-0.1,0-0.1-0.1-0.2-0.1c-1.4-0.1-2.7-0.9-3.2-2.2C7,11.7,7.2,10.4,7.9,9.4
	C8.1,9.3,8.1,9,8.1,8.8c-0.1-0.5-0.2-1,0-1.6c0.5,0.1,1,0.3,1.4,0.6C9.7,8,9.9,8.2,10.2,8.1c1.2-0.3,2.4-0.3,3.6,0
	c0.3,0.1,0.5-0.1,0.8-0.2C15,7.6,15.5,7.4,16,7.2c0.1,0.5,0.1,1,0,1.6c-0.1,0.2,0,0.5,0.1,0.6c0.8,1,1,2.3,0.6,3.4
	c-0.6,1.3-1.8,2.2-3.2,2.2c-0.3,0-0.5,0.3-0.4,0.6c0,0.1,0,0.1,0.1,0.2c0.3,0.5,0.6,0.6,0.6,1.4v2.1c0,0.1,0,0.2,0,0.4
	C12.6,20,11.4,20,10.4,19.8L10.4,19.8z M14.7,19.5C14.6,19.5,14.6,19.4,14.7,19.5l0-2.2c0-0.5-0.1-0.9-0.3-1.3
	c1.5-0.3,2.7-1.4,3.3-2.8c0.5-1.5,0.3-3.1-0.6-4.3c0.2-0.8,0.1-1.6-0.2-2.4c-0.2-0.2-0.4-0.4-0.7-0.3c-0.8,0.1-1.5,0.4-2.2,0.9
	c-0.6-0.2-1.3-0.2-1.9-0.3h0c-0.6,0-1.3,0.1-1.9,0.3C9.4,6.6,8.7,6.3,7.9,6.2c-0.3,0-0.5,0.1-0.7,0.3C6.9,7.3,6.8,8.1,7,8.9
	c-0.9,1.3-1.1,2.9-0.6,4.3c0.6,1.4,1.8,2.4,3.3,2.8c-0.2,0.3-0.3,0.6-0.3,0.9c-0.6,0.3-1.3,0-1.5-0.5c-0.4-0.7-1.1-1.2-2-1.2
	c-0.3,0-0.5,0.3-0.5,0.6c0,0.3,0.3,0.5,0.5,0.5c0.4,0,0.8,0.4,0.9,0.7c0.5,0.9,1.5,1.3,2.4,1.1v1.4c0,0,0,0.1,0,0.1
	C5.2,18,3,13.5,4.5,9.3C6,5.2,10.5,3,14.7,4.5s6.3,6,4.8,10.1C18.7,16.9,16.9,18.7,14.7,19.5L14.7,19.5z"/>
</svg>
