<?xml version="1.0" encoding="utf-8"?>
<!-- Generator: Adobe Illustrator 27.0.1, SVG Export Plug-In . SVG Version: 6.00 Build 0)  -->
<svg version="1.1" id="Layer_1" xmlns="http://www.w3.org/2000/svg" xmlns:xlink="http://www.w3.org/1999/xlink" x="0px" y="0px"
	 viewBox="0 0 22 22" style="enable-background:new 0 0 22 22;" xml:space="preserve">
<path fill="#FFFFFF" id="Path_1256" d="M11,0C4.9,0,0,4.9,0,11s4.9,11,11,11s11-4.9,11-11S17.1,0,11,0z M9,20.5c0-0.1,0-0.2,0-0.5v-2.6
	c0-1,0.4-1.1,0.7-1.7c0.2-0.2,0.1-0.7-0.2-0.9c-0.1,0-0.1-0.1-0.2-0.1c-1.7-0.1-3.3-1.1-3.9-2.7C4.9,10.6,5.1,9,6,7.8
	c0.2-0.1,0.2-0.5,0.2-0.7c-0.1-0.6-0.2-1.2,0-2c0.6,0.1,1.2,0.4,1.7,0.7c0.2,0.2,0.5,0.5,0.9,0.4c1.5-0.4,2.9-0.4,4.4,0
	c0.4,0.1,0.6-0.1,1-0.2c0.5-0.4,1.1-0.6,1.7-0.9c0.1,0.6,0.1,1.2,0,2c-0.1,0.2,0,0.6,0.1,0.7c1,1.2,1.2,2.8,0.7,4.2
	c-0.7,1.6-2.2,2.7-3.9,2.7c-0.4,0-0.6,0.4-0.5,0.7c0,0.1,0,0.1,0.1,0.2c0.4,0.6,0.7,0.7,0.7,1.7v2.6c0,0.1,0,0.2,0,0.5
	C11.7,20.8,10.3,20.8,9,20.5L9,20.5z M14.3,20.2C14.2,20.2,14.2,20,14.3,20.2v-2.7c0-0.6-0.1-1.1-0.4-1.6c1.8-0.4,3.3-1.7,4-3.4
	c0.6-1.8,0.4-3.8-0.7-5.3c0.2-1,0.1-2-0.2-2.9c-0.2-0.2-0.5-0.5-0.9-0.4c-1,0.1-1.8,0.5-2.7,1.1c-0.7-0.2-1.6-0.2-2.3-0.4l0,0
	c-0.7,0-1.6,0.1-2.3,0.4C7.8,4.4,7,4,6,3.9C5.6,3.9,5.4,4,5.1,4.3c-0.4,1-0.5,2-0.2,2.9c-1.1,1.6-1.3,3.5-0.7,5.3
	c0.7,1.7,2.2,2.9,4,3.4c-0.2,0.4-0.4,0.7-0.4,1.1c-0.7,0.4-1.6,0-1.8-0.6c-0.5-0.9-1.3-1.5-2.4-1.5c-0.4,0-0.6,0.4-0.6,0.7
	c0,0.4,0.4,0.6,0.6,0.6c0.5,0,1,0.5,1.1,0.9c0.6,1.1,1.8,1.6,2.9,1.3v1.7v0.1c-4.9-2-7.6-7.5-5.7-12.6c1.8-5,7.3-7.7,12.5-5.9
	s7.7,7.3,5.9,12.3C19.2,17,17,19.2,14.3,20.2L14.3,20.2z"/>
</svg>
