<svg xmlns="http://www.w3.org/2000/svg" width="82" height="109.861" viewBox="0 0 82 109.861">
  <g id="VocalChillout" transform="translate(-30 -439.109)">
    <text id="Vocal_Chillout" data-name="Vocal
Chillout" transform="translate(30 510.97)" fill="#0e88f2" font-size="12" font-family="SFProText-Bold, SF Pro Text" font-weight="700"><tspan x="24.477" y="11">Vocal</tspan><tspan x="17.498" y="27">Chillout</tspan></text>
    <path id="Path_779" data-name="Path 779" d="M97.181,16.316c-1.581-3.243-4.3-5.062-6.92-6.82a19.565,19.565,0,0,1-5.116-4.32l-.235-.315a8.515,8.515,0,0,1-1.785-3.2A1.945,1.945,0,0,0,81.088,0,1.918,1.918,0,0,0,79.3,1.919V36.191a11.127,11.127,0,0,0-5.77-1.577c-5.3,0-9.616,3.45-9.616,7.693S68.229,50,73.529,50s9.616-3.45,9.616-7.693V8.769a27.8,27.8,0,0,0,4.974,3.923c2.3,1.542,4.481,3,5.608,5.312a9.029,9.029,0,0,1,.962,4.416,15.7,15.7,0,0,1-3.37,9A1.921,1.921,0,0,0,94.2,33.96a19.63,19.63,0,0,0,4.323-11.3A12.766,12.766,0,0,0,97.181,16.316Z" transform="translate(13.649 408.043) rotate(30)" fill="none" stroke="#007aff" stroke-width="1.3"/>
  </g>
</svg>
