<svg id="All" xmlns="http://www.w3.org/2000/svg" viewBox="0 0 24 24"><path fill="#7C59B6" d="M14.42212,21a4.96779,4.96779,0,0,0,.60052,1H2V2H22V15.02264a4.96779,4.96779,0,0,0-1-.60052V3H3V21ZM24,19.15332v1.10156a.74978.74978,0,0,1-.749.749h-.39942a3.62282,3.62282,0,0,1-.5498.95312l.21386.36817a.75243.75243,0,0,1-.27636,1.02441l-.94922.5498a.77926.77926,0,0,1-.377.10059.74711.74711,0,0,1-.65137-.38086l-.21094-.36133a3.64028,3.64028,0,0,1-1.08984.002l-.19141.34863a.76972.76972,0,0,1-1.04.2832l-.94433-.54394a.74856.74856,0,0,1-.28418-1.00489l.207-.377a3.56587,3.56587,0,0,1-.55762-.96191H15.749a.74978.74978,0,0,1-.749-.749V19.15332a.74977.74977,0,0,1,.749-.749h.39942a3.615,3.615,0,0,1,.55371-.957l-.19434-.3418a.75309.75309,0,0,1,.27832-1.01758l.95215-.5498a.77427.77427,0,0,1,1.02832.28125l.1875.3291a3.667,3.667,0,0,1,1.10352.002l.21-.34961a.77249.77249,0,0,1,1.01465-.26758l.95605.55371a.73485.73485,0,0,1,.35059.459.74671.74671,0,0,1-.08008.57031l-.2041.34082a3.59556,3.59556,0,0,1,.54687.94727H23.251A.74977.74977,0,0,1,24,19.15332Zm-1,.251h-.89453l-.09961-.3711a2.595,2.595,0,0,0-.67285-1.165l-.27637-.27636.46094-.7666-.51856-.29981-.46191.76856-.36426-.09864a2.6082,2.6082,0,0,0-1.34277,0l-.374.10157-.43554-.76758-.51953.30078.43652.76855-.27051.26953a2.58336,2.58336,0,0,0-.67285,1.165l-.09961.3711H16v.59961h.89746l.09863.37207a2.58214,2.58214,0,0,0,.67383,1.166l.26563.26465-.4375.79688.51855.29882.4336-.791.3789.10058a2.61194,2.61194,0,0,0,1.34375,0l.36914-.09765.46289.79492.51856-.30078-.46289-.7959L21.333,21.541a2.59167,2.59167,0,0,0,.67285-1.166l.09961-.37109H23Zm-1.667.2998a1.833,1.833,0,1,1-1.833-1.833A1.83528,1.83528,0,0,1,21.333,19.7041Zm-1,0a.833.833,0,1,0-.833.834A.8344.8344,0,0,0,20.333,19.7041Zm-5.94617-5.53491L12.67072,8H11.32928L9.626,14.16919l-.0373-.00653L8.28448,8H6.5l2.12756,9h1.691l1.66608-5.94019H12.022L13.68805,17H15.3786L17.5,8H15.72168l-1.29761,6.16919Z"/></svg>