<svg id="All" xmlns="http://www.w3.org/2000/svg" viewBox="0 0 24 24"><path fill="#7C59B6" d="M20,11V5h-.00287L17,2.00287V2H4v9H2v8H4v3H20V19h2V11ZM17,3.41705,18.583,5H17ZM5,3H16V6h3v5H5ZM19,21H5V19H19Zm2-3H3V12H21ZM8.52226,16.60645h2.06188v.65917H7.5v-.44726l2.004-3.15918H7.5029V13h3.032v.42773Zm3.71689.65917h-.8456V13h.8456Zm1.86593-1.54687v1.54687h-.8456V13h1.67963a1.64841,1.64841,0,0,1,1.14388.375,1.3738,1.3738,0,0,1,0,1.97168,1.65669,1.65669,0,0,1-1.14388.37207Zm0-.65918h.834a.65157.65157,0,0,0,.71818-.69141.73314.73314,0,0,0-.181-.50878.68985.68985,0,0,0-.53719-.2002h-.834Z"/></svg>