<?xml version="1.0" encoding="utf-8"?>
<svg width="450" height="450" viewBox="0 0 50.369617 49.826836" version="1.1" id="svg151" xmlns="http://www.w3.org/2000/svg">
    <defs id="defs105">
        <path id="aj28a0fd1a" d="M 1.738,0.156 3.927,2.323 2.347,3.919 0.101,1.81 Z"/>
        <path id="fdje57jgic" d="M 2.201,0.066 3.855,1.703 1.69,3.894 0.093,2.311 Z"/>
        <path id="6bg72xwlze" d="M 2.398,0.044 3.994,1.624 1.886,3.869 0.232,2.232 Z"/>
        <path id="eaqjnja8wg" d="M 1.736,0.023 3.981,2.132 2.344,3.786 0.156,1.619 Z"/>
    </defs>
    <g transform="matrix(0.654552, 0, 0, 0.689809, 7.599659, 5.428322)" style="">
        <path class="st0" d="M14,7.4C13.4,7,12.7,7,12.2,7.3c-0.6,0.3-1,0.9-1,1.6v38.2c0,1,0.8,1.8,1.8,1.8c0.3,0,0.7-0.1,1-0.3l8.8-5.6 l14.4-9.2l6.8-4.3c0.9-0.5,1.1-1.7,0.6-2.5c-0.1-0.2-0.3-0.4-0.6-0.6l-6.7-4.3L22.8,13L14,7.4z" style="fill: none;"/>
        <path class="st1" d="M14,48.6c-0.3,0.2-0.6,0.3-1,0.3c-1,0-1.8-0.8-1.8-1.8V8.9c0-0.7,0.4-1.3,1-1.6C12.7,7,13.4,7,14,7.4l8.8,5.6 l3.3-5.1l-8.8-5.6C16,1.4,14.5,1,13,1C8.6,1,5.1,4.5,5.1,8.9v38.2l0,0c0,4.4,3.5,7.9,7.9,7.9c1.5,0,3-0.4,4.2-1.2l8.9-5.6L22.8,43 L14,48.6z" style="fill: rgb(128, 97, 254);"/>
        <polygon class="st2" points="22.8,43 37.2,33.8 40.5,38.9 26.1,48.2 &#9;" style="fill: rgb(0, 233, 168);"/>
        <path class="st3" d="M47.2,21.3L40.6,17l-3.3,5.1l6.6,4.3c0.2,0.1,0.4,0.3,0.6,0.6c0.5,0.9,0.3,2-0.6,2.5l-6.7,4.3l3.3,5.1l6.7-4.3 c1-0.6,1.8-1.4,2.4-2.4C52,28.6,50.9,23.7,47.2,21.3z" style="fill: rgb(255, 71, 117);"/>
        <polygon class="st4" points="22.8,13 26.1,7.9 40.6,17 37.3,22.1 &#9;" style="fill: rgb(0, 154, 255);"/>
    </g>
</svg>
